<svg xmlns="http://www.w3.org/2000/svg" xmlns:xlink="http://www.w3.org/1999/xlink" width="500" zoomAndPan="magnify" viewBox="0 0 375 374.999991" height="500" preserveAspectRatio="xMidYMid meet" version="1.0"><defs><g/><clipPath id="0a86207596"><path d="M 107 69 L 197 69 L 197 159 L 107 159 Z M 107 69 " clip-rule="nonzero"/></clipPath><clipPath id="722dd01911"><path d="M 102.476562 78.621094 L 190.65625 64.835938 L 203.867188 149.308594 L 115.6875 163.09375 Z M 102.476562 78.621094 " clip-rule="nonzero"/></clipPath><clipPath id="8d05a863b1"><path d="M 102.476562 78.621094 L 190.65625 64.835938 L 203.867188 149.308594 L 115.6875 163.09375 Z M 102.476562 78.621094 " clip-rule="nonzero"/></clipPath><clipPath id="3210f44344"><path d="M 127 109 L 185 109 L 185 153 L 127 153 Z M 127 109 " clip-rule="nonzero"/></clipPath><clipPath id="fd731c14f6"><path d="M 102.476562 78.621094 L 190.65625 64.835938 L 203.867188 149.308594 L 115.6875 163.09375 Z M 102.476562 78.621094 " clip-rule="nonzero"/></clipPath><clipPath id="24be7d7263"><path d="M 102.476562 78.621094 L 190.65625 64.835938 L 203.867188 149.308594 L 115.6875 163.09375 Z M 102.476562 78.621094 " clip-rule="nonzero"/></clipPath><clipPath id="67e196b9a6"><path d="M 153 76 L 172 76 L 172 104 L 153 104 Z M 153 76 " clip-rule="nonzero"/></clipPath><clipPath id="29386edc58"><path d="M 102.476562 78.621094 L 190.65625 64.835938 L 203.867188 149.308594 L 115.6875 163.09375 Z M 102.476562 78.621094 " clip-rule="nonzero"/></clipPath><clipPath id="a378a97c94"><path d="M 102.476562 78.621094 L 190.65625 64.835938 L 203.867188 149.308594 L 115.6875 163.09375 Z M 102.476562 78.621094 " clip-rule="nonzero"/></clipPath><clipPath id="6283a742ca"><path d="M 129 79 L 149 79 L 149 107 L 129 107 Z M 129 79 " clip-rule="nonzero"/></clipPath><clipPath id="f3f26ba4eb"><path d="M 102.476562 78.621094 L 190.65625 64.835938 L 203.867188 149.308594 L 115.6875 163.09375 Z M 102.476562 78.621094 " clip-rule="nonzero"/></clipPath><clipPath id="38a6af6937"><path d="M 102.476562 78.621094 L 190.65625 64.835938 L 203.867188 149.308594 L 115.6875 163.09375 Z M 102.476562 78.621094 " clip-rule="nonzero"/></clipPath><clipPath id="99e02391ab"><path d="M 114 101 L 135 101 L 135 127 L 114 127 Z M 114 101 " clip-rule="nonzero"/></clipPath><clipPath id="afee2ca0c4"><path d="M 102.476562 78.621094 L 190.65625 64.835938 L 203.867188 149.308594 L 115.6875 163.09375 Z M 102.476562 78.621094 " clip-rule="nonzero"/></clipPath><clipPath id="9d15bc8dac"><path d="M 102.476562 78.621094 L 190.65625 64.835938 L 203.867188 149.308594 L 115.6875 163.09375 Z M 102.476562 78.621094 " clip-rule="nonzero"/></clipPath><clipPath id="5ab64e2c6a"><path d="M 172 91 L 191 91 L 191 119 L 172 119 Z M 172 91 " clip-rule="nonzero"/></clipPath><clipPath id="12a6aa8abc"><path d="M 102.476562 78.621094 L 190.65625 64.835938 L 203.867188 149.308594 L 115.6875 163.09375 Z M 102.476562 78.621094 " clip-rule="nonzero"/></clipPath><clipPath id="833daddfde"><path d="M 102.476562 78.621094 L 190.65625 64.835938 L 203.867188 149.308594 L 115.6875 163.09375 Z M 102.476562 78.621094 " clip-rule="nonzero"/></clipPath><clipPath id="216e5d9303"><path d="M 203 38 L 314 38 L 314 155 L 203 155 Z M 203 38 " clip-rule="nonzero"/></clipPath><clipPath id="c614acbba5"><path d="M 220.644531 25.617188 L 327.378906 63.480469 L 291.273438 165.265625 L 184.539062 127.402344 Z M 220.644531 25.617188 " clip-rule="nonzero"/></clipPath><clipPath id="a40172583f"><path d="M 220.644531 25.617188 L 327.378906 63.480469 L 291.273438 165.265625 L 184.539062 127.402344 Z M 220.644531 25.617188 " clip-rule="nonzero"/></clipPath><clipPath id="2197859365"><path d="M 211 88 L 282 88 L 282 146 L 211 146 Z M 211 88 " clip-rule="nonzero"/></clipPath><clipPath id="1a75f2e8b7"><path d="M 220.644531 25.617188 L 327.378906 63.480469 L 291.273438 165.265625 L 184.539062 127.402344 Z M 220.644531 25.617188 " clip-rule="nonzero"/></clipPath><clipPath id="5f5096d403"><path d="M 220.644531 25.617188 L 327.378906 63.480469 L 291.273438 165.265625 L 184.539062 127.402344 Z M 220.644531 25.617188 " clip-rule="nonzero"/></clipPath><clipPath id="74af1629ed"><path d="M 267 57 L 293 57 L 293 91 L 267 91 Z M 267 57 " clip-rule="nonzero"/></clipPath><clipPath id="94554cdd21"><path d="M 220.644531 25.617188 L 327.378906 63.480469 L 291.273438 165.265625 L 184.539062 127.402344 Z M 220.644531 25.617188 " clip-rule="nonzero"/></clipPath><clipPath id="792388ddf8"><path d="M 220.644531 25.617188 L 327.378906 63.480469 L 291.273438 165.265625 L 184.539062 127.402344 Z M 220.644531 25.617188 " clip-rule="nonzero"/></clipPath><clipPath id="ccbb0668f7"><path d="M 239 47 L 264 47 L 264 82 L 239 82 Z M 239 47 " clip-rule="nonzero"/></clipPath><clipPath id="12419b03e5"><path d="M 220.644531 25.617188 L 327.378906 63.480469 L 291.273438 165.265625 L 184.539062 127.402344 Z M 220.644531 25.617188 " clip-rule="nonzero"/></clipPath><clipPath id="167235ec1b"><path d="M 220.644531 25.617188 L 327.378906 63.480469 L 291.273438 165.265625 L 184.539062 127.402344 Z M 220.644531 25.617188 " clip-rule="nonzero"/></clipPath><clipPath id="edea3c9452"><path d="M 211 60 L 236 60 L 236 95 L 211 95 Z M 211 60 " clip-rule="nonzero"/></clipPath><clipPath id="8c43c2ce08"><path d="M 220.644531 25.617188 L 327.378906 63.480469 L 291.273438 165.265625 L 184.539062 127.402344 Z M 220.644531 25.617188 " clip-rule="nonzero"/></clipPath><clipPath id="a2deca2a51"><path d="M 220.644531 25.617188 L 327.378906 63.480469 L 291.273438 165.265625 L 184.539062 127.402344 Z M 220.644531 25.617188 " clip-rule="nonzero"/></clipPath><clipPath id="8f011095ee"><path d="M 278 87 L 306 87 L 306 119 L 278 119 Z M 278 87 " clip-rule="nonzero"/></clipPath><clipPath id="74537d889b"><path d="M 220.644531 25.617188 L 327.378906 63.480469 L 291.273438 165.265625 L 184.539062 127.402344 Z M 220.644531 25.617188 " clip-rule="nonzero"/></clipPath><clipPath id="ca17a16344"><path d="M 220.644531 25.617188 L 327.378906 63.480469 L 291.273438 165.265625 L 184.539062 127.402344 Z M 220.644531 25.617188 " clip-rule="nonzero"/></clipPath></defs><g clip-path="url(#0a86207596)"><g clip-path="url(#722dd01911)"><g clip-path="url(#8d05a863b1)"><path fill="#5271ff" d="M 196.574219 100.574219 C 195.742188 95.980469 194.191406 92.464844 191.683594 89.515625 C 188.621094 85.917969 185.066406 84.402344 181.121094 85.019531 C 179.992188 85.195312 178.867188 85.554688 177.714844 86.097656 C 176.402344 80.894531 173.832031 76.621094 169.882812 73.09375 C 166.78125 70.332031 163.0625 69.128906 159.410156 69.699219 C 155.761719 70.269531 152.671875 72.53125 150.703125 76.058594 C 149.996094 77.328125 149.394531 78.597656 148.871094 79.867188 C 147.964844 78.773438 146.996094 77.769531 145.960938 76.878906 C 141.84375 73.347656 138.019531 73.070312 135.539062 73.460938 C 131.929688 74.023438 128.808594 76.375 126.746094 80.078125 C 124.074219 84.863281 122.914062 89.847656 123.25 94.726562 C 121.816406 94.453125 120.375 94.410156 118.972656 94.628906 C 114.132812 95.386719 110.324219 98.957031 108.78125 104.175781 C 107.871094 107.246094 107.644531 110.585938 108.085938 114.386719 L 108.113281 114.609375 L 108.152344 114.828125 C 109.089844 119.878906 110.765625 123.734375 113.414062 126.949219 C 115.722656 129.753906 118.710938 131.714844 121.878906 132.640625 C 121.496094 133.769531 121.234375 134.972656 121.140625 136.253906 C 120.632812 143.210938 124.183594 148.304688 126.898438 151.527344 C 131.792969 157.34375 137.445312 159.660156 144.175781 158.609375 C 145.929688 158.335938 147.726562 157.835938 149.671875 157.082031 C 156.476562 154.453125 162.472656 153.515625 168.757812 154.085938 C 170.863281 154.28125 172.777344 154.234375 174.609375 153.945312 C 178.039062 153.410156 181.015625 152.035156 183.453125 149.863281 C 189.902344 144.121094 190.890625 136.960938 191.03125 131.359375 C 191.113281 128.066406 190.222656 125.160156 188.515625 122.800781 C 190.382812 121.574219 192 119.882812 193.257812 117.792969 C 196.125 113.03125 197.234375 107.589844 196.65625 101.160156 L 196.628906 100.867188 Z M 182.171875 98.992188 C 182.730469 99.925781 183.136719 101.101562 183.4375 102.652344 C 183.703125 106.074219 183.203125 108.714844 181.867188 110.933594 C 181.511719 111.523438 181.160156 111.769531 180.964844 111.800781 C 180.679688 111.84375 180.125 111.554688 179.589844 110.808594 C 178.675781 109.535156 178.433594 107.492188 178.925781 105.199219 C 179.496094 102.515625 180.878906 100.234375 182.171875 98.992188 Z M 161.722656 83.675781 C 163.511719 85.511719 164.5625 87.667969 165.078125 90.535156 C 165.359375 93.734375 164.59375 95.074219 163.796875 95.957031 C 163.386719 96.417969 162.949219 96.695312 162.53125 96.757812 C 161.59375 96.90625 161.097656 95.902344 160.925781 95.464844 C 159.429688 91.621094 159.675781 87.847656 161.722656 83.675781 Z M 137.867188 87.492188 C 139.988281 89.605469 141.652344 92.988281 142.179688 96.292969 C 142.207031 96.476562 142.421875 98.132812 141.457031 99.601562 C 141.203125 99.988281 140.894531 100.195312 140.484375 100.261719 C 139.796875 100.367188 138.824219 100.066406 138.148438 98.902344 C 135.992188 95.179688 135.894531 91.53125 137.867188 87.492188 Z M 121.480469 108.125 C 126.699219 110.839844 127.597656 114.304688 127.785156 117.046875 C 127.878906 118.363281 127.183594 119.464844 125.96875 119.945312 C 125.648438 119.941406 124.601562 119.617188 123.679688 118.496094 C 122.53125 117.105469 121.785156 115.285156 121.269531 112.625 C 121.078125 110.832031 121.148438 109.359375 121.480469 108.125 Z M 177.738281 131.03125 C 177.625 135.59375 176.777344 138.003906 174.613281 139.933594 C 174.285156 140.222656 173.71875 140.628906 172.554688 140.8125 C 171.828125 140.925781 170.953125 140.9375 169.964844 140.847656 C 165.78125 140.464844 161.542969 140.601562 157.367188 141.257812 C 153.265625 141.898438 149.179688 143.015625 144.878906 144.679688 C 143.839844 145.082031 142.914062 145.347656 142.121094 145.472656 C 140.597656 145.710938 139.34375 145.667969 137.070312 142.964844 C 134.566406 139.992188 134.316406 138.390625 134.398438 137.230469 C 134.40625 137.136719 134.417969 137.070312 134.425781 137.019531 C 140.117188 133.144531 144.101562 127.855469 146.605469 120.851562 C 147.320312 118.847656 148.59375 116.898438 153.039062 116.203125 C 153.195312 116.179688 153.351562 116.15625 153.511719 116.136719 L 153.699219 116.113281 L 153.882812 116.078125 C 153.964844 116.0625 154.046875 116.046875 154.128906 116.035156 C 156.042969 115.734375 157.316406 116.179688 158.523438 117.574219 C 160.234375 119.535156 162.558594 122.09375 165.34375 124.445312 C 168.453125 127.066406 172.195312 128.957031 176.472656 130.058594 C 177.253906 130.261719 177.601562 130.484375 177.710938 130.566406 C 177.722656 130.636719 177.746094 130.78125 177.738281 131.03125 Z M 177.738281 131.03125 " fill-opacity="1" fill-rule="nonzero"/></g></g></g><g clip-path="url(#3210f44344)"><g clip-path="url(#fd731c14f6)"><g clip-path="url(#24be7d7263)"><path fill="#e7ebff" d="M 152.660156 109.542969 C 156.992188 108.730469 160.726562 109.972656 163.539062 113.207031 C 165.425781 115.371094 167.390625 117.46875 169.632812 119.363281 C 172.054688 121.410156 174.90625 122.789062 178.132812 123.621094 C 182.414062 124.722656 184.480469 127.382812 184.386719 131.195312 C 184.261719 136.15625 183.394531 141.015625 179.035156 144.898438 C 176.273438 147.355469 172.722656 147.773438 169.363281 147.46875 C 161.648438 146.765625 154.472656 148.101562 147.277344 150.882812 C 140.582031 153.472656 136.1875 152.246094 131.988281 147.25 C 129.410156 144.1875 127.472656 140.835938 127.769531 136.738281 C 127.925781 134.65625 128.753906 132.835938 130.664062 131.539062 C 135.617188 128.175781 138.519531 123.722656 140.34375 118.617188 C 142.191406 113.441406 146.179688 110.378906 152.660156 109.542969 Z M 152.660156 109.542969 " fill-opacity="1" fill-rule="evenodd"/></g></g></g><g clip-path="url(#67e196b9a6)"><g clip-path="url(#29386edc58)"><g clip-path="url(#a378a97c94)"><path fill="#e7ebff" d="M 171.671875 89.648438 C 172.03125 93.222656 171.664062 97.148438 168.746094 100.398438 C 164.320312 105.328125 157.132812 104.046875 154.730469 97.878906 C 152.210938 91.40625 153.238281 85.171875 156.511719 79.296875 C 158.550781 75.636719 162.300781 75.242188 165.460938 78.058594 C 168.773438 81.019531 170.835938 84.695312 171.671875 89.648438 Z M 171.671875 89.648438 " fill-opacity="1" fill-rule="evenodd"/></g></g></g><g clip-path="url(#6283a742ca)"><g clip-path="url(#f3f26ba4eb)"><g clip-path="url(#38a6af6937)"><path fill="#e7ebff" d="M 148.753906 95.308594 C 149.054688 97.3125 148.871094 100.425781 147.019531 103.246094 C 143.566406 108.519531 135.785156 108.085938 132.398438 102.234375 C 128.773438 95.984375 129.089844 89.523438 132.550781 83.316406 C 134.765625 79.34375 138.175781 78.960938 141.632812 81.925781 C 145.027344 84.839844 147.890625 89.863281 148.753906 95.308594 Z M 148.753906 95.308594 " fill-opacity="1" fill-rule="evenodd"/></g></g></g><g clip-path="url(#99e02391ab)"><g clip-path="url(#afee2ca0c4)"><g clip-path="url(#9d15bc8dac)"><path fill="#e7ebff" d="M 114.691406 113.613281 C 114.410156 111.21875 114.402344 108.605469 115.15625 106.066406 C 116.40625 101.828125 119.9375 99.96875 123.871094 101.882812 C 129.949219 104.835938 133.9375 109.558594 134.417969 116.59375 C 134.71875 120.949219 132.15625 124.753906 128.195312 126.210938 C 125.125 127.339844 121.152344 125.886719 118.550781 122.722656 C 116.40625 120.125 115.335938 117.085938 114.691406 113.613281 Z M 114.691406 113.613281 " fill-opacity="1" fill-rule="evenodd"/></g></g></g><g clip-path="url(#5ab64e2c6a)"><g clip-path="url(#12a6aa8abc)"><g clip-path="url(#833daddfde)"><path fill="#e7ebff" d="M 190.035156 101.757812 C 190.429688 106.148438 189.917969 110.449219 187.5625 114.363281 C 184.324219 119.734375 177.855469 119.78125 174.191406 114.6875 C 169.160156 107.6875 173.675781 96.058594 179.742188 92.53125 C 182.585938 90.878906 184.457031 91.28125 186.617188 93.824219 C 188.550781 96.09375 189.496094 98.792969 190.035156 101.757812 Z M 190.035156 101.757812 " fill-opacity="1" fill-rule="evenodd"/></g></g></g><path stroke-linecap="butt" transform="matrix(1.141037, 0, 0, 1.141037, -101.26808, 168.635497)" fill="none" stroke-linejoin="miter" d="M 206.605609 36.967171 C 206.769934 37.672396 206.708312 38.36735 206.417321 39.055458 C 206.129754 39.743565 205.664169 40.260502 205.023989 40.613114 C 204.609755 40.869871 204.130476 40.999961 203.582729 40.999961 L 197.054265 40.999961 C 196.157329 40.999961 195.482915 40.729511 195.03787 40.192033 C 194.592825 39.644286 194.195708 38.921944 193.843096 38.025008 L 192.401836 34.286632 L 185.055174 34.286632 L 183.661842 38.025008 C 183.30923 38.921944 182.908689 39.637439 182.463645 40.168069 C 182.0186 40.691853 181.347609 40.952033 180.450673 40.952033 L 173.922209 40.952033 C 173.405273 40.952033 172.987615 40.869871 172.669237 40.705547 C 171.964012 40.387168 171.443652 39.866808 171.108157 39.14789 C 170.772662 38.428972 170.704193 37.686089 170.899328 36.922666 L 179.53662 5.187554 C 179.629052 4.742509 179.7968 4.376203 180.039862 4.085212 C 180.282925 3.797645 180.515718 3.575122 180.741664 3.417645 C 181.24833 3.003411 181.871393 2.798006 182.604005 2.798006 L 195.17823 2.798006 C 195.530843 2.798006 195.914266 2.859627 196.3285 2.98287 C 196.74958 3.109537 197.136427 3.349177 197.489039 3.698365 C 197.838228 4.088635 198.071021 4.485752 198.18057 4.882869 C 198.296967 5.279986 198.385976 5.625752 198.447597 5.913319 Z M 191.008503 23.187901 C 191.234449 23.187901 191.409044 23.092046 191.53571 22.907181 C 191.658953 22.712046 191.689764 22.503217 191.628143 22.284118 L 190.385441 19.014751 L 189.378955 16.519077 C 189.276252 16.200699 189.067424 16.039798 188.745622 16.039798 C 188.434091 16.039798 188.225262 16.200699 188.125983 16.519077 L 187.164002 19.014751 L 185.9213 22.284118 C 185.787786 22.503217 185.80148 22.712046 185.955534 22.907181 C 186.119858 23.092046 186.314993 23.187901 186.544362 23.187901 Z M 224.513525 2.643952 C 226.403253 2.643952 228.152621 2.999988 229.765053 3.712059 C 231.380907 4.41386 232.787933 5.375842 233.982707 6.59458 C 235.184328 7.803047 236.122345 9.210073 236.793336 10.812234 C 237.46775 12.407549 237.803245 14.115836 237.803245 15.943942 L 237.803245 27.511682 C 237.803245 29.332942 237.46775 31.044653 236.793336 32.64339 C 236.122345 34.245551 235.184328 35.662847 233.982707 36.898702 C 232.787933 38.124287 231.380907 39.093115 229.765053 39.805187 C 228.152621 40.506988 226.403253 40.859601 224.513525 40.859601 L 211.600381 40.859601 C 210.607589 40.859601 209.782544 40.493294 209.125247 39.757259 C 208.471374 39.014377 208.142725 38.213296 208.142725 37.354017 L 208.142725 6.101607 C 208.142725 5.211518 208.471374 4.41386 209.125247 3.712059 C 209.782544 2.999988 210.607589 2.643952 211.600381 2.643952 Z M 226.095145 22.907181 L 226.095145 20.596372 C 226.095145 19.572769 225.766497 18.734031 225.112623 18.076734 C 224.455327 17.42286 223.630282 17.094212 222.63749 17.094212 L 220.340375 17.094212 C 220.17605 17.094212 220.021996 17.169527 219.871366 17.316734 C 219.731006 17.457095 219.662537 17.686464 219.662537 18.008265 L 219.662537 25.495287 C 219.662537 25.786278 219.731006 25.995107 219.871366 26.12862 C 220.021996 26.255287 220.17605 26.316908 220.340375 26.316908 L 222.63749 26.316908 C 223.630282 26.316908 224.455327 25.995107 225.112623 25.354927 C 225.766497 24.714747 226.095145 23.899973 226.095145 22.907181 Z M 254.512963 2.024313 C 256.529358 2.024313 258.470438 2.390619 260.336202 3.126654 C 262.212237 3.859266 263.882866 4.876022 265.351514 6.173499 C 266.830432 7.467552 267.997818 8.984128 268.857097 10.719802 C 269.723223 12.445206 270.157997 14.3007 270.157997 16.286285 L 270.157997 27.217268 C 270.157997 29.274744 269.723223 31.188436 268.857097 32.961768 C 267.997818 34.7351 266.830432 36.28591 265.351514 37.614197 C 263.882866 38.942485 262.212237 39.976358 260.336202 40.71924 C 258.470438 41.451852 256.529358 41.821582 254.512963 41.821582 C 252.561613 41.821582 250.644497 41.451852 248.771886 40.71924 C 246.902698 39.976358 245.225222 38.942485 243.73261 37.614197 C 242.246846 36.28591 241.065765 34.7351 240.182523 32.961768 C 239.306127 31.188436 238.867929 29.274744 238.867929 27.217268 L 238.867929 16.286285 C 238.867929 14.3007 239.306127 12.445206 240.182523 10.719802 C 241.065765 8.984128 242.246846 7.467552 243.73261 6.173499 C 245.225222 4.876022 246.902698 3.859266 248.771886 3.126654 C 250.644497 2.390619 252.561613 2.024313 254.512963 2.024313 Z M 257.724132 26.737989 L 257.724132 17.14214 C 257.724132 16.282861 257.40233 15.539979 256.762151 14.913493 C 256.132241 14.29043 255.379089 13.975475 254.512963 13.975475 C 253.616027 13.975475 252.859451 14.29043 252.250082 14.913493 C 251.650983 15.539979 251.349722 16.282861 251.349722 17.14214 L 251.349722 26.737989 C 251.349722 27.542493 251.650983 28.257988 252.250082 28.884474 C 252.859451 29.507536 253.616027 29.819068 254.512963 29.819068 C 255.379089 29.819068 256.132241 29.507536 256.762151 28.884474 C 257.40233 28.257988 257.724132 27.542493 257.724132 26.737989 Z M 298.387527 8.504849 C 298.637436 9.299082 298.832571 10.261064 298.972932 11.387369 C 299.123562 12.503404 299.195454 13.766647 299.195454 15.170249 C 299.195454 17.929527 298.859959 20.171867 298.188968 21.897272 C 297.517978 23.626099 296.781942 24.96808 295.984285 25.930062 C 294.642304 27.532223 292.896359 28.333303 290.746451 28.333303 L 284.077627 28.333303 L 284.077627 37.110955 C 284.077627 38.165368 283.711321 39.062305 282.978709 39.805187 C 282.242673 40.537799 281.362854 40.907528 280.339251 40.907528 L 275.347903 40.907528 C 274.3243 40.907528 273.441058 40.537799 272.701599 39.805187 C 271.965563 39.062305 271.599257 38.165368 271.599257 37.110955 L 271.599257 6.488454 C 271.599257 5.464851 271.965563 4.578185 272.701599 3.828455 C 273.441058 3.071879 274.3243 2.69188 275.347903 2.69188 L 290.558163 2.69188 C 292.348612 2.69188 293.971314 3.229357 295.422844 4.307734 C 296.884645 5.379265 297.87059 6.776021 298.387527 8.504849 Z M 288.449336 15.077817 C 288.449336 14.310971 288.175462 13.63998 287.631138 13.061422 C 287.090237 12.482864 286.419247 12.195296 285.614743 12.195296 L 284.70069 12.195296 C 284.512401 12.195296 284.361771 12.270612 284.241951 12.417819 C 284.132402 12.558179 284.077627 12.712233 284.077627 12.876557 L 284.077627 18.056193 C 284.077627 18.436193 284.286456 18.627905 284.70069 18.627905 L 285.614743 18.627905 C 286.419247 18.627905 287.090237 18.350607 287.631138 17.796013 C 288.175462 17.234572 288.449336 16.553311 288.449336 15.759078 Z M 331.211287 2.596024 C 332.142458 2.596024 332.936692 2.924672 333.590565 3.581969 C 334.247862 4.239266 334.57651 5.030076 334.57651 5.961247 L 334.57651 12.534215 C 334.57651 13.434575 334.247862 14.218538 333.590565 14.889529 C 332.936692 15.563943 332.142458 15.899438 331.211287 15.899438 L 324.638319 15.899438 C 324.381562 15.899438 324.251472 16.008987 324.251472 16.228086 L 324.251472 37.730594 C 324.251472 38.62753 323.922824 39.414917 323.268951 40.085907 C 322.611654 40.756898 321.820844 41.092393 320.899943 41.092393 L 314.371479 41.092393 C 313.412922 41.092393 312.604994 40.756898 311.947697 40.085907 C 311.2904 39.414917 310.961752 38.62753 310.961752 37.730594 L 310.961752 16.228086 C 310.961752 16.008987 310.848779 15.899438 310.622833 15.899438 L 304.001937 15.899438 C 303.105001 15.899438 302.317614 15.563943 301.646624 14.889529 C 300.975633 14.218538 300.640138 13.434575 300.640138 12.534215 L 300.640138 5.961247 C 300.640138 5.030076 300.975633 4.239266 301.646624 3.581969 C 302.317614 2.924672 303.105001 2.596024 304.001937 2.596024 Z M 331.211287 2.596024 " stroke="#5271ff" stroke-width="9" stroke-opacity="1" stroke-miterlimit="4"/><path stroke-linecap="butt" transform="matrix(1.141037, 0, 0, 1.141037, -101.26808, 168.635497)" fill="none" stroke-linejoin="miter" d="M 200.008677 61.016703 C 199.912821 61.016703 199.830659 61.068055 199.762191 61.167334 C 199.700569 61.26319 199.666335 61.338505 199.666335 61.40355 L 199.666335 64.566791 C 199.666335 64.761926 199.782731 64.857782 200.008677 64.857782 L 207.060924 64.857782 C 207.704528 64.857782 208.245428 65.083728 208.690473 65.528772 C 209.145788 65.973817 209.371734 66.514718 209.371734 67.154897 L 209.371734 72.396155 C 209.371734 73.036335 209.145788 73.577235 208.690473 74.02228 C 208.245428 74.467325 207.704528 74.689847 207.060924 74.689847 L 200.008677 74.689847 C 199.782731 74.689847 199.666335 74.806243 199.666335 75.032189 L 199.666335 78.102998 C 199.666335 78.328943 199.782731 78.441916 200.008677 78.441916 L 209.744887 78.441916 C 210.456958 78.441916 211.05948 78.698673 211.552453 79.21561 C 212.052272 79.722276 212.302182 80.328221 212.302182 81.030023 L 212.302182 86.41164 C 212.302182 87.113442 212.052272 87.705694 211.552453 88.191819 C 211.05948 88.667675 210.456958 88.907314 209.744887 88.907314 L 190.118414 88.907314 C 189.125622 88.907314 188.29373 88.530738 187.62274 87.781009 C 186.948326 87.024433 186.612831 85.942632 186.612831 84.535606 L 186.612831 53.293466 C 186.612831 52.745718 186.948326 52.16716 187.62274 51.557791 C 188.29373 50.948422 189.125622 50.643738 190.118414 50.643738 L 209.744887 50.643738 C 210.456958 50.643738 211.05948 50.886801 211.552453 51.369503 C 212.052272 51.848782 212.302182 52.43761 212.302182 53.139412 L 212.302182 58.52103 C 212.302182 59.19202 212.052272 59.777425 211.552453 60.277244 C 211.05948 60.770217 210.456958 61.016703 209.744887 61.016703 Z M 249.538732 84.97038 C 249.703057 85.672182 249.641435 86.367136 249.353868 87.055244 C 249.062877 87.743351 248.597292 88.260288 247.957112 88.6129 C 247.542878 88.869657 247.063599 88.999747 246.515852 88.999747 L 239.990811 88.999747 C 239.090451 88.999747 238.419461 88.729297 237.974416 88.191819 C 237.529371 87.644072 237.128831 86.92173 236.779642 86.024794 L 235.338382 82.286418 L 227.988297 82.286418 L 226.594965 86.024794 C 226.242352 86.92173 225.845236 87.637225 225.400191 88.167855 C 224.955146 88.691639 224.284156 88.951819 223.383796 88.951819 L 216.855332 88.951819 C 216.341819 88.951819 215.924161 88.869657 215.60236 88.705333 C 214.900559 88.386954 214.380199 87.866594 214.044703 87.147676 C 213.709208 86.428758 213.637316 85.685875 213.832451 84.922452 L 222.469742 53.18734 C 222.562175 52.742295 222.733346 52.375989 222.972985 52.084998 C 223.216048 51.797431 223.452264 51.574908 223.67821 51.417431 C 224.184876 51.003197 224.804516 50.797792 225.540551 50.797792 L 238.114776 50.797792 C 238.467389 50.797792 238.847389 50.859413 239.261622 50.98608 C 239.686127 51.109323 240.072973 51.348963 240.422162 51.698151 C 240.774775 52.088421 241.004144 52.485538 241.113693 52.882655 C 241.233513 53.279772 241.322522 53.625537 241.384143 53.913105 Z M 233.941626 71.187687 C 234.170995 71.187687 234.34559 71.095255 234.468833 70.906967 C 234.5955 70.711832 234.62631 70.503003 234.564689 70.283904 L 233.321987 67.014537 L 232.315501 64.518863 C 232.212799 64.200485 232.000547 64.039584 231.682168 64.039584 C 231.367214 64.039584 231.161808 64.200485 231.059106 64.518863 L 230.100548 67.014537 L 228.857846 70.283904 C 228.724333 70.503003 228.734603 70.711832 228.89208 70.906967 C 229.056404 71.095255 229.251539 71.187687 229.477485 71.187687 Z M 266.299802 48.873829 C 268.761241 48.873829 270.846105 49.147703 272.557815 49.69545 C 274.269526 50.232927 275.683399 50.931305 276.799434 51.780314 C 277.925739 52.625899 278.808982 53.526258 279.449162 54.48824 C 280.089341 55.450221 280.561774 56.364274 280.866458 57.2304 C 281.171142 58.089678 281.369701 58.777786 281.465557 59.291299 C 281.527178 59.643912 281.475827 59.941749 281.311503 60.184812 C 281.154025 60.417605 280.94862 60.551118 280.691864 60.581929 L 268.935836 62.211477 C 268.391512 62.211477 268.021782 61.941027 267.836918 61.40355 C 267.607548 60.76337 267.220702 60.287515 266.676378 59.98283 C 266.135477 59.678146 265.676739 59.527515 265.293316 59.527515 C 264.776379 59.527515 264.204668 59.746614 263.581605 60.184812 C 262.955119 60.61274 262.643588 61.290577 262.643588 62.211477 C 262.643588 62.985171 262.859263 63.553458 263.287191 63.923188 C 263.725389 64.289494 264.228632 64.532557 264.800343 64.648953 C 265.378901 64.758503 265.878721 64.813277 266.299802 64.813277 C 267.097459 64.813277 268.134755 64.820124 269.418538 64.837241 C 270.698898 64.850935 272.051149 65.011836 273.471869 65.31652 C 274.892588 65.621205 276.237993 66.179222 277.504659 66.990573 C 278.767901 67.805347 279.798351 69.003545 280.596008 70.588589 C 281.400512 72.177056 281.804475 74.265343 281.804475 76.860296 C 281.804475 79.48606 281.376548 81.690743 280.527539 83.481192 C 279.681954 85.268218 278.576189 86.695784 277.210244 87.757045 C 275.851146 88.811459 274.368805 89.571458 272.770067 90.030196 C 271.174753 90.492358 269.623943 90.721728 268.117638 90.721728 C 265.108451 90.721728 262.59566 90.427313 260.582689 89.831638 C 258.566294 89.246233 256.909358 88.441729 255.611881 87.418126 C 254.314405 86.394523 253.283955 85.24083 252.517109 83.960471 C 251.753686 82.680112 251.1272 81.351824 250.644497 79.975609 C 250.230263 79.242997 250.391164 78.794529 251.123776 78.630205 L 263.992416 77.093088 C 264.341605 77.031467 264.588091 77.052007 264.728451 77.151287 C 264.879082 77.247142 264.985208 77.387503 265.04683 77.575791 C 265.303586 78.534349 265.693856 79.136871 266.217639 79.379934 C 266.74827 79.612726 267.207008 79.729123 267.590431 79.729123 C 268.261422 79.729123 268.867367 79.48606 269.404844 78.993087 C 269.952592 78.493268 270.226465 77.859935 270.226465 77.093088 C 270.226465 76.295431 269.945745 75.675792 269.380881 75.230747 C 268.826286 74.778856 268.151872 74.549487 267.354215 74.549487 L 264.471695 74.549487 C 261.784309 74.549487 259.367374 74.039397 257.217466 73.015794 C 255.077828 71.992191 253.390081 70.496156 252.154226 68.527689 C 250.928641 66.559222 250.315849 64.183368 250.315849 61.40355 C 250.315849 59.161209 250.682155 57.295445 251.41819 55.813104 C 252.150803 54.320492 253.10936 53.122295 254.287017 52.215088 C 255.474944 51.301035 256.74161 50.60608 258.083591 50.130225 C 259.428996 49.644099 260.709355 49.325721 261.928093 49.168243 C 263.146831 49.003919 264.15674 48.91491 264.950974 48.897793 C 265.748631 48.884099 266.197099 48.873829 266.299802 48.873829 Z M 319.718863 54.440312 L 308.339412 70.708408 L 308.339412 86.267857 C 308.339412 87.065514 308.010763 87.722811 307.353466 88.239747 C 306.699593 88.746414 306.004638 88.999747 305.268603 88.999747 L 297.500861 88.999747 C 296.757978 88.999747 296.066447 88.746414 295.426268 88.239747 C 294.792935 87.722811 294.474556 87.065514 294.474556 86.267857 L 294.474556 70.708408 L 283.098528 54.440312 C 282.684295 54.152744 282.475466 53.656348 282.475466 52.954547 C 282.475466 52.218511 282.721952 51.63653 283.214925 51.208602 C 283.714744 50.770404 284.265915 50.551305 284.865014 50.551305 L 293.608431 50.551305 C 293.865188 50.551305 294.169872 50.609504 294.522484 50.7259 C 294.875097 50.835449 295.159241 51.081936 295.37834 51.465359 L 301.379597 60.195082 L 307.716349 51.465359 C 308.130583 50.85599 308.626979 50.551305 309.205537 50.551305 L 317.890756 50.551305 C 318.530936 50.551305 319.088954 50.770404 319.564809 51.208602 C 320.050935 51.63653 320.290574 52.218511 320.290574 52.954547 C 320.290574 53.272925 320.2358 53.570763 320.129674 53.844636 C 320.020124 54.11851 319.883187 54.317069 319.718863 54.440312 Z M 319.718863 54.440312 " stroke="#5271ff" stroke-width="9" stroke-opacity="1" stroke-miterlimit="4"/><g fill="#5271ff" fill-opacity="1"><g transform="translate(92.690385, 215.418013)"><g><path d="M 41.78125 -4.59375 C 41.96875 -3.789062 41.894531 -3 41.5625 -2.21875 C 41.238281 -1.4375 40.710938 -0.84375 39.984375 -0.4375 C 39.503906 -0.144531 38.957031 0 38.34375 0 L 30.890625 0 C 29.867188 0 29.101562 -0.304688 28.59375 -0.921875 C 28.082031 -1.546875 27.625 -2.367188 27.21875 -3.390625 L 25.578125 -7.671875 L 17.203125 -7.671875 L 15.609375 -3.390625 C 15.203125 -2.367188 14.742188 -1.554688 14.234375 -0.953125 C 13.722656 -0.359375 12.957031 -0.0625 11.9375 -0.0625 L 4.484375 -0.0625 C 3.898438 -0.0625 3.425781 -0.148438 3.0625 -0.328125 C 2.257812 -0.691406 1.664062 -1.285156 1.28125 -2.109375 C 0.90625 -2.929688 0.828125 -3.78125 1.046875 -4.65625 L 10.890625 -40.859375 C 11.003906 -41.367188 11.195312 -41.785156 11.46875 -42.109375 C 11.75 -42.441406 12.015625 -42.695312 12.265625 -42.875 C 12.847656 -43.351562 13.5625 -43.59375 14.40625 -43.59375 L 28.75 -43.59375 C 29.15625 -43.59375 29.59375 -43.519531 30.0625 -43.375 C 30.539062 -43.226562 30.976562 -42.953125 31.375 -42.546875 C 31.78125 -42.109375 32.046875 -41.660156 32.171875 -41.203125 C 32.296875 -40.753906 32.394531 -40.363281 32.46875 -40.03125 Z M 23.984375 -20.3125 C 24.242188 -20.3125 24.445312 -20.421875 24.59375 -20.640625 C 24.738281 -20.859375 24.773438 -21.097656 24.703125 -21.359375 L 23.28125 -25.078125 L 22.125 -27.9375 C 22.019531 -28.300781 21.78125 -28.484375 21.40625 -28.484375 C 21.039062 -28.484375 20.804688 -28.300781 20.703125 -27.9375 L 19.609375 -25.078125 L 18.1875 -21.359375 C 18.039062 -21.097656 18.054688 -20.859375 18.234375 -20.640625 C 18.421875 -20.421875 18.640625 -20.3125 18.890625 -20.3125 Z M 23.984375 -20.3125 "/></g></g></g><g fill="#5271ff" fill-opacity="1"><g transform="translate(134.425037, 215.418013)"><g><path d="M 20.484375 -43.75 C 22.640625 -43.75 24.640625 -43.347656 26.484375 -42.546875 C 28.328125 -41.742188 29.929688 -40.648438 31.296875 -39.265625 C 32.671875 -37.878906 33.738281 -36.269531 34.5 -34.4375 C 35.269531 -32.613281 35.65625 -30.664062 35.65625 -28.59375 L 35.65625 -15.390625 C 35.65625 -13.304688 35.269531 -11.351562 34.5 -9.53125 C 33.738281 -7.707031 32.671875 -6.09375 31.296875 -4.6875 C 29.929688 -3.28125 28.328125 -2.175781 26.484375 -1.375 C 24.640625 -0.570312 22.640625 -0.171875 20.484375 -0.171875 L 5.75 -0.171875 C 4.613281 -0.171875 3.671875 -0.585938 2.921875 -1.421875 C 2.179688 -2.265625 1.8125 -3.175781 1.8125 -4.15625 L 1.8125 -39.8125 C 1.8125 -40.832031 2.179688 -41.742188 2.921875 -42.546875 C 3.671875 -43.347656 4.613281 -43.75 5.75 -43.75 Z M 22.296875 -20.640625 L 22.296875 -23.28125 C 22.296875 -24.445312 21.921875 -25.398438 21.171875 -26.140625 C 20.421875 -26.890625 19.476562 -27.265625 18.34375 -27.265625 L 15.71875 -27.265625 C 15.53125 -27.265625 15.351562 -27.179688 15.1875 -27.015625 C 15.03125 -26.859375 14.953125 -26.597656 14.953125 -26.234375 L 14.953125 -17.6875 C 14.953125 -17.363281 15.03125 -17.128906 15.1875 -16.984375 C 15.351562 -16.835938 15.53125 -16.765625 15.71875 -16.765625 L 18.34375 -16.765625 C 19.476562 -16.765625 20.421875 -17.128906 21.171875 -17.859375 C 21.921875 -18.585938 22.296875 -19.515625 22.296875 -20.640625 Z M 22.296875 -20.640625 "/></g></g></g><g fill="#5271ff" fill-opacity="1"><g transform="translate(170.354078, 215.418013)"><g><path d="M 18.78125 -44.46875 C 21.082031 -44.46875 23.300781 -44.046875 25.4375 -43.203125 C 27.570312 -42.367188 29.476562 -41.210938 31.15625 -39.734375 C 32.84375 -38.253906 34.175781 -36.523438 35.15625 -34.546875 C 36.144531 -32.578125 36.640625 -30.460938 36.640625 -28.203125 L 36.640625 -15.71875 C 36.640625 -13.382812 36.144531 -11.203125 35.15625 -9.171875 C 34.175781 -7.148438 32.84375 -5.378906 31.15625 -3.859375 C 29.476562 -2.347656 27.570312 -1.171875 25.4375 -0.328125 C 23.300781 0.515625 21.082031 0.9375 18.78125 0.9375 C 16.550781 0.9375 14.367188 0.515625 12.234375 -0.328125 C 10.097656 -1.171875 8.179688 -2.347656 6.484375 -3.859375 C 4.785156 -5.378906 3.4375 -7.148438 2.4375 -9.171875 C 1.4375 -11.203125 0.9375 -13.382812 0.9375 -15.71875 L 0.9375 -28.203125 C 0.9375 -30.460938 1.4375 -32.578125 2.4375 -34.546875 C 3.4375 -36.523438 4.785156 -38.253906 6.484375 -39.734375 C 8.179688 -41.210938 10.097656 -42.367188 12.234375 -43.203125 C 14.367188 -44.046875 16.550781 -44.46875 18.78125 -44.46875 Z M 22.453125 -16.265625 L 22.453125 -27.21875 C 22.453125 -28.207031 22.085938 -29.054688 21.359375 -29.765625 C 20.628906 -30.472656 19.769531 -30.828125 18.78125 -30.828125 C 17.757812 -30.828125 16.898438 -30.472656 16.203125 -29.765625 C 15.515625 -29.054688 15.171875 -28.207031 15.171875 -27.21875 L 15.171875 -16.265625 C 15.171875 -15.347656 15.515625 -14.535156 16.203125 -13.828125 C 16.898438 -13.117188 17.757812 -12.765625 18.78125 -12.765625 C 19.769531 -12.765625 20.628906 -13.117188 21.359375 -13.828125 C 22.085938 -14.535156 22.453125 -15.347656 22.453125 -16.265625 Z M 22.453125 -16.265625 "/></g></g></g><g fill="#5271ff" fill-opacity="1"><g transform="translate(206.83083, 215.418013)"><g><path d="M 32.359375 -37.078125 C 32.648438 -36.160156 32.878906 -35.0625 33.046875 -33.78125 C 33.210938 -32.507812 33.296875 -31.070312 33.296875 -29.46875 C 33.296875 -26.320312 32.910156 -23.765625 32.140625 -21.796875 C 31.378906 -19.828125 30.539062 -18.296875 29.625 -17.203125 C 28.09375 -15.367188 26.101562 -14.453125 23.65625 -14.453125 L 16.046875 -14.453125 L 16.046875 -4.4375 C 16.046875 -3.226562 15.625 -2.203125 14.78125 -1.359375 C 13.945312 -0.523438 12.945312 -0.109375 11.78125 -0.109375 L 6.078125 -0.109375 C 4.910156 -0.109375 3.90625 -0.523438 3.0625 -1.359375 C 2.226562 -2.203125 1.8125 -3.226562 1.8125 -4.4375 L 1.8125 -39.375 C 1.8125 -40.539062 2.226562 -41.550781 3.0625 -42.40625 C 3.90625 -43.269531 4.910156 -43.703125 6.078125 -43.703125 L 23.4375 -43.703125 C 25.476562 -43.703125 27.328125 -43.085938 28.984375 -41.859375 C 30.648438 -40.640625 31.773438 -39.046875 32.359375 -37.078125 Z M 21.03125 -29.578125 C 21.03125 -30.453125 20.71875 -31.21875 20.09375 -31.875 C 19.476562 -32.53125 18.710938 -32.859375 17.796875 -32.859375 L 16.765625 -32.859375 C 16.546875 -32.859375 16.367188 -32.773438 16.234375 -32.609375 C 16.109375 -32.441406 16.046875 -32.269531 16.046875 -32.09375 L 16.046875 -26.171875 C 16.046875 -25.734375 16.285156 -25.515625 16.765625 -25.515625 L 17.796875 -25.515625 C 18.710938 -25.515625 19.476562 -25.832031 20.09375 -26.46875 C 20.71875 -27.113281 21.03125 -27.894531 21.03125 -28.8125 Z M 21.03125 -29.578125 "/></g></g></g><g fill="#5271ff" fill-opacity="1"><g transform="translate(239.966615, 215.418013)"><g><path d="M 36.6875 -43.8125 C 37.75 -43.8125 38.65625 -43.4375 39.40625 -42.6875 C 40.15625 -41.9375 40.53125 -41.035156 40.53125 -39.984375 L 40.53125 -32.46875 C 40.53125 -31.445312 40.15625 -30.550781 39.40625 -29.78125 C 38.65625 -29.019531 37.75 -28.640625 36.6875 -28.640625 L 29.1875 -28.640625 C 28.894531 -28.640625 28.75 -28.515625 28.75 -28.265625 L 28.75 -3.71875 C 28.75 -2.695312 28.375 -1.800781 27.625 -1.03125 C 26.875 -0.269531 25.972656 0.109375 24.921875 0.109375 L 17.46875 0.109375 C 16.375 0.109375 15.453125 -0.269531 14.703125 -1.03125 C 13.953125 -1.800781 13.578125 -2.695312 13.578125 -3.71875 L 13.578125 -28.265625 C 13.578125 -28.515625 13.453125 -28.640625 13.203125 -28.640625 L 5.640625 -28.640625 C 4.617188 -28.640625 3.722656 -29.019531 2.953125 -29.78125 C 2.191406 -30.550781 1.8125 -31.445312 1.8125 -32.46875 L 1.8125 -39.984375 C 1.8125 -41.035156 2.191406 -41.9375 2.953125 -42.6875 C 3.722656 -43.4375 4.617188 -43.8125 5.640625 -43.8125 Z M 36.6875 -43.8125 "/></g></g></g><g fill="#5271ff" fill-opacity="1"><g transform="translate(109.85942, 270.187789)"><g><path d="M 17.09375 -31.921875 C 16.976562 -31.921875 16.882812 -31.863281 16.8125 -31.75 C 16.738281 -31.644531 16.703125 -31.554688 16.703125 -31.484375 L 16.703125 -27.875 C 16.703125 -27.65625 16.832031 -27.546875 17.09375 -27.546875 L 25.140625 -27.546875 C 25.867188 -27.546875 26.488281 -27.289062 27 -26.78125 C 27.507812 -26.269531 27.765625 -25.648438 27.765625 -24.921875 L 27.765625 -18.953125 C 27.765625 -18.222656 27.507812 -17.597656 27 -17.078125 C 26.488281 -16.566406 25.867188 -16.3125 25.140625 -16.3125 L 17.09375 -16.3125 C 16.832031 -16.3125 16.703125 -16.1875 16.703125 -15.9375 L 16.703125 -12.4375 C 16.703125 -12.175781 16.832031 -12.046875 17.09375 -12.046875 L 28.203125 -12.046875 C 29.003906 -12.046875 29.6875 -11.753906 30.25 -11.171875 C 30.820312 -10.585938 31.109375 -9.894531 31.109375 -9.09375 L 31.109375 -2.953125 C 31.109375 -2.148438 30.820312 -1.472656 30.25 -0.921875 C 29.6875 -0.378906 29.003906 -0.109375 28.203125 -0.109375 L 5.8125 -0.109375 C 4.675781 -0.109375 3.722656 -0.535156 2.953125 -1.390625 C 2.191406 -2.253906 1.8125 -3.488281 1.8125 -5.09375 L 1.8125 -40.75 C 1.8125 -41.363281 2.191406 -42.015625 2.953125 -42.703125 C 3.722656 -43.398438 4.675781 -43.75 5.8125 -43.75 L 28.203125 -43.75 C 29.003906 -43.75 29.6875 -43.472656 30.25 -42.921875 C 30.820312 -42.378906 31.109375 -41.707031 31.109375 -40.90625 L 31.109375 -34.78125 C 31.109375 -34.007812 30.820312 -33.335938 30.25 -32.765625 C 29.6875 -32.203125 29.003906 -31.921875 28.203125 -31.921875 Z M 17.09375 -31.921875 "/></g></g></g><g fill="#5271ff" fill-opacity="1"><g transform="translate(141.680722, 270.187789)"><g><path d="M 41.78125 -4.59375 C 41.96875 -3.789062 41.894531 -3 41.5625 -2.21875 C 41.238281 -1.4375 40.710938 -0.84375 39.984375 -0.4375 C 39.503906 -0.144531 38.957031 0 38.34375 0 L 30.890625 0 C 29.867188 0 29.101562 -0.304688 28.59375 -0.921875 C 28.082031 -1.546875 27.625 -2.367188 27.21875 -3.390625 L 25.578125 -7.671875 L 17.203125 -7.671875 L 15.609375 -3.390625 C 15.203125 -2.367188 14.742188 -1.554688 14.234375 -0.953125 C 13.722656 -0.359375 12.957031 -0.0625 11.9375 -0.0625 L 4.484375 -0.0625 C 3.898438 -0.0625 3.425781 -0.148438 3.0625 -0.328125 C 2.257812 -0.691406 1.664062 -1.285156 1.28125 -2.109375 C 0.90625 -2.929688 0.828125 -3.78125 1.046875 -4.65625 L 10.890625 -40.859375 C 11.003906 -41.367188 11.195312 -41.785156 11.46875 -42.109375 C 11.75 -42.441406 12.015625 -42.695312 12.265625 -42.875 C 12.847656 -43.351562 13.5625 -43.59375 14.40625 -43.59375 L 28.75 -43.59375 C 29.15625 -43.59375 29.59375 -43.519531 30.0625 -43.375 C 30.539062 -43.226562 30.976562 -42.953125 31.375 -42.546875 C 31.78125 -42.109375 32.046875 -41.660156 32.171875 -41.203125 C 32.296875 -40.753906 32.394531 -40.363281 32.46875 -40.03125 Z M 23.984375 -20.3125 C 24.242188 -20.3125 24.445312 -20.421875 24.59375 -20.640625 C 24.738281 -20.859375 24.773438 -21.097656 24.703125 -21.359375 L 23.28125 -25.078125 L 22.125 -27.9375 C 22.019531 -28.300781 21.78125 -28.484375 21.40625 -28.484375 C 21.039062 -28.484375 20.804688 -28.300781 20.703125 -27.9375 L 19.609375 -25.078125 L 18.1875 -21.359375 C 18.039062 -21.097656 18.054688 -20.859375 18.234375 -20.640625 C 18.421875 -20.421875 18.640625 -20.3125 18.890625 -20.3125 Z M 23.984375 -20.3125 "/></g></g></g><g fill="#5271ff" fill-opacity="1"><g transform="translate(183.415374, 270.187789)"><g><path d="M 19.171875 -45.78125 C 21.984375 -45.78125 24.363281 -45.46875 26.3125 -44.84375 C 28.269531 -44.226562 29.882812 -43.4375 31.15625 -42.46875 C 32.4375 -41.5 33.441406 -40.46875 34.171875 -39.375 C 34.898438 -38.28125 35.4375 -37.238281 35.78125 -36.25 C 36.132812 -35.269531 36.363281 -34.488281 36.46875 -33.90625 C 36.539062 -33.5 36.484375 -33.15625 36.296875 -32.875 C 36.117188 -32.601562 35.882812 -32.453125 35.59375 -32.421875 L 22.1875 -30.5625 C 21.5625 -30.5625 21.140625 -30.867188 20.921875 -31.484375 C 20.660156 -32.210938 20.21875 -32.75 19.59375 -33.09375 C 18.976562 -33.445312 18.453125 -33.625 18.015625 -33.625 C 17.429688 -33.625 16.78125 -33.375 16.0625 -32.875 C 15.351562 -32.382812 15 -31.613281 15 -30.5625 C 15 -29.6875 15.242188 -29.035156 15.734375 -28.609375 C 16.234375 -28.191406 16.8125 -27.921875 17.46875 -27.796875 C 18.125 -27.671875 18.691406 -27.609375 19.171875 -27.609375 C 20.078125 -27.609375 21.257812 -27.597656 22.71875 -27.578125 C 24.1875 -27.554688 25.734375 -27.367188 27.359375 -27.015625 C 28.984375 -26.671875 30.515625 -26.035156 31.953125 -25.109375 C 33.398438 -24.179688 34.578125 -22.8125 35.484375 -21 C 36.398438 -19.195312 36.859375 -16.816406 36.859375 -13.859375 C 36.859375 -10.859375 36.375 -8.335938 35.40625 -6.296875 C 34.4375 -4.253906 33.175781 -2.628906 31.625 -1.421875 C 30.070312 -0.210938 28.382812 0.648438 26.5625 1.171875 C 24.738281 1.703125 22.96875 1.96875 21.25 1.96875 C 17.8125 1.96875 14.941406 1.628906 12.640625 0.953125 C 10.347656 0.273438 8.460938 -0.644531 6.984375 -1.8125 C 5.503906 -2.976562 4.328125 -4.289062 3.453125 -5.75 C 2.578125 -7.207031 1.863281 -8.722656 1.3125 -10.296875 C 0.84375 -11.140625 1.023438 -11.648438 1.859375 -11.828125 L 16.546875 -13.578125 C 16.941406 -13.648438 17.222656 -13.628906 17.390625 -13.515625 C 17.554688 -13.410156 17.675781 -13.25 17.75 -13.03125 C 18.039062 -11.9375 18.484375 -11.25 19.078125 -10.96875 C 19.679688 -10.695312 20.203125 -10.5625 20.640625 -10.5625 C 21.410156 -10.5625 22.101562 -10.84375 22.71875 -11.40625 C 23.34375 -11.976562 23.65625 -12.703125 23.65625 -13.578125 C 23.65625 -14.492188 23.332031 -15.207031 22.6875 -15.71875 C 22.050781 -16.226562 21.28125 -16.484375 20.375 -16.484375 L 17.09375 -16.484375 C 14.019531 -16.484375 11.257812 -17.066406 8.8125 -18.234375 C 6.363281 -19.398438 4.4375 -21.101562 3.03125 -23.34375 C 1.632812 -25.59375 0.9375 -28.304688 0.9375 -31.484375 C 0.9375 -34.046875 1.351562 -36.175781 2.1875 -37.875 C 3.03125 -39.570312 4.125 -40.9375 5.46875 -41.96875 C 6.820312 -43.007812 8.265625 -43.804688 9.796875 -44.359375 C 11.335938 -44.910156 12.800781 -45.273438 14.1875 -45.453125 C 15.570312 -45.640625 16.71875 -45.738281 17.625 -45.75 C 18.539062 -45.769531 19.054688 -45.78125 19.171875 -45.78125 Z M 19.171875 -45.78125 "/></g></g></g><g fill="#5271ff" fill-opacity="1"><g transform="translate(220.111205, 270.187789)"><g><path d="M 43.421875 -39.4375 L 30.453125 -20.859375 L 30.453125 -3.125 C 30.453125 -2.207031 30.078125 -1.457031 29.328125 -0.875 C 28.578125 -0.289062 27.78125 0 26.9375 0 L 18.078125 0 C 17.234375 0 16.445312 -0.289062 15.71875 -0.875 C 14.988281 -1.457031 14.625 -2.207031 14.625 -3.125 L 14.625 -20.859375 L 1.640625 -39.4375 C 1.171875 -39.757812 0.9375 -40.320312 0.9375 -41.125 C 0.9375 -41.96875 1.21875 -42.632812 1.78125 -43.125 C 2.34375 -43.625 2.972656 -43.875 3.671875 -43.875 L 13.640625 -43.875 C 13.929688 -43.875 14.273438 -43.804688 14.671875 -43.671875 C 15.078125 -43.546875 15.40625 -43.265625 15.65625 -42.828125 L 22.515625 -32.859375 L 29.734375 -42.828125 C 30.210938 -43.523438 30.78125 -43.875 31.4375 -43.875 L 41.34375 -43.875 C 42.070312 -43.875 42.710938 -43.625 43.265625 -43.125 C 43.816406 -42.632812 44.09375 -41.96875 44.09375 -41.125 C 44.09375 -40.757812 44.023438 -40.421875 43.890625 -40.109375 C 43.765625 -39.804688 43.609375 -39.582031 43.421875 -39.4375 Z M 43.421875 -39.4375 "/></g></g></g><path fill="#5271ff" d="M 45.613281 291.078125 C 45.613281 291.324219 45.566406 291.566406 45.472656 291.792969 C 45.378906 292.023438 45.242188 292.226562 45.066406 292.402344 C 44.890625 292.578125 44.6875 292.714844 44.457031 292.808594 C 44.226562 292.90625 43.988281 292.953125 43.738281 292.953125 C 43.492188 292.953125 43.253906 292.90625 43.023438 292.808594 C 42.792969 292.714844 42.589844 292.578125 42.414062 292.402344 C 42.238281 292.226562 42.101562 292.023438 42.007812 291.792969 C 41.914062 291.566406 41.863281 291.324219 41.863281 291.078125 C 41.863281 290.828125 41.914062 290.589844 42.007812 290.359375 C 42.101562 290.128906 42.238281 289.925781 42.414062 289.75 C 42.589844 289.574219 42.792969 289.441406 43.023438 289.34375 C 43.253906 289.25 43.492188 289.203125 43.738281 289.203125 C 43.988281 289.203125 44.226562 289.25 44.457031 289.34375 C 44.6875 289.441406 44.890625 289.574219 45.066406 289.75 C 45.242188 289.925781 45.378906 290.128906 45.472656 290.359375 C 45.566406 290.589844 45.613281 290.828125 45.613281 291.078125 Z M 45.613281 291.078125 " fill-opacity="1" fill-rule="nonzero"/><g fill="#5271ff" fill-opacity="1"><g transform="translate(98.689418, 294.452001)"><g><path d="M 1.015625 0.09375 C 0.816406 0.09375 0.660156 0.0507812 0.546875 -0.03125 C 0.429688 -0.125 0.359375 -0.242188 0.328125 -0.390625 C 0.304688 -0.535156 0.335938 -0.703125 0.421875 -0.890625 L 3.59375 -7.90625 C 3.695312 -8.132812 3.820312 -8.300781 3.96875 -8.40625 C 4.113281 -8.507812 4.28125 -8.5625 4.46875 -8.5625 C 4.65625 -8.5625 4.820312 -8.507812 4.96875 -8.40625 C 5.125 -8.300781 5.253906 -8.132812 5.359375 -7.90625 L 8.53125 -0.890625 C 8.613281 -0.703125 8.644531 -0.53125 8.625 -0.375 C 8.601562 -0.226562 8.535156 -0.113281 8.421875 -0.03125 C 8.304688 0.0507812 8.160156 0.09375 7.984375 0.09375 C 7.753906 0.09375 7.578125 0.0390625 7.453125 -0.0625 C 7.328125 -0.175781 7.21875 -0.34375 7.125 -0.5625 L 6.34375 -2.375 L 7 -1.953125 L 1.9375 -1.953125 L 2.578125 -2.375 L 1.8125 -0.5625 C 1.707031 -0.332031 1.597656 -0.164062 1.484375 -0.0625 C 1.367188 0.0390625 1.210938 0.09375 1.015625 0.09375 Z M 4.453125 -6.796875 L 2.765625 -2.796875 L 2.453125 -3.1875 L 6.46875 -3.1875 L 6.171875 -2.796875 L 4.46875 -6.796875 Z M 4.453125 -6.796875 "/></g></g></g><g fill="#5271ff" fill-opacity="1"><g transform="translate(113.509433, 294.452001)"><g><path d="M 1.734375 0 C 1.472656 0 1.269531 -0.0664062 1.125 -0.203125 C 0.988281 -0.347656 0.921875 -0.550781 0.921875 -0.8125 L 0.921875 -7.640625 C 0.921875 -7.910156 0.988281 -8.113281 1.125 -8.25 C 1.269531 -8.382812 1.472656 -8.453125 1.734375 -8.453125 L 4.0625 -8.453125 C 5.476562 -8.453125 6.570312 -8.085938 7.34375 -7.359375 C 8.125 -6.640625 8.515625 -5.597656 8.515625 -4.234375 C 8.515625 -3.554688 8.414062 -2.953125 8.21875 -2.421875 C 8.019531 -1.898438 7.726562 -1.457031 7.34375 -1.09375 C 6.96875 -0.738281 6.503906 -0.46875 5.953125 -0.28125 C 5.410156 -0.09375 4.78125 0 4.0625 0 Z M 2.453125 -1.265625 L 3.96875 -1.265625 C 4.46875 -1.265625 4.898438 -1.328125 5.265625 -1.453125 C 5.628906 -1.578125 5.929688 -1.757812 6.171875 -2 C 6.421875 -2.25 6.601562 -2.554688 6.71875 -2.921875 C 6.84375 -3.296875 6.90625 -3.734375 6.90625 -4.234375 C 6.90625 -5.222656 6.660156 -5.960938 6.171875 -6.453125 C 5.679688 -6.941406 4.945312 -7.1875 3.96875 -7.1875 L 2.453125 -7.1875 Z M 2.453125 -1.265625 "/></g></g></g><g fill="#5271ff" fill-opacity="1"><g transform="translate(128.545455, 294.452001)"><g><path d="M 4.71875 0.125 C 3.894531 0.125 3.175781 -0.0507812 2.5625 -0.40625 C 1.957031 -0.769531 1.484375 -1.28125 1.140625 -1.9375 C 0.804688 -2.59375 0.640625 -3.359375 0.640625 -4.234375 C 0.640625 -4.898438 0.734375 -5.5 0.921875 -6.03125 C 1.117188 -6.5625 1.394531 -7.015625 1.75 -7.390625 C 2.113281 -7.773438 2.546875 -8.066406 3.046875 -8.265625 C 3.546875 -8.472656 4.101562 -8.578125 4.71875 -8.578125 C 5.539062 -8.578125 6.253906 -8.398438 6.859375 -8.046875 C 7.472656 -7.691406 7.945312 -7.1875 8.28125 -6.53125 C 8.613281 -5.882812 8.78125 -5.125 8.78125 -4.25 C 8.78125 -3.582031 8.679688 -2.976562 8.484375 -2.4375 C 8.296875 -1.90625 8.023438 -1.445312 7.671875 -1.0625 C 7.316406 -0.675781 6.890625 -0.378906 6.390625 -0.171875 C 5.890625 0.0234375 5.332031 0.125 4.71875 0.125 Z M 4.71875 -1.203125 C 5.238281 -1.203125 5.679688 -1.320312 6.046875 -1.5625 C 6.410156 -1.800781 6.6875 -2.144531 6.875 -2.59375 C 7.070312 -3.050781 7.171875 -3.597656 7.171875 -4.234375 C 7.171875 -5.191406 6.957031 -5.9375 6.53125 -6.46875 C 6.101562 -7 5.5 -7.265625 4.71875 -7.265625 C 4.207031 -7.265625 3.765625 -7.144531 3.390625 -6.90625 C 3.023438 -6.664062 2.742188 -6.320312 2.546875 -5.875 C 2.347656 -5.425781 2.25 -4.878906 2.25 -4.234375 C 2.25 -3.285156 2.460938 -2.539062 2.890625 -2 C 3.328125 -1.46875 3.9375 -1.203125 4.71875 -1.203125 Z M 4.71875 -1.203125 "/></g></g></g><g fill="#5271ff" fill-opacity="1"><g transform="translate(143.857474, 294.452001)"><g><path d="M 3.734375 0.09375 C 3.484375 0.09375 3.289062 0.0234375 3.15625 -0.109375 C 3.03125 -0.253906 2.96875 -0.453125 2.96875 -0.703125 L 2.96875 -7.171875 L 0.625 -7.171875 C 0.414062 -7.171875 0.253906 -7.226562 0.140625 -7.34375 C 0.0234375 -7.46875 -0.03125 -7.628906 -0.03125 -7.828125 C -0.03125 -8.035156 0.0234375 -8.191406 0.140625 -8.296875 C 0.253906 -8.398438 0.414062 -8.453125 0.625 -8.453125 L 6.84375 -8.453125 C 7.050781 -8.453125 7.210938 -8.398438 7.328125 -8.296875 C 7.441406 -8.191406 7.5 -8.035156 7.5 -7.828125 C 7.5 -7.628906 7.441406 -7.46875 7.328125 -7.34375 C 7.210938 -7.226562 7.050781 -7.171875 6.84375 -7.171875 L 4.5 -7.171875 L 4.5 -0.703125 C 4.5 -0.453125 4.429688 -0.253906 4.296875 -0.109375 C 4.171875 0.0234375 3.984375 0.09375 3.734375 0.09375 Z M 3.734375 0.09375 "/></g></g></g><g fill="#5271ff" fill-opacity="1"><g transform="translate(157.201488, 294.452001)"><g><path d="M 3.734375 0.09375 C 3.484375 0.09375 3.289062 0.0234375 3.15625 -0.109375 C 3.03125 -0.253906 2.96875 -0.453125 2.96875 -0.703125 L 2.96875 -7.171875 L 0.625 -7.171875 C 0.414062 -7.171875 0.253906 -7.226562 0.140625 -7.34375 C 0.0234375 -7.46875 -0.03125 -7.628906 -0.03125 -7.828125 C -0.03125 -8.035156 0.0234375 -8.191406 0.140625 -8.296875 C 0.253906 -8.398438 0.414062 -8.453125 0.625 -8.453125 L 6.84375 -8.453125 C 7.050781 -8.453125 7.210938 -8.398438 7.328125 -8.296875 C 7.441406 -8.191406 7.5 -8.035156 7.5 -7.828125 C 7.5 -7.628906 7.441406 -7.46875 7.328125 -7.34375 C 7.210938 -7.226562 7.050781 -7.171875 6.84375 -7.171875 L 4.5 -7.171875 L 4.5 -0.703125 C 4.5 -0.453125 4.429688 -0.253906 4.296875 -0.109375 C 4.171875 0.0234375 3.984375 0.09375 3.734375 0.09375 Z M 3.734375 0.09375 "/></g></g></g><g fill="#5271ff" fill-opacity="1"><g transform="translate(170.545504, 294.452001)"><g><path d="M 1.015625 0.09375 C 0.816406 0.09375 0.660156 0.0507812 0.546875 -0.03125 C 0.429688 -0.125 0.359375 -0.242188 0.328125 -0.390625 C 0.304688 -0.535156 0.335938 -0.703125 0.421875 -0.890625 L 3.59375 -7.90625 C 3.695312 -8.132812 3.820312 -8.300781 3.96875 -8.40625 C 4.113281 -8.507812 4.28125 -8.5625 4.46875 -8.5625 C 4.65625 -8.5625 4.820312 -8.507812 4.96875 -8.40625 C 5.125 -8.300781 5.253906 -8.132812 5.359375 -7.90625 L 8.53125 -0.890625 C 8.613281 -0.703125 8.644531 -0.53125 8.625 -0.375 C 8.601562 -0.226562 8.535156 -0.113281 8.421875 -0.03125 C 8.304688 0.0507812 8.160156 0.09375 7.984375 0.09375 C 7.753906 0.09375 7.578125 0.0390625 7.453125 -0.0625 C 7.328125 -0.175781 7.21875 -0.34375 7.125 -0.5625 L 6.34375 -2.375 L 7 -1.953125 L 1.9375 -1.953125 L 2.578125 -2.375 L 1.8125 -0.5625 C 1.707031 -0.332031 1.597656 -0.164062 1.484375 -0.0625 C 1.367188 0.0390625 1.210938 0.09375 1.015625 0.09375 Z M 4.453125 -6.796875 L 2.765625 -2.796875 L 2.453125 -3.1875 L 6.46875 -3.1875 L 6.171875 -2.796875 L 4.46875 -6.796875 Z M 4.453125 -6.796875 "/></g></g></g><g fill="#5271ff" fill-opacity="1"><g transform="translate(185.365522, 294.452001)"><g><path d="M 1.6875 1.28125 C 1.582031 1.40625 1.472656 1.476562 1.359375 1.5 C 1.242188 1.519531 1.140625 1.5 1.046875 1.4375 C 0.960938 1.375 0.914062 1.285156 0.90625 1.171875 C 0.90625 1.054688 0.957031 0.929688 1.0625 0.796875 C 1.226562 0.585938 1.335938 0.382812 1.390625 0.1875 C 1.441406 -0.0078125 1.46875 -0.1875 1.46875 -0.34375 L 1.53125 0.0625 C 1.25 0.0625 1.019531 -0.0195312 0.84375 -0.1875 C 0.675781 -0.351562 0.59375 -0.570312 0.59375 -0.84375 C 0.59375 -1.09375 0.671875 -1.300781 0.828125 -1.46875 C 0.992188 -1.632812 1.210938 -1.71875 1.484375 -1.71875 C 1.765625 -1.71875 1.984375 -1.625 2.140625 -1.4375 C 2.304688 -1.25 2.390625 -0.976562 2.390625 -0.625 C 2.390625 -0.4375 2.367188 -0.238281 2.328125 -0.03125 C 2.296875 0.175781 2.226562 0.390625 2.125 0.609375 C 2.03125 0.828125 1.882812 1.050781 1.6875 1.28125 Z M 1.6875 1.28125 "/></g></g></g><g fill="#5271ff" fill-opacity="1"><g transform="translate(194.233525, 294.452001)"><g><path d="M 1.015625 0.09375 C 0.816406 0.09375 0.660156 0.0507812 0.546875 -0.03125 C 0.429688 -0.125 0.359375 -0.242188 0.328125 -0.390625 C 0.304688 -0.535156 0.335938 -0.703125 0.421875 -0.890625 L 3.59375 -7.90625 C 3.695312 -8.132812 3.820312 -8.300781 3.96875 -8.40625 C 4.113281 -8.507812 4.28125 -8.5625 4.46875 -8.5625 C 4.65625 -8.5625 4.820312 -8.507812 4.96875 -8.40625 C 5.125 -8.300781 5.253906 -8.132812 5.359375 -7.90625 L 8.53125 -0.890625 C 8.613281 -0.703125 8.644531 -0.53125 8.625 -0.375 C 8.601562 -0.226562 8.535156 -0.113281 8.421875 -0.03125 C 8.304688 0.0507812 8.160156 0.09375 7.984375 0.09375 C 7.753906 0.09375 7.578125 0.0390625 7.453125 -0.0625 C 7.328125 -0.175781 7.21875 -0.34375 7.125 -0.5625 L 6.34375 -2.375 L 7 -1.953125 L 1.9375 -1.953125 L 2.578125 -2.375 L 1.8125 -0.5625 C 1.707031 -0.332031 1.597656 -0.164062 1.484375 -0.0625 C 1.367188 0.0390625 1.210938 0.09375 1.015625 0.09375 Z M 4.453125 -6.796875 L 2.765625 -2.796875 L 2.453125 -3.1875 L 6.46875 -3.1875 L 6.171875 -2.796875 L 4.46875 -6.796875 Z M 4.453125 -6.796875 "/></g></g></g><g fill="#5271ff" fill-opacity="1"><g transform="translate(209.053543, 294.452001)"><g><path d="M 1.640625 0.09375 C 1.421875 0.09375 1.25 0.03125 1.125 -0.09375 C 1.007812 -0.21875 0.953125 -0.394531 0.953125 -0.625 L 0.953125 -7.84375 C 0.953125 -8.070312 1.015625 -8.25 1.140625 -8.375 C 1.265625 -8.5 1.441406 -8.5625 1.671875 -8.5625 C 1.867188 -8.5625 2.023438 -8.519531 2.140625 -8.4375 C 2.253906 -8.363281 2.359375 -8.234375 2.453125 -8.046875 L 5.421875 -2.5625 L 5.046875 -2.5625 L 8 -8.046875 C 8.09375 -8.234375 8.195312 -8.363281 8.3125 -8.4375 C 8.425781 -8.519531 8.582031 -8.5625 8.78125 -8.5625 C 9.007812 -8.5625 9.179688 -8.5 9.296875 -8.375 C 9.421875 -8.25 9.484375 -8.070312 9.484375 -7.84375 L 9.484375 -0.625 C 9.484375 -0.394531 9.421875 -0.21875 9.296875 -0.09375 C 9.179688 0.03125 9.007812 0.09375 8.78125 0.09375 C 8.5625 0.09375 8.390625 0.03125 8.265625 -0.09375 C 8.148438 -0.21875 8.09375 -0.394531 8.09375 -0.625 L 8.09375 -6.1875 L 8.359375 -6.1875 L 5.828125 -1.578125 C 5.753906 -1.441406 5.671875 -1.34375 5.578125 -1.28125 C 5.492188 -1.21875 5.375 -1.1875 5.21875 -1.1875 C 5.0625 -1.1875 4.9375 -1.21875 4.84375 -1.28125 C 4.75 -1.351562 4.664062 -1.453125 4.59375 -1.578125 L 2.046875 -6.1875 L 2.34375 -6.1875 L 2.34375 -0.625 C 2.34375 -0.394531 2.28125 -0.21875 2.15625 -0.09375 C 2.039062 0.03125 1.867188 0.09375 1.640625 0.09375 Z M 1.640625 0.09375 "/></g></g></g><g fill="#5271ff" fill-opacity="1"><g transform="translate(225.361567, 294.452001)"><g><path d="M 1.015625 0.09375 C 0.816406 0.09375 0.660156 0.0507812 0.546875 -0.03125 C 0.429688 -0.125 0.359375 -0.242188 0.328125 -0.390625 C 0.304688 -0.535156 0.335938 -0.703125 0.421875 -0.890625 L 3.59375 -7.90625 C 3.695312 -8.132812 3.820312 -8.300781 3.96875 -8.40625 C 4.113281 -8.507812 4.28125 -8.5625 4.46875 -8.5625 C 4.65625 -8.5625 4.820312 -8.507812 4.96875 -8.40625 C 5.125 -8.300781 5.253906 -8.132812 5.359375 -7.90625 L 8.53125 -0.890625 C 8.613281 -0.703125 8.644531 -0.53125 8.625 -0.375 C 8.601562 -0.226562 8.535156 -0.113281 8.421875 -0.03125 C 8.304688 0.0507812 8.160156 0.09375 7.984375 0.09375 C 7.753906 0.09375 7.578125 0.0390625 7.453125 -0.0625 C 7.328125 -0.175781 7.21875 -0.34375 7.125 -0.5625 L 6.34375 -2.375 L 7 -1.953125 L 1.9375 -1.953125 L 2.578125 -2.375 L 1.8125 -0.5625 C 1.707031 -0.332031 1.597656 -0.164062 1.484375 -0.0625 C 1.367188 0.0390625 1.210938 0.09375 1.015625 0.09375 Z M 4.453125 -6.796875 L 2.765625 -2.796875 L 2.453125 -3.1875 L 6.46875 -3.1875 L 6.171875 -2.796875 L 4.46875 -6.796875 Z M 4.453125 -6.796875 "/></g></g></g><g fill="#5271ff" fill-opacity="1"><g transform="translate(240.181585, 294.452001)"><g><path d="M 1.6875 1.28125 C 1.582031 1.40625 1.472656 1.476562 1.359375 1.5 C 1.242188 1.519531 1.140625 1.5 1.046875 1.4375 C 0.960938 1.375 0.914062 1.285156 0.90625 1.171875 C 0.90625 1.054688 0.957031 0.929688 1.0625 0.796875 C 1.226562 0.585938 1.335938 0.382812 1.390625 0.1875 C 1.441406 -0.0078125 1.46875 -0.1875 1.46875 -0.34375 L 1.53125 0.0625 C 1.25 0.0625 1.019531 -0.0195312 0.84375 -0.1875 C 0.675781 -0.351562 0.59375 -0.570312 0.59375 -0.84375 C 0.59375 -1.09375 0.671875 -1.300781 0.828125 -1.46875 C 0.992188 -1.632812 1.210938 -1.71875 1.484375 -1.71875 C 1.765625 -1.71875 1.984375 -1.625 2.140625 -1.4375 C 2.304688 -1.25 2.390625 -0.976562 2.390625 -0.625 C 2.390625 -0.4375 2.367188 -0.238281 2.328125 -0.03125 C 2.296875 0.175781 2.226562 0.390625 2.125 0.609375 C 2.03125 0.828125 1.882812 1.050781 1.6875 1.28125 Z M 1.6875 1.28125 "/></g></g></g><g fill="#5271ff" fill-opacity="1"><g transform="translate(249.049588, 294.452001)"><g><path d="M 4.28125 0.09375 C 4.0625 0.09375 3.882812 0.046875 3.75 -0.046875 C 3.613281 -0.148438 3.5 -0.300781 3.40625 -0.5 L 0.28125 -7.53125 C 0.1875 -7.738281 0.160156 -7.914062 0.203125 -8.0625 C 0.242188 -8.21875 0.328125 -8.335938 0.453125 -8.421875 C 0.578125 -8.515625 0.726562 -8.5625 0.90625 -8.5625 C 1.144531 -8.5625 1.320312 -8.507812 1.4375 -8.40625 C 1.550781 -8.300781 1.648438 -8.148438 1.734375 -7.953125 L 4.578125 -1.375 L 4.0625 -1.375 L 6.890625 -7.96875 C 6.972656 -8.15625 7.070312 -8.300781 7.1875 -8.40625 C 7.3125 -8.507812 7.484375 -8.5625 7.703125 -8.5625 C 7.878906 -8.5625 8.023438 -8.515625 8.140625 -8.421875 C 8.253906 -8.335938 8.328125 -8.21875 8.359375 -8.0625 C 8.390625 -7.914062 8.363281 -7.738281 8.28125 -7.53125 L 5.140625 -0.5 C 5.054688 -0.300781 4.945312 -0.148438 4.8125 -0.046875 C 4.6875 0.046875 4.507812 0.09375 4.28125 0.09375 Z M 4.28125 0.09375 "/></g></g></g><g fill="#5271ff" fill-opacity="1"><g transform="translate(263.497605, 294.452001)"><g><path d="M 1.6875 0.09375 C 1.4375 0.09375 1.242188 0.0234375 1.109375 -0.109375 C 0.984375 -0.253906 0.921875 -0.453125 0.921875 -0.703125 L 0.921875 -7.765625 C 0.921875 -8.015625 0.984375 -8.207031 1.109375 -8.34375 C 1.242188 -8.488281 1.4375 -8.5625 1.6875 -8.5625 C 1.9375 -8.5625 2.125 -8.488281 2.25 -8.34375 C 2.382812 -8.207031 2.453125 -8.015625 2.453125 -7.765625 L 2.453125 -0.703125 C 2.453125 -0.453125 2.390625 -0.253906 2.265625 -0.109375 C 2.140625 0.0234375 1.945312 0.09375 1.6875 0.09375 Z M 1.6875 0.09375 "/></g></g></g><g fill="#5271ff" fill-opacity="1"><g transform="translate(272.773613, 294.452001)"><g><path d="M 4.28125 0.09375 C 4.0625 0.09375 3.882812 0.046875 3.75 -0.046875 C 3.613281 -0.148438 3.5 -0.300781 3.40625 -0.5 L 0.28125 -7.53125 C 0.1875 -7.738281 0.160156 -7.914062 0.203125 -8.0625 C 0.242188 -8.21875 0.328125 -8.335938 0.453125 -8.421875 C 0.578125 -8.515625 0.726562 -8.5625 0.90625 -8.5625 C 1.144531 -8.5625 1.320312 -8.507812 1.4375 -8.40625 C 1.550781 -8.300781 1.648438 -8.148438 1.734375 -7.953125 L 4.578125 -1.375 L 4.0625 -1.375 L 6.890625 -7.96875 C 6.972656 -8.15625 7.070312 -8.300781 7.1875 -8.40625 C 7.3125 -8.507812 7.484375 -8.5625 7.703125 -8.5625 C 7.878906 -8.5625 8.023438 -8.515625 8.140625 -8.421875 C 8.253906 -8.335938 8.328125 -8.21875 8.359375 -8.0625 C 8.390625 -7.914062 8.363281 -7.738281 8.28125 -7.53125 L 5.140625 -0.5 C 5.054688 -0.300781 4.945312 -0.148438 4.8125 -0.046875 C 4.6875 0.046875 4.507812 0.09375 4.28125 0.09375 Z M 4.28125 0.09375 "/></g></g></g><g fill="#5271ff" fill-opacity="1"><g transform="translate(287.221629, 294.452001)"><g><path d="M 1.6875 0.09375 C 1.4375 0.09375 1.242188 0.0234375 1.109375 -0.109375 C 0.984375 -0.253906 0.921875 -0.453125 0.921875 -0.703125 L 0.921875 -7.765625 C 0.921875 -8.015625 0.984375 -8.207031 1.109375 -8.34375 C 1.242188 -8.488281 1.4375 -8.5625 1.6875 -8.5625 C 1.9375 -8.5625 2.125 -8.488281 2.25 -8.34375 C 2.382812 -8.207031 2.453125 -8.015625 2.453125 -7.765625 L 2.453125 -0.703125 C 2.453125 -0.453125 2.390625 -0.253906 2.265625 -0.109375 C 2.140625 0.0234375 1.945312 0.09375 1.6875 0.09375 Z M 1.6875 0.09375 "/></g></g></g><g clip-path="url(#216e5d9303)"><g clip-path="url(#c614acbba5)"><g clip-path="url(#a40172583f)"><path fill="#5271ff" d="M 312.121094 106.691406 C 313.960938 101.074219 314.347656 96.230469 313.332031 91.441406 C 312.09375 85.59375 309.050781 81.769531 304.289062 80.082031 C 302.925781 79.597656 301.460938 79.320312 299.847656 79.230469 C 301.523438 72.648438 301.234375 66.347656 298.964844 60.042969 C 297.175781 55.109375 293.765625 51.527344 289.359375 49.964844 C 284.957031 48.402344 280.15625 49.054688 275.84375 51.796875 C 274.289062 52.785156 272.855469 53.835938 271.507812 54.933594 C 271.160156 53.171875 270.6875 51.46875 270.070312 49.855469 C 267.613281 43.449219 263.527344 40.839844 260.535156 39.777344 C 256.179688 38.230469 251.289062 38.96875 246.765625 41.84375 C 240.914062 45.5625 236.621094 50.410156 234.058594 56.042969 C 232.628906 54.871094 231.046875 53.957031 229.355469 53.355469 C 223.519531 51.285156 217.128906 52.964844 212.269531 57.84375 C 209.410156 60.714844 207.144531 64.292969 205.351562 68.785156 L 205.246094 69.046875 L 205.160156 69.316406 C 203.164062 75.503906 202.703125 80.796875 203.71875 85.96875 C 204.597656 90.480469 206.738281 94.460938 209.707031 97.398438 C 208.601562 98.425781 207.589844 99.605469 206.710938 100.972656 C 201.957031 108.410156 202.84375 116.214844 203.921875 121.4375 C 205.863281 130.851562 210.757812 136.832031 218.882812 139.714844 C 220.996094 140.464844 223.300781 140.992188 225.917969 141.324219 C 235.066406 142.492188 242.304688 145.058594 248.953125 149.480469 C 251.179688 150.964844 253.335938 152.0625 255.550781 152.847656 C 259.6875 154.316406 263.824219 154.578125 267.847656 153.628906 C 278.480469 151.125 283.890625 143.75 287.417969 137.605469 C 289.492188 133.992188 290.246094 130.21875 289.773438 126.570312 C 292.589844 126.324219 295.402344 125.417969 298.066406 123.847656 C 304.117188 120.277344 308.628906 114.894531 311.855469 107.390625 L 312.003906 107.046875 Z M 297.042969 96.257812 C 297.105469 97.636719 296.847656 99.1875 296.253906 101.089844 C 294.488281 105.0625 292.34375 107.695312 289.519531 109.363281 C 288.769531 109.804688 288.226562 109.863281 287.992188 109.78125 C 287.648438 109.660156 287.207031 109.003906 287.0625 107.851562 C 286.8125 105.886719 287.769531 103.464844 289.695312 101.207031 C 291.949219 98.566406 294.859375 96.859375 297.042969 96.257812 Z M 283.515625 66.902344 C 284.402344 70.023438 284.269531 73.058594 283.117188 76.554688 C 281.507812 80.289062 279.847656 81.316406 278.429688 81.820312 C 277.695312 82.082031 277.042969 82.128906 276.539062 81.949219 C 275.410156 81.546875 275.457031 80.136719 275.53125 79.542969 C 276.179688 74.367188 278.730469 70.316406 283.515625 66.902344 Z M 254.675781 56.789062 C 255.761719 60.421875 255.582031 65.1875 254.175781 69.179688 C 254.09375 69.402344 253.335938 71.371094 251.378906 72.425781 C 250.867188 72.703125 250.398438 72.75 249.902344 72.574219 C 249.074219 72.28125 248.171875 71.359375 248.121094 69.65625 C 247.960938 64.21875 250.050781 60.101562 254.675781 56.789062 Z M 224.023438 69.882812 C 228.195312 76.046875 227.109375 80.441406 225.667969 83.605469 C 224.976562 85.125 223.542969 85.933594 221.902344 85.734375 C 221.546875 85.539062 220.578125 84.546875 220.226562 82.746094 C 219.785156 80.503906 220.050781 78.035156 221.078125 74.761719 C 221.945312 72.652344 222.910156 71.054688 224.023438 69.882812 Z M 272.828125 129.234375 C 269.953125 134.242188 267.558594 136.417969 263.988281 137.257812 C 263.453125 137.382812 262.578125 137.496094 261.171875 136.996094 C 260.292969 136.683594 259.316406 136.175781 258.269531 135.476562 C 253.84375 132.535156 249.046875 130.136719 244.003906 128.347656 C 239.054688 126.59375 233.835938 125.378906 228.046875 124.640625 C 226.652344 124.460938 225.460938 124.199219 224.503906 123.859375 C 222.667969 123.207031 221.296875 122.410156 220.394531 118.035156 C 219.398438 113.214844 220.082031 111.285156 220.875 110.042969 C 220.9375 109.945312 220.992188 109.875 221.027344 109.824219 C 229.699219 108.941406 237.316406 105.453125 244.3125 99.167969 C 246.316406 97.371094 248.910156 95.964844 254.273438 97.871094 C 254.460938 97.9375 254.648438 98.003906 254.839844 98.078125 L 255.0625 98.164062 L 255.289062 98.238281 C 255.386719 98.269531 255.488281 98.304688 255.585938 98.339844 C 257.894531 99.15625 259.042969 100.417969 259.550781 102.695312 C 260.273438 105.910156 261.316406 110.152344 263.003906 114.445312 C 264.878906 119.234375 267.910156 123.589844 272.003906 127.394531 C 272.75 128.085938 273.003906 128.542969 273.074219 128.699219 C 273.046875 128.785156 272.984375 128.964844 272.828125 129.234375 Z M 272.828125 129.234375 " fill-opacity="1" fill-rule="nonzero"/></g></g></g><g clip-path="url(#2197859365)"><g clip-path="url(#1a75f2e8b7)"><g clip-path="url(#5f5096d403)"><path fill="#e7ebff" d="M 257.859375 90.230469 C 263.167969 91.933594 266.574219 95.5625 267.757812 100.855469 C 268.554688 104.398438 269.476562 107.917969 270.832031 111.375 C 272.296875 115.109375 274.636719 118.363281 277.722656 121.226562 C 281.824219 125.03125 282.523438 129.238281 280.125 133.421875 C 276.996094 138.867188 273.109375 143.75 265.921875 145.445312 C 261.367188 146.519531 257.164062 144.84375 253.613281 142.480469 C 245.453125 137.054688 236.664062 134.222656 226.984375 132.984375 C 217.972656 131.835938 213.828125 127.824219 212.160156 119.738281 C 211.132812 114.78125 210.996094 109.882812 213.796875 105.503906 C 215.222656 103.28125 217.238281 101.753906 220.144531 101.460938 C 227.683594 100.699219 233.589844 97.496094 238.695312 92.910156 C 243.867188 88.265625 250.144531 87.261719 257.859375 90.230469 Z M 257.859375 90.230469 " fill-opacity="1" fill-rule="evenodd"/></g></g></g><g clip-path="url(#74af1629ed)"><g clip-path="url(#94554cdd21)"><g clip-path="url(#792388ddf8)"><path fill="#e7ebff" d="M 290.988281 79.539062 C 289.238281 83.734375 286.464844 87.878906 281.261719 89.738281 C 273.371094 92.5625 266.144531 86.804688 267.1875 78.5 C 268.28125 69.777344 273.175781 63.460938 280.355469 58.898438 C 284.828125 56.050781 289.234375 57.871094 291.058594 62.90625 C 292.960938 68.195312 293.039062 73.53125 290.988281 79.539062 Z M 290.988281 79.539062 " fill-opacity="1" fill-rule="evenodd"/></g></g></g><g clip-path="url(#ccbb0668f7)"><g clip-path="url(#12419b03e5)"><g clip-path="url(#167235ec1b)"><path fill="#e7ebff" d="M 262.082031 72.039062 C 261.210938 74.449219 259.132812 77.804688 255.375 79.824219 C 248.355469 83.617188 239.960938 78.449219 239.714844 69.902344 C 239.449219 60.765625 243.6875 53.765625 251.277344 48.941406 C 256.128906 45.855469 260.15625 47.484375 262.214844 52.863281 C 264.238281 58.148438 264.398438 65.464844 262.082031 72.039062 Z M 262.082031 72.039062 " fill-opacity="1" fill-rule="evenodd"/></g></g></g><g clip-path="url(#edea3c9452)"><g clip-path="url(#8c43c2ce08)"><g clip-path="url(#a2deca2a51)"><path fill="#e7ebff" d="M 213.164062 71.902344 C 214.292969 69.066406 215.859375 66.15625 218.226562 63.78125 C 222.171875 59.824219 227.214844 59.878906 230.441406 64.378906 C 235.429688 71.320312 237.019531 78.972656 233.320312 87.09375 C 231.03125 92.117188 225.890625 94.8125 220.605469 94.046875 C 216.511719 93.457031 212.964844 89.449219 211.972656 84.363281 C 211.152344 80.179688 211.789062 76.152344 213.164062 71.902344 Z M 213.164062 71.902344 " fill-opacity="1" fill-rule="evenodd"/></g></g></g><g clip-path="url(#8f011095ee)"><g clip-path="url(#74537d889b)"><g clip-path="url(#ca17a16344)"><path fill="#e7ebff" d="M 304.128906 104.066406 C 301.925781 109.191406 298.765625 113.667969 293.789062 116.605469 C 286.953125 120.632812 279.726562 116.789062 278.71875 108.917969 C 277.335938 98.097656 289.359375 87.882812 298.234375 87.609375 C 302.394531 87.480469 304.230469 89.050781 305.105469 93.183594 C 305.886719 96.875 305.316406 100.449219 304.128906 104.066406 Z M 304.128906 104.066406 " fill-opacity="1" fill-rule="evenodd"/></g></g></g><g fill="#e7ebff" fill-opacity="1"><g transform="translate(83.788751, 214.668025)"><g><path d="M 45.703125 -5.03125 C 45.910156 -4.15625 45.832031 -3.285156 45.46875 -2.421875 C 45.101562 -1.566406 44.523438 -0.921875 43.734375 -0.484375 C 43.210938 -0.160156 42.613281 0 41.9375 0 L 33.78125 0 C 32.664062 0 31.828125 -0.335938 31.265625 -1.015625 C 30.710938 -1.691406 30.210938 -2.59375 29.765625 -3.71875 L 27.96875 -8.390625 L 18.8125 -8.390625 L 17.078125 -3.71875 C 16.640625 -2.59375 16.140625 -1.703125 15.578125 -1.046875 C 15.015625 -0.390625 14.175781 -0.0625 13.0625 -0.0625 L 4.90625 -0.0625 C 4.269531 -0.0625 3.753906 -0.160156 3.359375 -0.359375 C 2.472656 -0.753906 1.820312 -1.398438 1.40625 -2.296875 C 0.988281 -3.203125 0.898438 -4.132812 1.140625 -5.09375 L 11.921875 -44.6875 C 12.035156 -45.25 12.242188 -45.707031 12.546875 -46.0625 C 12.847656 -46.425781 13.140625 -46.707031 13.421875 -46.90625 C 14.054688 -47.425781 14.832031 -47.6875 15.75 -47.6875 L 31.453125 -47.6875 C 31.890625 -47.6875 32.367188 -47.601562 32.890625 -47.4375 C 33.410156 -47.28125 33.890625 -46.984375 34.328125 -46.546875 C 34.765625 -46.066406 35.050781 -45.578125 35.1875 -45.078125 C 35.332031 -44.578125 35.445312 -44.148438 35.53125 -43.796875 Z M 26.234375 -22.21875 C 26.515625 -22.21875 26.734375 -22.335938 26.890625 -22.578125 C 27.054688 -22.816406 27.097656 -23.078125 27.015625 -23.359375 L 25.453125 -27.4375 L 24.203125 -30.546875 C 24.078125 -30.953125 23.816406 -31.15625 23.421875 -31.15625 C 23.023438 -31.15625 22.765625 -30.953125 22.640625 -30.546875 L 21.453125 -27.4375 L 19.890625 -23.359375 C 19.734375 -23.078125 19.753906 -22.816406 19.953125 -22.578125 C 20.148438 -22.335938 20.390625 -22.21875 20.671875 -22.21875 Z M 26.234375 -22.21875 "/></g></g></g><g fill="#e7ebff" fill-opacity="1"><g transform="translate(129.44219, 214.668025)"><g><path d="M 22.40625 -47.859375 C 24.757812 -47.859375 26.941406 -47.421875 28.953125 -46.546875 C 30.972656 -45.671875 32.734375 -44.472656 34.234375 -42.953125 C 35.734375 -41.429688 36.898438 -39.671875 37.734375 -37.671875 C 38.578125 -35.679688 39 -33.546875 39 -31.265625 L 39 -16.828125 C 39 -14.554688 38.578125 -12.421875 37.734375 -10.421875 C 36.898438 -8.421875 35.734375 -6.648438 34.234375 -5.109375 C 32.734375 -3.578125 30.972656 -2.375 28.953125 -1.5 C 26.941406 -0.625 24.757812 -0.1875 22.40625 -0.1875 L 6.296875 -0.1875 C 5.054688 -0.1875 4.023438 -0.644531 3.203125 -1.5625 C 2.390625 -2.476562 1.984375 -3.472656 1.984375 -4.546875 L 1.984375 -43.546875 C 1.984375 -44.671875 2.390625 -45.671875 3.203125 -46.546875 C 4.023438 -47.421875 5.054688 -47.859375 6.296875 -47.859375 Z M 24.375 -22.578125 L 24.375 -25.453125 C 24.375 -26.734375 23.960938 -27.78125 23.140625 -28.59375 C 22.328125 -29.414062 21.300781 -29.828125 20.0625 -29.828125 L 17.1875 -29.828125 C 16.988281 -29.828125 16.800781 -29.738281 16.625 -29.5625 C 16.445312 -29.382812 16.359375 -29.09375 16.359375 -28.6875 L 16.359375 -19.34375 C 16.359375 -18.988281 16.445312 -18.726562 16.625 -18.5625 C 16.800781 -18.40625 16.988281 -18.328125 17.1875 -18.328125 L 20.0625 -18.328125 C 21.300781 -18.328125 22.328125 -18.726562 23.140625 -19.53125 C 23.960938 -20.332031 24.375 -21.347656 24.375 -22.578125 Z M 24.375 -22.578125 "/></g></g></g><g fill="#e7ebff" fill-opacity="1"><g transform="translate(168.744885, 214.668025)"><g><path d="M 20.546875 -48.640625 C 23.066406 -48.640625 25.492188 -48.179688 27.828125 -47.265625 C 30.160156 -46.347656 32.242188 -45.078125 34.078125 -43.453125 C 35.921875 -41.835938 37.378906 -39.953125 38.453125 -37.796875 C 39.535156 -35.640625 40.078125 -33.328125 40.078125 -30.859375 L 40.078125 -17.1875 C 40.078125 -14.632812 39.535156 -12.25 38.453125 -10.03125 C 37.378906 -7.8125 35.921875 -5.875 34.078125 -4.21875 C 32.242188 -2.5625 30.160156 -1.273438 27.828125 -0.359375 C 25.492188 0.554688 23.066406 1.015625 20.546875 1.015625 C 18.109375 1.015625 15.722656 0.554688 13.390625 -0.359375 C 11.054688 -1.273438 8.957031 -2.5625 7.09375 -4.21875 C 5.238281 -5.875 3.757812 -7.8125 2.65625 -10.03125 C 1.5625 -12.25 1.015625 -14.632812 1.015625 -17.1875 L 1.015625 -30.859375 C 1.015625 -33.328125 1.5625 -35.640625 2.65625 -37.796875 C 3.757812 -39.953125 5.238281 -41.835938 7.09375 -43.453125 C 8.957031 -45.078125 11.054688 -46.347656 13.390625 -47.265625 C 15.722656 -48.179688 18.109375 -48.640625 20.546875 -48.640625 Z M 24.5625 -17.796875 L 24.5625 -29.765625 C 24.5625 -30.847656 24.160156 -31.78125 23.359375 -32.5625 C 22.566406 -33.34375 21.628906 -33.734375 20.546875 -33.734375 C 19.429688 -33.734375 18.492188 -33.34375 17.734375 -32.5625 C 16.972656 -31.78125 16.59375 -30.847656 16.59375 -29.765625 L 16.59375 -17.796875 C 16.59375 -16.796875 16.972656 -15.90625 17.734375 -15.125 C 18.492188 -14.34375 19.429688 -13.953125 20.546875 -13.953125 C 21.628906 -13.953125 22.566406 -14.34375 23.359375 -15.125 C 24.160156 -15.90625 24.5625 -16.796875 24.5625 -17.796875 Z M 24.5625 -17.796875 "/></g></g></g><g fill="#e7ebff" fill-opacity="1"><g transform="translate(208.646718, 214.668025)"><g><path d="M 35.40625 -40.5625 C 35.726562 -39.5625 35.976562 -38.359375 36.15625 -36.953125 C 36.332031 -35.554688 36.421875 -33.984375 36.421875 -32.234375 C 36.421875 -28.796875 36 -26 35.15625 -23.84375 C 34.320312 -21.6875 33.40625 -20.007812 32.40625 -18.8125 C 30.726562 -16.8125 28.550781 -15.8125 25.875 -15.8125 L 17.546875 -15.8125 L 17.546875 -4.859375 C 17.546875 -3.535156 17.085938 -2.414062 16.171875 -1.5 C 15.253906 -0.582031 14.15625 -0.125 12.875 -0.125 L 6.65625 -0.125 C 5.375 -0.125 4.273438 -0.582031 3.359375 -1.5 C 2.441406 -2.414062 1.984375 -3.535156 1.984375 -4.859375 L 1.984375 -43.078125 C 1.984375 -44.347656 2.441406 -45.453125 3.359375 -46.390625 C 4.273438 -47.335938 5.375 -47.8125 6.65625 -47.8125 L 25.640625 -47.8125 C 27.878906 -47.8125 29.90625 -47.140625 31.71875 -45.796875 C 33.539062 -44.460938 34.769531 -42.71875 35.40625 -40.5625 Z M 23 -32.34375 C 23 -33.300781 22.660156 -34.140625 21.984375 -34.859375 C 21.304688 -35.578125 20.46875 -35.9375 19.46875 -35.9375 L 18.328125 -35.9375 C 18.085938 -35.9375 17.894531 -35.847656 17.75 -35.671875 C 17.613281 -35.492188 17.546875 -35.304688 17.546875 -35.109375 L 17.546875 -28.640625 C 17.546875 -28.160156 17.804688 -27.921875 18.328125 -27.921875 L 19.46875 -27.921875 C 20.46875 -27.921875 21.304688 -28.269531 21.984375 -28.96875 C 22.660156 -29.664062 23 -30.515625 23 -31.515625 Z M 23 -32.34375 "/></g></g></g><g fill="#e7ebff" fill-opacity="1"><g transform="translate(244.893876, 214.668025)"><g><path d="M 40.140625 -47.921875 C 41.296875 -47.921875 42.28125 -47.507812 43.09375 -46.6875 C 43.914062 -45.875 44.328125 -44.890625 44.328125 -43.734375 L 44.328125 -35.53125 C 44.328125 -34.40625 43.914062 -33.421875 43.09375 -32.578125 C 42.28125 -31.742188 41.296875 -31.328125 40.140625 -31.328125 L 31.9375 -31.328125 C 31.613281 -31.328125 31.453125 -31.1875 31.453125 -30.90625 L 31.453125 -4.078125 C 31.453125 -2.953125 31.039062 -1.96875 30.21875 -1.125 C 29.40625 -0.289062 28.414062 0.125 27.25 0.125 L 19.109375 0.125 C 17.910156 0.125 16.898438 -0.289062 16.078125 -1.125 C 15.265625 -1.96875 14.859375 -2.953125 14.859375 -4.078125 L 14.859375 -30.90625 C 14.859375 -31.1875 14.71875 -31.328125 14.4375 -31.328125 L 6.171875 -31.328125 C 5.054688 -31.328125 4.078125 -31.742188 3.234375 -32.578125 C 2.398438 -33.421875 1.984375 -34.40625 1.984375 -35.53125 L 1.984375 -43.734375 C 1.984375 -44.890625 2.398438 -45.875 3.234375 -46.6875 C 4.078125 -47.507812 5.054688 -47.921875 6.171875 -47.921875 Z M 40.140625 -47.921875 "/></g></g></g><g fill="#e7ebff" fill-opacity="1"><g transform="translate(102.569925, 274.580555)"><g><path d="M 18.6875 -34.921875 C 18.570312 -34.921875 18.472656 -34.859375 18.390625 -34.734375 C 18.304688 -34.617188 18.265625 -34.523438 18.265625 -34.453125 L 18.265625 -30.5 C 18.265625 -30.257812 18.40625 -30.140625 18.6875 -30.140625 L 27.5 -30.140625 C 28.289062 -30.140625 28.96875 -29.859375 29.53125 -29.296875 C 30.09375 -28.734375 30.375 -28.050781 30.375 -27.25 L 30.375 -20.734375 C 30.375 -19.929688 30.09375 -19.25 29.53125 -18.6875 C 28.96875 -18.132812 28.289062 -17.859375 27.5 -17.859375 L 18.6875 -17.859375 C 18.40625 -17.859375 18.265625 -17.71875 18.265625 -17.4375 L 18.265625 -13.59375 C 18.265625 -13.3125 18.40625 -13.171875 18.6875 -13.171875 L 30.859375 -13.171875 C 31.734375 -13.171875 32.476562 -12.851562 33.09375 -12.21875 C 33.71875 -11.582031 34.03125 -10.820312 34.03125 -9.9375 L 34.03125 -3.234375 C 34.03125 -2.359375 33.71875 -1.617188 33.09375 -1.015625 C 32.476562 -0.421875 31.734375 -0.125 30.859375 -0.125 L 6.34375 -0.125 C 5.113281 -0.125 4.078125 -0.59375 3.234375 -1.53125 C 2.398438 -2.46875 1.984375 -3.816406 1.984375 -5.578125 L 1.984375 -44.5625 C 1.984375 -45.25 2.398438 -45.96875 3.234375 -46.71875 C 4.078125 -47.476562 5.113281 -47.859375 6.34375 -47.859375 L 30.859375 -47.859375 C 31.734375 -47.859375 32.476562 -47.554688 33.09375 -46.953125 C 33.71875 -46.359375 34.03125 -45.625 34.03125 -44.75 L 34.03125 -38.046875 C 34.03125 -37.203125 33.71875 -36.46875 33.09375 -35.84375 C 32.476562 -35.226562 31.734375 -34.921875 30.859375 -34.921875 Z M 18.6875 -34.921875 "/></g></g></g><g fill="#e7ebff" fill-opacity="1"><g transform="translate(137.379172, 274.580555)"><g><path d="M 45.703125 -5.03125 C 45.910156 -4.15625 45.832031 -3.285156 45.46875 -2.421875 C 45.101562 -1.566406 44.523438 -0.921875 43.734375 -0.484375 C 43.210938 -0.160156 42.613281 0 41.9375 0 L 33.78125 0 C 32.664062 0 31.828125 -0.335938 31.265625 -1.015625 C 30.710938 -1.691406 30.210938 -2.59375 29.765625 -3.71875 L 27.96875 -8.390625 L 18.8125 -8.390625 L 17.078125 -3.71875 C 16.640625 -2.59375 16.140625 -1.703125 15.578125 -1.046875 C 15.015625 -0.390625 14.175781 -0.0625 13.0625 -0.0625 L 4.90625 -0.0625 C 4.269531 -0.0625 3.753906 -0.160156 3.359375 -0.359375 C 2.472656 -0.753906 1.820312 -1.398438 1.40625 -2.296875 C 0.988281 -3.203125 0.898438 -4.132812 1.140625 -5.09375 L 11.921875 -44.6875 C 12.035156 -45.25 12.242188 -45.707031 12.546875 -46.0625 C 12.847656 -46.425781 13.140625 -46.707031 13.421875 -46.90625 C 14.054688 -47.425781 14.832031 -47.6875 15.75 -47.6875 L 31.453125 -47.6875 C 31.890625 -47.6875 32.367188 -47.601562 32.890625 -47.4375 C 33.410156 -47.28125 33.890625 -46.984375 34.328125 -46.546875 C 34.765625 -46.066406 35.050781 -45.578125 35.1875 -45.078125 C 35.332031 -44.578125 35.445312 -44.148438 35.53125 -43.796875 Z M 26.234375 -22.21875 C 26.515625 -22.21875 26.734375 -22.335938 26.890625 -22.578125 C 27.054688 -22.816406 27.097656 -23.078125 27.015625 -23.359375 L 25.453125 -27.4375 L 24.203125 -30.546875 C 24.078125 -30.953125 23.816406 -31.15625 23.421875 -31.15625 C 23.023438 -31.15625 22.765625 -30.953125 22.640625 -30.546875 L 21.453125 -27.4375 L 19.890625 -23.359375 C 19.734375 -23.078125 19.753906 -22.816406 19.953125 -22.578125 C 20.148438 -22.335938 20.390625 -22.21875 20.671875 -22.21875 Z M 26.234375 -22.21875 "/></g></g></g><g fill="#e7ebff" fill-opacity="1"><g transform="translate(183.032611, 274.580555)"><g><path d="M 20.96875 -50.078125 C 24.039062 -50.078125 26.644531 -49.738281 28.78125 -49.0625 C 30.914062 -48.382812 32.679688 -47.515625 34.078125 -46.453125 C 35.484375 -45.398438 36.582031 -44.273438 37.375 -43.078125 C 38.175781 -41.878906 38.765625 -40.738281 39.140625 -39.65625 C 39.523438 -38.582031 39.773438 -37.722656 39.890625 -37.078125 C 39.972656 -36.640625 39.914062 -36.269531 39.71875 -35.96875 C 39.519531 -35.675781 39.257812 -35.507812 38.9375 -35.46875 L 24.265625 -33.421875 C 23.585938 -33.421875 23.128906 -33.765625 22.890625 -34.453125 C 22.609375 -35.242188 22.125 -35.828125 21.4375 -36.203125 C 20.757812 -36.585938 20.179688 -36.78125 19.703125 -36.78125 C 19.066406 -36.78125 18.359375 -36.507812 17.578125 -35.96875 C 16.804688 -35.4375 16.421875 -34.585938 16.421875 -33.421875 C 16.421875 -32.460938 16.6875 -31.753906 17.21875 -31.296875 C 17.757812 -30.835938 18.390625 -30.535156 19.109375 -30.390625 C 19.828125 -30.253906 20.445312 -30.1875 20.96875 -30.1875 C 21.96875 -30.1875 23.265625 -30.175781 24.859375 -30.15625 C 26.453125 -30.144531 28.140625 -29.945312 29.921875 -29.5625 C 31.703125 -29.1875 33.378906 -28.488281 34.953125 -27.46875 C 36.535156 -26.445312 37.820312 -24.945312 38.8125 -22.96875 C 39.8125 -21 40.3125 -18.394531 40.3125 -15.15625 C 40.3125 -11.882812 39.78125 -9.128906 38.71875 -6.890625 C 37.664062 -4.648438 36.289062 -2.867188 34.59375 -1.546875 C 32.894531 -0.234375 31.046875 0.707031 29.046875 1.28125 C 27.054688 1.863281 25.125 2.15625 23.25 2.15625 C 19.488281 2.15625 16.347656 1.785156 13.828125 1.046875 C 11.316406 0.304688 9.253906 -0.695312 7.640625 -1.96875 C 6.023438 -3.25 4.738281 -4.6875 3.78125 -6.28125 C 2.820312 -7.882812 2.039062 -9.546875 1.4375 -11.265625 C 0.914062 -12.179688 1.113281 -12.738281 2.03125 -12.9375 L 18.09375 -14.859375 C 18.53125 -14.929688 18.835938 -14.90625 19.015625 -14.78125 C 19.203125 -14.664062 19.332031 -14.488281 19.40625 -14.25 C 19.726562 -13.050781 20.21875 -12.300781 20.875 -12 C 21.53125 -11.707031 22.097656 -11.5625 22.578125 -11.5625 C 23.421875 -11.5625 24.179688 -11.867188 24.859375 -12.484375 C 25.535156 -13.109375 25.875 -13.898438 25.875 -14.859375 C 25.875 -15.859375 25.523438 -16.632812 24.828125 -17.1875 C 24.128906 -17.75 23.28125 -18.03125 22.28125 -18.03125 L 18.6875 -18.03125 C 15.332031 -18.03125 12.316406 -18.664062 9.640625 -19.9375 C 6.960938 -21.21875 4.851562 -23.085938 3.3125 -25.546875 C 1.78125 -28.003906 1.015625 -30.972656 1.015625 -34.453125 C 1.015625 -37.242188 1.472656 -39.566406 2.390625 -41.421875 C 3.316406 -43.273438 4.515625 -44.769531 5.984375 -45.90625 C 7.460938 -47.050781 9.039062 -47.921875 10.71875 -48.515625 C 12.394531 -49.117188 13.992188 -49.519531 15.515625 -49.71875 C 17.035156 -49.914062 18.289062 -50.023438 19.28125 -50.046875 C 20.28125 -50.066406 20.84375 -50.078125 20.96875 -50.078125 Z M 20.96875 -50.078125 "/></g></g></g><g fill="#e7ebff" fill-opacity="1"><g transform="translate(223.174096, 274.580555)"><g><path d="M 47.5 -43.125 L 33.3125 -22.828125 L 33.3125 -3.421875 C 33.3125 -2.421875 32.898438 -1.597656 32.078125 -0.953125 C 31.265625 -0.316406 30.394531 0 29.46875 0 L 19.765625 0 C 18.847656 0 17.988281 -0.316406 17.1875 -0.953125 C 16.394531 -1.597656 16 -2.421875 16 -3.421875 L 16 -22.828125 L 1.796875 -43.125 C 1.273438 -43.488281 1.015625 -44.109375 1.015625 -44.984375 C 1.015625 -45.910156 1.320312 -46.640625 1.9375 -47.171875 C 2.5625 -47.710938 3.253906 -47.984375 4.015625 -47.984375 L 14.921875 -47.984375 C 15.234375 -47.984375 15.609375 -47.910156 16.046875 -47.765625 C 16.492188 -47.628906 16.859375 -47.320312 17.140625 -46.84375 L 24.625 -35.9375 L 32.53125 -46.84375 C 33.050781 -47.601562 33.671875 -47.984375 34.390625 -47.984375 L 45.234375 -47.984375 C 46.023438 -47.984375 46.71875 -47.710938 47.3125 -47.171875 C 47.914062 -46.640625 48.21875 -45.910156 48.21875 -44.984375 C 48.21875 -44.585938 48.148438 -44.21875 48.015625 -43.875 C 47.878906 -43.539062 47.707031 -43.289062 47.5 -43.125 Z M 47.5 -43.125 "/></g></g></g></svg>