<svg xmlns="http://www.w3.org/2000/svg" xmlns:xlink="http://www.w3.org/1999/xlink" width="500" zoomAndPan="magnify" viewBox="0 0 375 374.999991" height="500" preserveAspectRatio="xMidYMid meet" version="1.0"><defs><g/><clipPath id="0adaa36dfa"><path d="M 128 95 L 197 95 L 197 164 L 128 164 Z M 128 95 " clip-rule="nonzero"/></clipPath><clipPath id="a0a190c42c"><path d="M 124.21875 101.960938 L 191.648438 91.414062 L 201.730469 155.882812 L 134.296875 166.425781 Z M 124.21875 101.960938 " clip-rule="nonzero"/></clipPath><clipPath id="20d28c4d8c"><path d="M 124.21875 101.960938 L 191.648438 91.414062 L 201.730469 155.882812 L 134.296875 166.425781 Z M 124.21875 101.960938 " clip-rule="nonzero"/></clipPath><clipPath id="ee72e431c0"><path d="M 143 125 L 187 125 L 187 159 L 143 159 Z M 143 125 " clip-rule="nonzero"/></clipPath><clipPath id="a50cd04788"><path d="M 124.21875 101.960938 L 191.648438 91.414062 L 201.730469 155.882812 L 134.296875 166.425781 Z M 124.21875 101.960938 " clip-rule="nonzero"/></clipPath><clipPath id="f0076a0487"><path d="M 124.21875 101.960938 L 191.648438 91.414062 L 201.730469 155.882812 L 134.296875 166.425781 Z M 124.21875 101.960938 " clip-rule="nonzero"/></clipPath><clipPath id="42186e5d62"><path d="M 163 100 L 178 100 L 178 121 L 163 121 Z M 163 100 " clip-rule="nonzero"/></clipPath><clipPath id="a609cd6b71"><path d="M 124.21875 101.960938 L 191.648438 91.414062 L 201.730469 155.882812 L 134.296875 166.425781 Z M 124.21875 101.960938 " clip-rule="nonzero"/></clipPath><clipPath id="f3ed33388f"><path d="M 124.21875 101.960938 L 191.648438 91.414062 L 201.730469 155.882812 L 134.296875 166.425781 Z M 124.21875 101.960938 " clip-rule="nonzero"/></clipPath><clipPath id="3a41dc923d"><path d="M 145 102 L 160 102 L 160 124 L 145 124 Z M 145 102 " clip-rule="nonzero"/></clipPath><clipPath id="d8824418cc"><path d="M 124.21875 101.960938 L 191.648438 91.414062 L 201.730469 155.882812 L 134.296875 166.425781 Z M 124.21875 101.960938 " clip-rule="nonzero"/></clipPath><clipPath id="01a28b2138"><path d="M 124.21875 101.960938 L 191.648438 91.414062 L 201.730469 155.882812 L 134.296875 166.425781 Z M 124.21875 101.960938 " clip-rule="nonzero"/></clipPath><clipPath id="782b571ffd"><path d="M 133 119 L 149 119 L 149 139 L 133 139 Z M 133 119 " clip-rule="nonzero"/></clipPath><clipPath id="38c33cb42d"><path d="M 124.21875 101.960938 L 191.648438 91.414062 L 201.730469 155.882812 L 134.296875 166.425781 Z M 124.21875 101.960938 " clip-rule="nonzero"/></clipPath><clipPath id="7698e6031f"><path d="M 124.21875 101.960938 L 191.648438 91.414062 L 201.730469 155.882812 L 134.296875 166.425781 Z M 124.21875 101.960938 " clip-rule="nonzero"/></clipPath><clipPath id="b46774defb"><path d="M 177 111 L 192 111 L 192 133 L 177 133 Z M 177 111 " clip-rule="nonzero"/></clipPath><clipPath id="3934cc6572"><path d="M 124.21875 101.960938 L 191.648438 91.414062 L 201.730469 155.882812 L 134.296875 166.425781 Z M 124.21875 101.960938 " clip-rule="nonzero"/></clipPath><clipPath id="64352e9072"><path d="M 124.21875 101.960938 L 191.648438 91.414062 L 201.730469 155.882812 L 134.296875 166.425781 Z M 124.21875 101.960938 " clip-rule="nonzero"/></clipPath><clipPath id="d086f2ddd4"><path d="M 206 108 L 259 108 L 259 163 L 206 163 Z M 206 108 " clip-rule="nonzero"/></clipPath><clipPath id="bf214d8972"><path d="M 214.546875 102.203125 L 264.734375 120.003906 L 247.683594 168.070312 L 197.496094 150.269531 Z M 214.546875 102.203125 " clip-rule="nonzero"/></clipPath><clipPath id="e549695f28"><path d="M 214.546875 102.203125 L 264.734375 120.003906 L 247.683594 168.070312 L 197.496094 150.269531 Z M 214.546875 102.203125 " clip-rule="nonzero"/></clipPath><clipPath id="a10e748a3b"><path d="M 210 131 L 244 131 L 244 159 L 210 159 Z M 210 131 " clip-rule="nonzero"/></clipPath><clipPath id="692ecdeec9"><path d="M 214.546875 102.203125 L 264.734375 120.003906 L 247.683594 168.070312 L 197.496094 150.269531 Z M 214.546875 102.203125 " clip-rule="nonzero"/></clipPath><clipPath id="ce17c6780c"><path d="M 214.546875 102.203125 L 264.734375 120.003906 L 247.683594 168.070312 L 197.496094 150.269531 Z M 214.546875 102.203125 " clip-rule="nonzero"/></clipPath><clipPath id="35038d5477"><path d="M 236 117 L 249 117 L 249 133 L 236 133 Z M 236 117 " clip-rule="nonzero"/></clipPath><clipPath id="10a13284de"><path d="M 214.546875 102.203125 L 264.734375 120.003906 L 247.683594 168.070312 L 197.496094 150.269531 Z M 214.546875 102.203125 " clip-rule="nonzero"/></clipPath><clipPath id="c73c9df9c2"><path d="M 214.546875 102.203125 L 264.734375 120.003906 L 247.683594 168.070312 L 197.496094 150.269531 Z M 214.546875 102.203125 " clip-rule="nonzero"/></clipPath><clipPath id="5ee8eb7373"><path d="M 223 112 L 235 112 L 235 129 L 223 129 Z M 223 112 " clip-rule="nonzero"/></clipPath><clipPath id="6c83fea1b9"><path d="M 214.546875 102.203125 L 264.734375 120.003906 L 247.683594 168.070312 L 197.496094 150.269531 Z M 214.546875 102.203125 " clip-rule="nonzero"/></clipPath><clipPath id="1175dab75d"><path d="M 214.546875 102.203125 L 264.734375 120.003906 L 247.683594 168.070312 L 197.496094 150.269531 Z M 214.546875 102.203125 " clip-rule="nonzero"/></clipPath><clipPath id="6bc1b137d7"><path d="M 210 118 L 222 118 L 222 135 L 210 135 Z M 210 118 " clip-rule="nonzero"/></clipPath><clipPath id="40ae7a7932"><path d="M 214.546875 102.203125 L 264.734375 120.003906 L 247.683594 168.070312 L 197.496094 150.269531 Z M 214.546875 102.203125 " clip-rule="nonzero"/></clipPath><clipPath id="2edf92412b"><path d="M 214.546875 102.203125 L 264.734375 120.003906 L 247.683594 168.070312 L 197.496094 150.269531 Z M 214.546875 102.203125 " clip-rule="nonzero"/></clipPath><clipPath id="1ab1633d14"><path d="M 241 131 L 255 131 L 255 146 L 241 146 Z M 241 131 " clip-rule="nonzero"/></clipPath><clipPath id="1a715dbd57"><path d="M 214.546875 102.203125 L 264.734375 120.003906 L 247.683594 168.070312 L 197.496094 150.269531 Z M 214.546875 102.203125 " clip-rule="nonzero"/></clipPath><clipPath id="edd7ab430e"><path d="M 214.546875 102.203125 L 264.734375 120.003906 L 247.683594 168.070312 L 197.496094 150.269531 Z M 214.546875 102.203125 " clip-rule="nonzero"/></clipPath></defs><g clip-path="url(#0adaa36dfa)"><g clip-path="url(#a0a190c42c)"><g clip-path="url(#20d28c4d8c)"><path fill="#5271ff" d="M 196.28125 118.769531 C 195.644531 115.25 194.453125 112.558594 192.535156 110.300781 C 190.191406 107.542969 187.46875 106.386719 184.445312 106.859375 C 183.582031 106.992188 182.71875 107.269531 181.835938 107.683594 C 180.832031 103.699219 178.863281 100.425781 175.839844 97.726562 C 173.464844 95.613281 170.617188 94.6875 167.820312 95.125 C 165.027344 95.5625 162.660156 97.292969 161.152344 99.996094 C 160.609375 100.96875 160.148438 101.941406 159.75 102.914062 C 159.054688 102.074219 158.3125 101.304688 157.519531 100.625 C 154.367188 97.921875 151.441406 97.707031 149.539062 98.003906 C 146.777344 98.4375 144.382812 100.238281 142.804688 103.074219 C 140.761719 106.738281 139.871094 110.554688 140.128906 114.292969 C 139.03125 114.082031 137.925781 114.050781 136.851562 114.21875 C 133.148438 114.796875 130.230469 117.53125 129.050781 121.527344 C 128.351562 123.878906 128.175781 126.4375 128.515625 129.347656 L 128.535156 129.515625 L 128.566406 129.683594 C 129.285156 133.554688 130.566406 136.503906 132.597656 138.964844 C 134.363281 141.113281 136.652344 142.617188 139.078125 143.324219 C 138.785156 144.191406 138.585938 145.109375 138.511719 146.09375 C 138.125 151.421875 140.84375 155.320312 142.921875 157.789062 C 146.671875 162.242188 151 164.015625 156.152344 163.210938 C 157.496094 163 158.875 162.617188 160.363281 162.042969 C 165.570312 160.027344 170.164062 159.3125 174.976562 159.75 C 176.589844 159.894531 178.054688 159.859375 179.457031 159.640625 C 182.085938 159.230469 184.363281 158.179688 186.230469 156.511719 C 191.171875 152.117188 191.925781 146.632812 192.035156 142.34375 C 192.097656 139.824219 191.414062 137.597656 190.109375 135.792969 C 191.539062 134.851562 192.777344 133.554688 193.742188 131.953125 C 195.933594 128.308594 196.785156 124.144531 196.339844 119.21875 L 196.320312 118.992188 Z M 185.25 117.558594 C 185.679688 118.273438 185.988281 119.175781 186.21875 120.359375 C 186.425781 122.980469 186.039062 125.003906 185.019531 126.703125 C 184.746094 127.15625 184.472656 127.34375 184.324219 127.367188 C 184.105469 127.398438 183.683594 127.175781 183.273438 126.605469 C 182.574219 125.632812 182.386719 124.066406 182.761719 122.3125 C 183.199219 120.257812 184.257812 118.507812 185.25 117.558594 Z M 169.589844 105.828125 C 170.960938 107.234375 171.765625 108.886719 172.160156 111.082031 C 172.375 113.53125 171.789062 114.558594 171.179688 115.234375 C 170.863281 115.585938 170.527344 115.796875 170.210938 115.847656 C 169.492188 115.960938 169.113281 115.191406 168.980469 114.855469 C 167.835938 111.914062 168.023438 109.023438 169.589844 105.828125 Z M 151.320312 108.75 C 152.945312 110.371094 154.222656 112.960938 154.625 115.492188 C 154.644531 115.632812 154.808594 116.902344 154.070312 118.023438 C 153.878906 118.320312 153.640625 118.480469 153.328125 118.53125 C 152.800781 118.613281 152.054688 118.382812 151.539062 117.488281 C 149.886719 114.640625 149.8125 111.84375 151.320312 108.75 Z M 138.773438 124.550781 C 142.769531 126.632812 143.457031 129.285156 143.601562 131.386719 C 143.671875 132.390625 143.140625 133.234375 142.210938 133.601562 C 141.964844 133.601562 141.164062 133.351562 140.457031 132.492188 C 139.578125 131.429688 139.007812 130.035156 138.613281 128 C 138.464844 126.625 138.519531 125.496094 138.773438 124.550781 Z M 181.855469 142.089844 C 181.769531 145.585938 181.121094 147.433594 179.460938 148.910156 C 179.210938 149.132812 178.777344 149.441406 177.886719 149.582031 C 177.328125 149.667969 176.660156 149.679688 175.902344 149.609375 C 172.699219 149.316406 169.453125 149.421875 166.253906 149.921875 C 163.113281 150.414062 159.984375 151.273438 156.691406 152.546875 C 155.898438 152.851562 155.1875 153.054688 154.578125 153.152344 C 153.414062 153.332031 152.453125 153.300781 150.710938 151.234375 C 148.792969 148.953125 148.601562 147.730469 148.667969 146.839844 C 148.671875 146.769531 148.679688 146.71875 148.6875 146.679688 C 153.046875 143.710938 156.097656 139.660156 158.011719 134.300781 C 158.5625 132.765625 159.539062 131.269531 162.941406 130.738281 C 163.058594 130.71875 163.179688 130.703125 163.300781 130.6875 L 163.445312 130.667969 L 163.585938 130.640625 C 163.652344 130.628906 163.714844 130.617188 163.777344 130.609375 C 165.242188 130.378906 166.214844 130.722656 167.140625 131.785156 C 168.453125 133.289062 170.230469 135.25 172.363281 137.050781 C 174.742188 139.058594 177.609375 140.503906 180.886719 141.347656 C 181.484375 141.503906 181.75 141.671875 181.832031 141.734375 C 181.84375 141.789062 181.859375 141.902344 181.855469 142.089844 Z M 181.855469 142.089844 " fill-opacity="1" fill-rule="nonzero"/></g></g></g><g clip-path="url(#ee72e431c0)"><g clip-path="url(#a50cd04788)"><g clip-path="url(#f0076a0487)"><path fill="#e7ebff" d="M 162.648438 125.636719 C 165.964844 125.015625 168.828125 125.964844 170.980469 128.441406 C 172.425781 130.101562 173.929688 131.707031 175.648438 133.160156 C 177.503906 134.722656 179.6875 135.78125 182.15625 136.417969 C 185.433594 137.261719 187.019531 139.300781 186.945312 142.21875 C 186.851562 146.019531 186.1875 149.738281 182.847656 152.710938 C 180.734375 154.59375 178.015625 154.914062 175.441406 154.679688 C 169.535156 154.140625 164.039062 155.164062 158.527344 157.292969 C 153.398438 159.277344 150.035156 158.335938 146.820312 154.511719 C 144.84375 152.167969 143.363281 149.601562 143.589844 146.460938 C 143.710938 144.871094 144.34375 143.472656 145.808594 142.480469 C 149.601562 139.90625 151.824219 136.496094 153.21875 132.585938 C 154.632812 128.621094 157.6875 126.277344 162.648438 125.636719 Z M 162.648438 125.636719 " fill-opacity="1" fill-rule="evenodd"/></g></g></g><g clip-path="url(#42186e5d62)"><g clip-path="url(#a609cd6b71)"><g clip-path="url(#f3ed33388f)"><path fill="#e7ebff" d="M 177.207031 110.402344 C 177.484375 113.140625 177.203125 116.144531 174.96875 118.636719 C 171.582031 122.410156 166.074219 121.425781 164.238281 116.703125 C 162.304688 111.746094 163.09375 106.972656 165.601562 102.476562 C 167.160156 99.671875 170.03125 99.371094 172.453125 101.527344 C 174.992188 103.792969 176.570312 106.609375 177.207031 110.402344 Z M 177.207031 110.402344 " fill-opacity="1" fill-rule="evenodd"/></g></g></g><g clip-path="url(#3a41dc923d)"><g clip-path="url(#d8824418cc)"><g clip-path="url(#01a28b2138)"><path fill="#e7ebff" d="M 159.660156 114.738281 C 159.890625 116.269531 159.746094 118.65625 158.328125 120.8125 C 155.683594 124.851562 149.726562 124.523438 147.132812 120.042969 C 144.359375 115.253906 144.597656 110.304688 147.25 105.554688 C 148.945312 102.511719 151.558594 102.21875 154.203125 104.488281 C 156.804688 106.71875 158.996094 110.570312 159.660156 114.738281 Z M 159.660156 114.738281 " fill-opacity="1" fill-rule="evenodd"/></g></g></g><g clip-path="url(#782b571ffd)"><g clip-path="url(#38c33cb42d)"><g clip-path="url(#7698e6031f)"><path fill="#e7ebff" d="M 133.574219 128.757812 C 133.359375 126.921875 133.351562 124.921875 133.929688 122.972656 C 134.890625 119.730469 137.589844 118.308594 140.605469 119.773438 C 145.261719 122.03125 148.3125 125.648438 148.683594 131.035156 C 148.910156 134.371094 146.949219 137.289062 143.914062 138.402344 C 141.566406 139.265625 138.523438 138.15625 136.53125 135.730469 C 134.890625 133.742188 134.066406 131.414062 133.574219 128.757812 Z M 133.574219 128.757812 " fill-opacity="1" fill-rule="evenodd"/></g></g></g><g clip-path="url(#b46774defb)"><g clip-path="url(#3934cc6572)"><g clip-path="url(#64352e9072)"><path fill="#e7ebff" d="M 191.269531 119.675781 C 191.574219 123.039062 191.179688 126.332031 189.378906 129.328125 C 186.898438 133.445312 181.941406 133.480469 179.140625 129.578125 C 175.285156 124.214844 178.746094 115.3125 183.390625 112.609375 C 185.566406 111.34375 187 111.652344 188.65625 113.597656 C 190.132812 115.339844 190.859375 117.40625 191.269531 119.675781 Z M 191.269531 119.675781 " fill-opacity="1" fill-rule="evenodd"/></g></g></g><path stroke-linecap="butt" transform="matrix(0.75, 0, 0, 0.75, 75.87534, 176.73721)" fill="none" stroke-linejoin="miter" d="M 102.353721 36.970181 C 102.520387 37.673306 102.457887 38.366014 102.166221 39.053514 C 101.879762 39.741014 101.416221 40.261848 100.775596 40.610806 C 100.358929 40.871223 99.879762 41.001431 99.332887 41.001431 L 92.806845 41.001431 C 91.905803 41.001431 91.233928 40.730598 90.79122 40.188931 C 90.343303 39.642056 89.94747 38.923306 89.593303 38.022264 L 88.150595 34.282681 L 80.806844 34.282681 L 79.411011 38.022264 C 79.056844 38.923306 78.661011 39.636848 78.213094 40.168098 C 77.770386 40.688931 77.098511 40.954556 76.197469 40.954556 L 69.671427 40.954556 C 69.155802 40.954556 68.739135 40.871223 68.416218 40.704556 C 67.713093 40.386848 67.197468 39.866014 66.858927 39.147264 C 66.525593 38.428514 66.452677 37.688931 66.650593 36.923306 L 75.286011 5.188929 C 75.379761 4.741012 75.546427 4.376429 75.791219 4.084762 C 76.030802 3.798304 76.265177 3.574345 76.494344 3.418095 C 76.999552 3.001429 77.619344 2.798304 78.353719 2.798304 L 90.931845 2.798304 C 91.280803 2.798304 91.66622 2.860804 92.077678 2.985804 C 92.499553 3.110804 92.88497 3.345179 93.239137 3.699345 C 93.588095 4.08997 93.82247 4.485804 93.931845 4.881637 C 94.046428 5.282679 94.13497 5.626429 94.19747 5.912887 Z M 86.75997 23.18893 C 86.983928 23.18893 87.161011 23.09518 87.286011 22.90768 C 87.411011 22.709763 87.442261 22.50143 87.379761 22.28268 L 86.13497 19.017055 L 85.129761 16.517054 C 85.025595 16.199346 84.817261 16.037888 84.494345 16.037888 C 84.181845 16.037888 83.978719 16.199346 83.874553 16.517054 L 82.916219 19.017055 L 81.671428 22.28268 C 81.541219 22.50143 81.551636 22.709763 81.707886 22.90768 C 81.869344 23.09518 82.067261 23.18893 82.291219 23.18893 Z M 120.26518 2.642054 C 122.155805 2.642054 123.905805 3.001429 125.515181 3.709762 C 127.129764 4.412887 128.536014 5.376429 129.733931 6.595179 C 130.937056 7.803512 131.874556 9.209762 132.546431 10.813929 C 133.218306 12.407679 133.551639 14.116013 133.551639 15.944138 L 133.551639 27.511847 C 133.551639 29.329555 133.218306 31.043097 132.546431 32.642055 C 131.874556 34.246222 130.937056 35.662889 129.733931 36.897264 C 128.536014 38.126431 127.129764 39.095181 125.515181 39.803514 C 123.905805 40.506639 122.155805 40.860806 120.26518 40.860806 L 107.348513 40.860806 C 106.358929 40.860806 105.530804 40.491014 104.874554 39.756639 C 104.218304 39.017056 103.890179 38.214973 103.890179 37.355597 L 103.890179 6.100387 C 103.890179 5.209762 104.218304 4.412887 104.874554 3.709762 C 105.530804 3.001429 106.358929 2.642054 107.348513 2.642054 Z M 121.843305 22.90768 L 121.843305 20.59518 C 121.843305 19.574346 121.51518 18.735805 120.85893 18.079555 C 120.20268 17.423304 119.379763 17.095179 118.39018 17.095179 L 116.093305 17.095179 C 115.926638 17.095179 115.770388 17.168096 115.624555 17.313929 C 115.48393 17.454554 115.411013 17.68893 115.411013 18.006638 L 115.411013 25.496222 C 115.411013 25.78268 115.48393 25.996222 115.624555 26.12643 C 115.770388 26.25143 115.926638 26.31393 116.093305 26.31393 L 118.39018 26.31393 C 119.379763 26.31393 120.20268 25.996222 120.85893 25.355597 C 121.51518 24.714972 121.843305 23.897263 121.843305 22.90768 Z M 150.265182 2.022262 C 152.280807 2.022262 154.218307 2.392053 156.088099 3.126429 C 157.963099 3.860804 159.634974 4.876429 161.103725 6.173304 C 162.577683 7.470179 163.749558 8.985804 164.608933 10.720179 C 165.473517 12.444137 165.905808 14.298304 165.905808 16.282679 L 165.905808 27.22018 C 165.905808 29.272264 165.473517 31.18893 164.608933 32.959764 C 163.749558 34.735806 162.577683 36.282681 161.103725 37.610806 C 159.634974 38.938931 157.963099 39.975389 156.088099 40.720181 C 154.218307 41.454556 152.280807 41.819139 150.265182 41.819139 C 148.312057 41.819139 146.39539 41.454556 144.52039 40.720181 C 142.655807 39.975389 140.973515 38.938931 139.483931 37.610806 C 137.999556 36.282681 136.812056 34.735806 135.931848 32.959764 C 135.056848 31.18893 134.619348 29.272264 134.619348 27.22018 L 134.619348 16.282679 C 134.619348 14.298304 135.056848 12.444137 135.931848 10.720179 C 136.812056 8.985804 137.999556 7.470179 139.483931 6.173304 C 140.973515 4.876429 142.655807 3.860804 144.52039 3.126429 C 146.39539 2.392053 148.312057 2.022262 150.265182 2.022262 Z M 153.473516 26.735805 L 153.473516 17.142054 C 153.473516 16.282679 153.155807 15.537888 152.515182 14.912888 C 151.879766 14.287888 151.129766 13.975388 150.265182 13.975388 C 149.36414 13.975388 148.608932 14.287888 147.999557 14.912888 C 147.400599 15.537888 147.098515 16.282679 147.098515 17.142054 L 147.098515 26.735805 C 147.098515 27.543097 147.400599 28.256639 147.999557 28.881639 C 148.608932 29.506639 149.36414 29.819139 150.265182 29.819139 C 151.129766 29.819139 151.879766 29.506639 152.515182 28.881639 C 153.155807 28.256639 153.473516 27.543097 153.473516 26.735805 Z M 194.140185 8.501429 C 194.390185 9.298304 194.582893 10.261846 194.723518 11.386846 C 194.87456 12.501429 194.947477 13.767054 194.947477 15.173304 C 194.947477 17.928513 194.608935 20.173305 193.93706 21.897263 C 193.265185 23.62643 192.53081 24.97018 191.733935 25.928513 C 190.390185 27.53268 188.645393 28.329555 186.49956 28.329555 L 179.827684 28.329555 L 179.827684 37.110806 C 179.827684 38.162889 179.463101 39.063931 178.728726 39.803514 C 177.994351 40.537889 177.114142 40.907681 176.093309 40.907681 L 171.098517 40.907681 C 170.077683 40.907681 169.192267 40.537889 168.452683 39.803514 C 167.718308 39.063931 167.348517 38.162889 167.348517 37.110806 L 167.348517 6.485804 C 167.348517 5.46497 167.718308 4.579554 168.452683 3.829554 C 169.192267 3.069137 170.077683 2.688929 171.098517 2.688929 L 186.31206 2.688929 C 188.098518 2.688929 189.71831 3.230595 191.171435 4.30872 C 192.634977 5.376429 193.62456 6.77747 194.140185 8.501429 Z M 184.202684 15.079554 C 184.202684 14.313929 183.926643 13.642054 183.379768 13.063929 C 182.843309 12.485804 182.171434 12.194137 181.364143 12.194137 L 180.452684 12.194137 C 180.265184 12.194137 180.108934 12.267054 179.994351 12.418096 C 179.884976 12.558721 179.827684 12.709763 179.827684 12.876429 L 179.827684 18.053513 C 179.827684 18.43893 180.036017 18.62643 180.452684 18.62643 L 181.364143 18.62643 C 182.171434 18.62643 182.843309 18.350388 183.379768 17.798305 C 183.926643 17.235804 184.202684 16.553513 184.202684 15.756638 Z M 226.963104 2.595179 C 227.890187 2.595179 228.687062 2.923304 229.343312 3.579554 C 229.999562 4.235804 230.327687 5.032679 230.327687 5.959762 L 230.327687 12.532679 C 230.327687 13.433721 229.999562 14.220179 229.343312 14.892054 C 228.687062 15.563929 227.890187 15.897263 226.963104 15.897263 L 220.390187 15.897263 C 220.12977 15.897263 219.999562 16.006638 219.999562 16.225388 L 219.999562 37.730597 C 219.999562 38.626431 219.671437 39.412889 219.015187 40.084764 C 218.358937 40.756639 217.572478 41.095181 216.650603 41.095181 L 210.124561 41.095181 C 209.161019 41.095181 208.353728 40.756639 207.697478 40.084764 C 207.041228 39.412889 206.713103 38.626431 206.713103 37.730597 L 206.713103 16.225388 C 206.713103 16.006638 206.598519 15.897263 206.374561 15.897263 L 199.74956 15.897263 C 198.853727 15.897263 198.067269 15.563929 197.395394 14.892054 C 196.723519 14.220179 196.390185 13.433721 196.390185 12.532679 L 196.390185 5.959762 C 196.390185 5.032679 196.723519 4.235804 197.395394 3.579554 C 198.067269 2.923304 198.853727 2.595179 199.74956 2.595179 Z M 226.963104 2.595179 " stroke="#5271ff" stroke-width="9" stroke-opacity="1" stroke-miterlimit="4"/><path stroke-linecap="butt" transform="matrix(0.75, 0, 0, 0.75, 75.87534, 176.73721)" fill="none" stroke-linejoin="miter" d="M 95.75997 61.017057 C 95.66622 61.017057 95.582887 61.063932 95.50997 61.168099 C 95.44747 61.261849 95.41622 61.339974 95.41622 61.402474 L 95.41622 64.563933 C 95.41622 64.761849 95.530804 64.860808 95.75997 64.860808 L 102.812054 64.860808 C 103.452679 64.860808 103.994346 65.079558 104.442263 65.527474 C 104.895388 65.970183 105.119346 66.517058 105.119346 67.157683 L 105.119346 72.392058 C 105.119346 73.032683 104.895388 73.579558 104.442263 74.022267 C 103.994346 74.470183 103.452679 74.688933 102.812054 74.688933 L 95.75997 74.688933 C 95.530804 74.688933 95.41622 74.803517 95.41622 75.032683 L 95.41622 78.100392 C 95.41622 78.329558 95.530804 78.438933 95.75997 78.438933 L 105.494346 78.438933 C 106.207888 78.438933 106.806846 78.69935 107.301638 79.214975 C 107.801638 79.720184 108.051638 80.329559 108.051638 81.032684 L 108.051638 86.407684 C 108.051638 87.110809 107.801638 87.704559 107.301638 88.188934 C 106.806846 88.668101 106.207888 88.907684 105.494346 88.907684 L 85.869345 88.907684 C 84.874553 88.907684 84.041219 88.532684 83.369344 87.782684 C 82.697469 87.022267 82.364136 85.938934 82.364136 84.532684 L 82.364136 53.293099 C 82.364136 52.746223 82.697469 52.168098 83.369344 51.558723 C 84.041219 50.949348 84.874553 50.642057 85.869345 50.642057 L 105.494346 50.642057 C 106.207888 50.642057 106.806846 50.886848 107.301638 51.371223 C 107.801638 51.845182 108.051638 52.438932 108.051638 53.142057 L 108.051638 58.517057 C 108.051638 59.188932 107.801638 59.777474 107.301638 60.277474 C 106.806846 60.767057 106.207888 61.017057 105.494346 61.017057 Z M 145.291224 84.970184 C 145.452682 85.673309 145.390182 86.366017 145.103724 87.053517 C 144.812057 87.741017 144.348515 88.261851 143.70789 88.610809 C 143.296432 88.871226 142.812057 89.001434 142.265182 89.001434 L 135.73914 89.001434 C 134.843306 89.001434 134.171431 88.730601 133.723514 88.188934 C 133.280806 87.642059 132.879764 86.923309 132.530806 86.022267 L 131.088098 82.282684 L 123.739139 82.282684 L 122.343305 86.022267 C 121.994347 86.923309 121.593305 87.636851 121.150597 88.168101 C 120.70268 88.688934 120.030805 88.954559 119.134972 88.954559 L 112.60893 88.954559 C 112.093305 88.954559 111.67143 88.871226 111.353721 88.704559 C 110.650596 88.386851 110.129763 87.866017 109.79643 87.147267 C 109.457888 86.428517 109.390179 85.688934 109.582888 84.923309 L 118.218305 53.188932 C 118.312055 52.741015 118.48393 52.376432 118.723513 52.084765 C 118.968305 51.798307 119.20268 51.574348 119.426638 51.418098 C 119.937055 51.001432 120.556847 50.798307 121.291222 50.798307 L 133.864139 50.798307 C 134.218306 50.798307 134.598514 50.860807 135.015181 50.985807 C 135.437056 51.110807 135.822473 51.345182 136.171431 51.699348 C 136.525598 52.089973 136.754765 52.485807 136.86414 52.88164 C 136.983931 53.282682 137.072473 53.626432 137.134973 53.91289 Z M 129.692264 71.188933 C 129.921431 71.188933 130.093306 71.095183 130.218306 70.907683 C 130.343306 70.709766 130.374556 70.501433 130.312056 70.282683 L 129.072472 67.017058 L 128.062056 64.517058 C 127.963097 64.199349 127.749556 64.037891 127.431847 64.037891 C 127.119347 64.037891 126.911014 64.199349 126.812056 64.517058 L 125.848514 67.017058 L 124.60893 70.282683 C 124.473514 70.501433 124.48393 70.709766 124.64018 70.907683 C 124.806847 71.095183 124.999556 71.188933 125.228722 71.188933 Z M 162.051641 48.876432 C 164.509975 48.876432 166.598517 49.147265 168.30685 49.69414 C 170.020392 50.235807 171.43185 50.928515 172.551642 51.782682 C 173.676642 52.626432 174.55685 53.527474 175.197475 54.485807 C 175.838101 55.449349 176.312059 56.360807 176.614142 57.230599 C 176.921434 58.089974 177.119351 58.777474 177.213101 59.293099 C 177.275601 59.642057 177.223517 59.938932 177.062059 60.183724 C 176.905809 60.418099 176.697476 60.548307 176.442267 60.579557 L 164.687058 62.209766 C 164.140183 62.209766 163.770391 61.938932 163.582891 61.402474 C 163.358933 60.761849 162.973516 60.287891 162.426641 59.985807 C 161.884975 59.678516 161.426641 59.527474 161.041225 59.527474 C 160.5256 59.527474 159.957891 59.746224 159.332891 60.183724 C 158.707891 60.610807 158.395391 61.287891 158.395391 62.209766 C 158.395391 62.985807 158.608933 63.553516 159.036016 63.923308 C 159.473516 64.287891 159.978724 64.532683 160.551641 64.647266 C 161.129766 64.756641 161.629766 64.813933 162.051641 64.813933 C 162.848516 64.813933 163.884975 64.819141 165.166225 64.834766 C 166.447475 64.850391 167.801642 65.011849 169.223517 65.313933 C 170.645392 65.621224 171.989142 66.178516 173.254767 66.991016 C 174.520392 67.803516 175.551642 69.001433 176.348517 70.589975 C 177.150601 72.173308 177.551642 74.267058 177.551642 76.860808 C 177.551642 79.485809 177.129767 81.688934 176.275601 83.4806 C 175.43185 85.267059 174.327684 86.694142 172.957892 87.756642 C 171.598517 88.813934 170.11935 89.569143 168.520392 90.032684 C 166.926642 90.491018 165.374558 90.720184 163.864141 90.720184 C 160.858933 90.720184 158.348516 90.423309 156.332891 89.829559 C 154.317266 89.246226 152.661016 88.438934 151.364141 87.418101 C 150.067265 86.392059 149.036015 85.241017 148.27039 83.959767 C 147.504765 82.678517 146.879765 81.350392 146.39539 79.975392 C 145.978724 79.241017 146.140182 78.7931 146.874557 78.626434 L 159.739141 77.095183 C 160.093308 77.032683 160.3381 77.048308 160.478725 77.152475 C 160.629766 77.246225 160.733933 77.38685 160.796433 77.57435 C 161.051641 78.532683 161.442266 79.13685 161.968308 79.376434 C 162.499558 79.610809 162.957891 79.7306 163.3381 79.7306 C 164.009975 79.7306 164.614141 79.485809 165.155808 78.991017 C 165.702683 78.491017 165.973517 77.860808 165.973517 77.095183 C 165.973517 76.298308 165.692267 75.673308 165.129766 75.2306 C 164.577683 74.777475 163.9006 74.548308 163.103725 74.548308 L 160.223516 74.548308 C 157.536016 74.548308 155.114141 74.037892 152.968307 73.017058 C 150.827682 71.991016 149.140182 70.496225 147.905807 68.527475 C 146.67664 66.558724 146.067265 64.183724 146.067265 61.402474 C 146.067265 59.157682 146.431849 57.298307 147.166224 55.813932 C 147.900599 54.31914 148.858932 53.121223 150.036015 52.214973 C 151.223516 51.298307 152.489141 50.605598 153.832891 50.126432 C 155.176641 49.642057 156.457891 49.324348 157.676641 49.168098 C 158.895391 49.001432 159.905808 48.91289 160.702683 48.897265 C 161.499558 48.88164 161.947475 48.876432 162.051641 48.876432 Z M 215.468311 54.438932 L 204.088102 70.704558 L 204.088102 86.267059 C 204.088102 87.063934 203.759977 87.720184 203.103727 88.235809 C 202.447477 88.746226 201.754769 89.001434 201.020394 89.001434 L 193.24956 89.001434 C 192.504768 89.001434 191.817268 88.746226 191.176643 88.235809 C 190.541226 87.720184 190.223518 87.063934 190.223518 86.267059 L 190.223518 70.704558 L 178.848517 54.438932 C 178.431851 54.152474 178.223517 53.657682 178.223517 52.954557 C 178.223517 52.220182 178.473517 51.636848 178.963101 51.204557 C 179.463101 50.767057 180.015184 50.548307 180.614143 50.548307 L 189.358935 50.548307 C 189.614143 50.548307 189.921435 50.610807 190.270393 50.72539 C 190.62456 50.834765 190.911018 51.079557 191.129768 51.464973 L 197.129769 60.194141 L 203.468311 51.464973 C 203.879769 50.855598 204.379769 50.548307 204.957894 50.548307 L 213.640186 50.548307 C 214.280811 50.548307 214.838103 50.767057 215.31727 51.204557 C 215.801645 51.636848 216.041228 52.220182 216.041228 52.954557 C 216.041228 53.272265 215.989145 53.56914 215.87977 53.845182 C 215.770395 54.116015 215.62977 54.313932 215.468311 54.438932 Z M 215.468311 54.438932 " stroke="#5271ff" stroke-width="9" stroke-opacity="1" stroke-miterlimit="4"/><g fill="#5271ff" fill-opacity="1"><g transform="translate(125.176118, 207.487208)"><g><path d="M 27.46875 -3.03125 C 27.582031 -2.5 27.53125 -1.972656 27.3125 -1.453125 C 27.101562 -0.941406 26.757812 -0.550781 26.28125 -0.28125 C 25.96875 -0.09375 25.609375 0 25.203125 0 L 20.296875 0 C 19.628906 0 19.125 -0.203125 18.78125 -0.609375 C 18.445312 -1.015625 18.148438 -1.554688 17.890625 -2.234375 L 16.8125 -5.046875 L 11.296875 -5.046875 L 10.265625 -2.234375 C 9.992188 -1.554688 9.691406 -1.019531 9.359375 -0.625 C 9.023438 -0.226562 8.519531 -0.03125 7.84375 -0.03125 L 2.953125 -0.03125 C 2.566406 -0.03125 2.253906 -0.09375 2.015625 -0.21875 C 1.484375 -0.457031 1.09375 -0.847656 0.84375 -1.390625 C 0.59375 -1.929688 0.539062 -2.488281 0.6875 -3.0625 L 7.15625 -26.859375 C 7.226562 -27.191406 7.351562 -27.46875 7.53125 -27.6875 C 7.71875 -27.90625 7.894531 -28.070312 8.0625 -28.1875 C 8.445312 -28.5 8.914062 -28.65625 9.46875 -28.65625 L 18.90625 -28.65625 C 19.164062 -28.65625 19.453125 -28.609375 19.765625 -28.515625 C 20.078125 -28.421875 20.363281 -28.238281 20.625 -27.96875 C 20.894531 -27.6875 21.070312 -27.394531 21.15625 -27.09375 C 21.238281 -26.789062 21.300781 -26.53125 21.34375 -26.3125 Z M 15.765625 -13.359375 C 15.929688 -13.359375 16.0625 -13.425781 16.15625 -13.5625 C 16.257812 -13.707031 16.285156 -13.867188 16.234375 -14.046875 L 15.296875 -16.484375 L 14.546875 -18.359375 C 14.472656 -18.597656 14.316406 -18.71875 14.078125 -18.71875 C 13.835938 -18.71875 13.679688 -18.597656 13.609375 -18.359375 L 12.890625 -16.484375 L 11.953125 -14.046875 C 11.859375 -13.867188 11.867188 -13.707031 11.984375 -13.5625 C 12.109375 -13.425781 12.253906 -13.359375 12.421875 -13.359375 Z M 15.765625 -13.359375 "/></g></g></g><g fill="#5271ff" fill-opacity="1"><g transform="translate(152.60817, 207.487208)"><g><path d="M 13.46875 -28.765625 C 14.882812 -28.765625 16.195312 -28.5 17.40625 -27.96875 C 18.613281 -27.445312 19.664062 -26.726562 20.5625 -25.8125 C 21.46875 -24.894531 22.171875 -23.835938 22.671875 -22.640625 C 23.179688 -21.441406 23.4375 -20.160156 23.4375 -18.796875 L 23.4375 -10.109375 C 23.4375 -8.742188 23.179688 -7.460938 22.671875 -6.265625 C 22.171875 -5.066406 21.46875 -4.003906 20.5625 -3.078125 C 19.664062 -2.148438 18.613281 -1.421875 17.40625 -0.890625 C 16.195312 -0.367188 14.882812 -0.109375 13.46875 -0.109375 L 3.78125 -0.109375 C 3.03125 -0.109375 2.410156 -0.382812 1.921875 -0.9375 C 1.429688 -1.488281 1.1875 -2.085938 1.1875 -2.734375 L 1.1875 -26.171875 C 1.1875 -26.847656 1.429688 -27.445312 1.921875 -27.96875 C 2.410156 -28.5 3.03125 -28.765625 3.78125 -28.765625 Z M 14.65625 -13.578125 L 14.65625 -15.296875 C 14.65625 -16.066406 14.40625 -16.695312 13.90625 -17.1875 C 13.414062 -17.675781 12.800781 -17.921875 12.0625 -17.921875 L 10.328125 -17.921875 C 10.210938 -17.921875 10.097656 -17.867188 9.984375 -17.765625 C 9.878906 -17.660156 9.828125 -17.488281 9.828125 -17.25 L 9.828125 -11.625 C 9.828125 -11.40625 9.878906 -11.25 9.984375 -11.15625 C 10.097656 -11.0625 10.210938 -11.015625 10.328125 -11.015625 L 12.0625 -11.015625 C 12.800781 -11.015625 13.414062 -11.253906 13.90625 -11.734375 C 14.40625 -12.210938 14.65625 -12.828125 14.65625 -13.578125 Z M 14.65625 -13.578125 "/></g></g></g><g fill="#5271ff" fill-opacity="1"><g transform="translate(176.224214, 207.487208)"><g><path d="M 12.34375 -29.234375 C 13.851562 -29.234375 15.3125 -28.957031 16.71875 -28.40625 C 18.125 -27.851562 19.378906 -27.085938 20.484375 -26.109375 C 21.585938 -25.140625 22.460938 -24.003906 23.109375 -22.703125 C 23.753906 -21.410156 24.078125 -20.023438 24.078125 -18.546875 L 24.078125 -10.328125 C 24.078125 -8.796875 23.753906 -7.363281 23.109375 -6.03125 C 22.460938 -4.695312 21.585938 -3.53125 20.484375 -2.53125 C 19.378906 -1.539062 18.125 -0.769531 16.71875 -0.21875 C 15.3125 0.332031 13.851562 0.609375 12.34375 0.609375 C 10.882812 0.609375 9.453125 0.332031 8.046875 -0.21875 C 6.640625 -0.769531 5.378906 -1.539062 4.265625 -2.53125 C 3.148438 -3.53125 2.257812 -4.695312 1.59375 -6.03125 C 0.9375 -7.363281 0.609375 -8.796875 0.609375 -10.328125 L 0.609375 -18.546875 C 0.609375 -20.023438 0.9375 -21.410156 1.59375 -22.703125 C 2.257812 -24.003906 3.148438 -25.140625 4.265625 -26.109375 C 5.378906 -27.085938 6.640625 -27.851562 8.046875 -28.40625 C 9.453125 -28.957031 10.882812 -29.234375 12.34375 -29.234375 Z M 14.765625 -10.6875 L 14.765625 -17.890625 C 14.765625 -18.535156 14.519531 -19.09375 14.03125 -19.5625 C 13.550781 -20.03125 12.988281 -20.265625 12.34375 -20.265625 C 11.675781 -20.265625 11.113281 -20.03125 10.65625 -19.5625 C 10.195312 -19.09375 9.96875 -18.535156 9.96875 -17.890625 L 9.96875 -10.6875 C 9.96875 -10.09375 10.195312 -9.5625 10.65625 -9.09375 C 11.113281 -8.625 11.675781 -8.390625 12.34375 -8.390625 C 12.988281 -8.390625 13.550781 -8.625 14.03125 -9.09375 C 14.519531 -9.5625 14.765625 -10.09375 14.765625 -10.6875 Z M 14.765625 -10.6875 "/></g></g></g><g fill="#5271ff" fill-opacity="1"><g transform="translate(200.200266, 207.487208)"><g><path d="M 21.28125 -24.375 C 21.46875 -23.769531 21.613281 -23.046875 21.71875 -22.203125 C 21.832031 -21.367188 21.890625 -20.425781 21.890625 -19.375 C 21.890625 -17.300781 21.632812 -15.617188 21.125 -14.328125 C 20.625 -13.035156 20.070312 -12.023438 19.46875 -11.296875 C 18.46875 -10.097656 17.160156 -9.5 15.546875 -9.5 L 10.546875 -9.5 L 10.546875 -2.921875 C 10.546875 -2.128906 10.269531 -1.457031 9.71875 -0.90625 C 9.164062 -0.351562 8.503906 -0.078125 7.734375 -0.078125 L 4 -0.078125 C 3.226562 -0.078125 2.566406 -0.351562 2.015625 -0.90625 C 1.460938 -1.457031 1.1875 -2.128906 1.1875 -2.921875 L 1.1875 -25.890625 C 1.1875 -26.648438 1.460938 -27.3125 2.015625 -27.875 C 2.566406 -28.445312 3.226562 -28.734375 4 -28.734375 L 15.40625 -28.734375 C 16.75 -28.734375 17.96875 -28.328125 19.0625 -27.515625 C 20.15625 -26.710938 20.894531 -25.664062 21.28125 -24.375 Z M 13.828125 -19.4375 C 13.828125 -20.007812 13.617188 -20.507812 13.203125 -20.9375 C 12.796875 -21.375 12.296875 -21.59375 11.703125 -21.59375 L 11.015625 -21.59375 C 10.867188 -21.59375 10.753906 -21.539062 10.671875 -21.4375 C 10.585938 -21.332031 10.546875 -21.21875 10.546875 -21.09375 L 10.546875 -17.203125 C 10.546875 -16.921875 10.703125 -16.78125 11.015625 -16.78125 L 11.703125 -16.78125 C 12.296875 -16.78125 12.796875 -16.988281 13.203125 -17.40625 C 13.617188 -17.820312 13.828125 -18.332031 13.828125 -18.9375 Z M 13.828125 -19.4375 "/></g></g></g><g fill="#5271ff" fill-opacity="1"><g transform="translate(221.980311, 207.487208)"><g><path d="M 24.125 -28.796875 C 24.8125 -28.796875 25.398438 -28.550781 25.890625 -28.0625 C 26.390625 -27.570312 26.640625 -26.976562 26.640625 -26.28125 L 26.640625 -21.34375 C 26.640625 -20.675781 26.390625 -20.085938 25.890625 -19.578125 C 25.398438 -19.078125 24.8125 -18.828125 24.125 -18.828125 L 19.1875 -18.828125 C 19 -18.828125 18.90625 -18.742188 18.90625 -18.578125 L 18.90625 -2.453125 C 18.90625 -1.773438 18.65625 -1.179688 18.15625 -0.671875 C 17.664062 -0.171875 17.070312 0.078125 16.375 0.078125 L 11.484375 0.078125 C 10.765625 0.078125 10.15625 -0.171875 9.65625 -0.671875 C 9.164062 -1.179688 8.921875 -1.773438 8.921875 -2.453125 L 8.921875 -18.578125 C 8.921875 -18.742188 8.835938 -18.828125 8.671875 -18.828125 L 3.703125 -18.828125 C 3.035156 -18.828125 2.445312 -19.078125 1.9375 -19.578125 C 1.4375 -20.085938 1.1875 -20.675781 1.1875 -21.34375 L 1.1875 -26.28125 C 1.1875 -26.976562 1.4375 -27.570312 1.9375 -28.0625 C 2.445312 -28.550781 3.035156 -28.796875 3.703125 -28.796875 Z M 24.125 -28.796875 "/></g></g></g><g fill="#5271ff" fill-opacity="1"><g transform="translate(136.461273, 243.487206)"><g><path d="M 11.234375 -20.984375 C 11.160156 -20.984375 11.097656 -20.945312 11.046875 -20.875 C 11.003906 -20.800781 10.984375 -20.742188 10.984375 -20.703125 L 10.984375 -18.328125 C 10.984375 -18.179688 11.066406 -18.109375 11.234375 -18.109375 L 16.53125 -18.109375 C 17.007812 -18.109375 17.414062 -17.9375 17.75 -17.59375 C 18.082031 -17.257812 18.25 -16.851562 18.25 -16.375 L 18.25 -12.453125 C 18.25 -11.972656 18.082031 -11.566406 17.75 -11.234375 C 17.414062 -10.898438 17.007812 -10.734375 16.53125 -10.734375 L 11.234375 -10.734375 C 11.066406 -10.734375 10.984375 -10.644531 10.984375 -10.46875 L 10.984375 -8.171875 C 10.984375 -8.003906 11.066406 -7.921875 11.234375 -7.921875 L 18.546875 -7.921875 C 19.066406 -7.921875 19.515625 -7.726562 19.890625 -7.34375 C 20.265625 -6.957031 20.453125 -6.5 20.453125 -5.96875 L 20.453125 -1.9375 C 20.453125 -1.414062 20.265625 -0.972656 19.890625 -0.609375 C 19.515625 -0.253906 19.066406 -0.078125 18.546875 -0.078125 L 3.8125 -0.078125 C 3.070312 -0.078125 2.445312 -0.359375 1.9375 -0.921875 C 1.4375 -1.484375 1.1875 -2.289062 1.1875 -3.34375 L 1.1875 -26.78125 C 1.1875 -27.1875 1.4375 -27.617188 1.9375 -28.078125 C 2.445312 -28.535156 3.070312 -28.765625 3.8125 -28.765625 L 18.546875 -28.765625 C 19.066406 -28.765625 19.515625 -28.582031 19.890625 -28.21875 C 20.265625 -27.863281 20.453125 -27.421875 20.453125 -26.890625 L 20.453125 -22.859375 C 20.453125 -22.359375 20.265625 -21.921875 19.890625 -21.546875 C 19.515625 -21.171875 19.066406 -20.984375 18.546875 -20.984375 Z M 11.234375 -20.984375 "/></g></g></g><g fill="#5271ff" fill-opacity="1"><g transform="translate(157.377312, 243.487206)"><g><path d="M 27.46875 -3.03125 C 27.582031 -2.5 27.53125 -1.972656 27.3125 -1.453125 C 27.101562 -0.941406 26.757812 -0.550781 26.28125 -0.28125 C 25.96875 -0.09375 25.609375 0 25.203125 0 L 20.296875 0 C 19.628906 0 19.125 -0.203125 18.78125 -0.609375 C 18.445312 -1.015625 18.148438 -1.554688 17.890625 -2.234375 L 16.8125 -5.046875 L 11.296875 -5.046875 L 10.265625 -2.234375 C 9.992188 -1.554688 9.691406 -1.019531 9.359375 -0.625 C 9.023438 -0.226562 8.519531 -0.03125 7.84375 -0.03125 L 2.953125 -0.03125 C 2.566406 -0.03125 2.253906 -0.09375 2.015625 -0.21875 C 1.484375 -0.457031 1.09375 -0.847656 0.84375 -1.390625 C 0.59375 -1.929688 0.539062 -2.488281 0.6875 -3.0625 L 7.15625 -26.859375 C 7.226562 -27.191406 7.351562 -27.46875 7.53125 -27.6875 C 7.71875 -27.90625 7.894531 -28.070312 8.0625 -28.1875 C 8.445312 -28.5 8.914062 -28.65625 9.46875 -28.65625 L 18.90625 -28.65625 C 19.164062 -28.65625 19.453125 -28.609375 19.765625 -28.515625 C 20.078125 -28.421875 20.363281 -28.238281 20.625 -27.96875 C 20.894531 -27.6875 21.070312 -27.394531 21.15625 -27.09375 C 21.238281 -26.789062 21.300781 -26.53125 21.34375 -26.3125 Z M 15.765625 -13.359375 C 15.929688 -13.359375 16.0625 -13.425781 16.15625 -13.5625 C 16.257812 -13.707031 16.285156 -13.867188 16.234375 -14.046875 L 15.296875 -16.484375 L 14.546875 -18.359375 C 14.472656 -18.597656 14.316406 -18.71875 14.078125 -18.71875 C 13.835938 -18.71875 13.679688 -18.597656 13.609375 -18.359375 L 12.890625 -16.484375 L 11.953125 -14.046875 C 11.859375 -13.867188 11.867188 -13.707031 11.984375 -13.5625 C 12.109375 -13.425781 12.253906 -13.359375 12.421875 -13.359375 Z M 15.765625 -13.359375 "/></g></g></g><g fill="#5271ff" fill-opacity="1"><g transform="translate(184.809365, 243.487206)"><g><path d="M 12.59375 -30.09375 C 14.445312 -30.09375 16.015625 -29.890625 17.296875 -29.484375 C 18.578125 -29.078125 19.640625 -28.554688 20.484375 -27.921875 C 21.328125 -27.285156 21.988281 -26.601562 22.46875 -25.875 C 22.945312 -25.15625 23.300781 -24.472656 23.53125 -23.828125 C 23.757812 -23.179688 23.90625 -22.664062 23.96875 -22.28125 C 24.019531 -22.019531 23.984375 -21.796875 23.859375 -21.609375 C 23.742188 -21.429688 23.59375 -21.332031 23.40625 -21.3125 L 14.578125 -20.09375 C 14.171875 -20.09375 13.894531 -20.296875 13.75 -20.703125 C 13.582031 -21.179688 13.296875 -21.535156 12.890625 -21.765625 C 12.484375 -21.992188 12.132812 -22.109375 11.84375 -22.109375 C 11.457031 -22.109375 11.03125 -21.941406 10.5625 -21.609375 C 10.09375 -21.285156 9.859375 -20.78125 9.859375 -20.09375 C 9.859375 -19.507812 10.019531 -19.078125 10.34375 -18.796875 C 10.675781 -18.523438 11.054688 -18.347656 11.484375 -18.265625 C 11.910156 -18.179688 12.28125 -18.140625 12.59375 -18.140625 C 13.195312 -18.140625 13.976562 -18.132812 14.9375 -18.125 C 15.894531 -18.113281 16.90625 -17.992188 17.96875 -17.765625 C 19.039062 -17.535156 20.050781 -17.113281 21 -16.5 C 21.945312 -15.894531 22.722656 -15 23.328125 -13.8125 C 23.929688 -12.625 24.234375 -11.054688 24.234375 -9.109375 C 24.234375 -7.140625 23.910156 -5.484375 23.265625 -4.140625 C 22.628906 -2.796875 21.800781 -1.726562 20.78125 -0.9375 C 19.769531 -0.144531 18.660156 0.421875 17.453125 0.765625 C 16.253906 1.117188 15.09375 1.296875 13.96875 1.296875 C 11.707031 1.296875 9.820312 1.070312 8.3125 0.625 C 6.800781 0.1875 5.554688 -0.414062 4.578125 -1.1875 C 3.609375 -1.957031 2.835938 -2.820312 2.265625 -3.78125 C 1.691406 -4.738281 1.222656 -5.734375 0.859375 -6.765625 C 0.546875 -7.316406 0.664062 -7.65625 1.21875 -7.78125 L 10.875 -8.921875 C 11.132812 -8.972656 11.316406 -8.960938 11.421875 -8.890625 C 11.535156 -8.816406 11.613281 -8.707031 11.65625 -8.5625 C 11.851562 -7.84375 12.148438 -7.394531 12.546875 -7.21875 C 12.941406 -7.039062 13.285156 -6.953125 13.578125 -6.953125 C 14.078125 -6.953125 14.53125 -7.132812 14.9375 -7.5 C 15.34375 -7.875 15.546875 -8.347656 15.546875 -8.921875 C 15.546875 -9.523438 15.335938 -9.992188 14.921875 -10.328125 C 14.503906 -10.671875 13.992188 -10.84375 13.390625 -10.84375 L 11.234375 -10.84375 C 9.210938 -10.84375 7.398438 -11.222656 5.796875 -11.984375 C 4.191406 -12.753906 2.925781 -13.875 2 -15.34375 C 1.070312 -16.820312 0.609375 -18.609375 0.609375 -20.703125 C 0.609375 -22.378906 0.882812 -23.773438 1.4375 -24.890625 C 1.988281 -26.003906 2.707031 -26.90625 3.59375 -27.59375 C 4.488281 -28.28125 5.4375 -28.800781 6.4375 -29.15625 C 7.445312 -29.519531 8.40625 -29.757812 9.3125 -29.875 C 10.226562 -30 10.984375 -30.066406 11.578125 -30.078125 C 12.179688 -30.085938 12.519531 -30.09375 12.59375 -30.09375 Z M 12.59375 -30.09375 "/></g></g></g><g fill="#5271ff" fill-opacity="1"><g transform="translate(208.929418, 243.487206)"><g><path d="M 28.546875 -25.921875 L 20.015625 -13.71875 L 20.015625 -2.046875 C 20.015625 -1.453125 19.769531 -0.960938 19.28125 -0.578125 C 18.789062 -0.191406 18.269531 0 17.71875 0 L 11.875 0 C 11.320312 0 10.804688 -0.191406 10.328125 -0.578125 C 9.847656 -0.960938 9.609375 -1.453125 9.609375 -2.046875 L 9.609375 -13.71875 L 1.078125 -25.921875 C 0.765625 -26.140625 0.609375 -26.507812 0.609375 -27.03125 C 0.609375 -27.582031 0.796875 -28.019531 1.171875 -28.34375 C 1.546875 -28.675781 1.957031 -28.84375 2.40625 -28.84375 L 8.96875 -28.84375 C 9.15625 -28.84375 9.378906 -28.796875 9.640625 -28.703125 C 9.910156 -28.617188 10.128906 -28.4375 10.296875 -28.15625 L 14.796875 -21.59375 L 19.546875 -28.15625 C 19.859375 -28.613281 20.226562 -28.84375 20.65625 -28.84375 L 27.1875 -28.84375 C 27.664062 -28.84375 28.082031 -28.675781 28.4375 -28.34375 C 28.800781 -28.019531 28.984375 -27.582031 28.984375 -27.03125 C 28.984375 -26.789062 28.941406 -26.566406 28.859375 -26.359375 C 28.773438 -26.160156 28.671875 -26.015625 28.546875 -25.921875 Z M 28.546875 -25.921875 "/></g></g></g><path fill="#5271ff" d="M 90.429688 260.511719 C 90.429688 260.761719 90.382812 261 90.289062 261.230469 C 90.195312 261.460938 90.058594 261.664062 89.882812 261.839844 C 89.707031 262.015625 89.503906 262.148438 89.273438 262.246094 C 89.042969 262.339844 88.804688 262.386719 88.554688 262.386719 C 88.308594 262.386719 88.070312 262.339844 87.839844 262.246094 C 87.609375 262.148438 87.40625 262.015625 87.230469 261.839844 C 87.054688 261.664062 86.917969 261.460938 86.824219 261.230469 C 86.730469 261 86.679688 260.761719 86.679688 260.511719 C 86.679688 260.261719 86.730469 260.023438 86.824219 259.792969 C 86.917969 259.566406 87.054688 259.363281 87.230469 259.1875 C 87.40625 259.011719 87.609375 258.875 87.839844 258.78125 C 88.070312 258.683594 88.308594 258.636719 88.554688 258.636719 C 88.804688 258.636719 89.042969 258.683594 89.273438 258.78125 C 89.503906 258.875 89.707031 259.011719 89.882812 259.1875 C 90.058594 259.363281 90.195312 259.566406 90.289062 259.792969 C 90.382812 260.023438 90.429688 260.261719 90.429688 260.511719 Z M 90.429688 260.511719 " fill-opacity="1" fill-rule="nonzero"/><g fill="#5271ff" fill-opacity="1"><g transform="translate(101.728218, 263.88719)"><g><path d="M 1.015625 0.09375 C 0.816406 0.09375 0.660156 0.0507812 0.546875 -0.03125 C 0.429688 -0.125 0.359375 -0.242188 0.328125 -0.390625 C 0.304688 -0.535156 0.335938 -0.703125 0.421875 -0.890625 L 3.59375 -7.90625 C 3.695312 -8.132812 3.820312 -8.300781 3.96875 -8.40625 C 4.113281 -8.507812 4.28125 -8.5625 4.46875 -8.5625 C 4.65625 -8.5625 4.820312 -8.507812 4.96875 -8.40625 C 5.125 -8.300781 5.253906 -8.132812 5.359375 -7.90625 L 8.53125 -0.890625 C 8.613281 -0.703125 8.644531 -0.53125 8.625 -0.375 C 8.601562 -0.226562 8.535156 -0.113281 8.421875 -0.03125 C 8.304688 0.0507812 8.160156 0.09375 7.984375 0.09375 C 7.753906 0.09375 7.578125 0.0390625 7.453125 -0.0625 C 7.328125 -0.175781 7.21875 -0.34375 7.125 -0.5625 L 6.34375 -2.375 L 7 -1.953125 L 1.9375 -1.953125 L 2.578125 -2.375 L 1.8125 -0.5625 C 1.707031 -0.332031 1.597656 -0.164062 1.484375 -0.0625 C 1.367188 0.0390625 1.210938 0.09375 1.015625 0.09375 Z M 4.453125 -6.796875 L 2.765625 -2.796875 L 2.453125 -3.1875 L 6.46875 -3.1875 L 6.171875 -2.796875 L 4.46875 -6.796875 Z M 4.453125 -6.796875 "/></g></g></g><g fill="#5271ff" fill-opacity="1"><g transform="translate(116.548232, 263.88719)"><g><path d="M 1.734375 0 C 1.472656 0 1.269531 -0.0664062 1.125 -0.203125 C 0.988281 -0.347656 0.921875 -0.550781 0.921875 -0.8125 L 0.921875 -7.640625 C 0.921875 -7.910156 0.988281 -8.113281 1.125 -8.25 C 1.269531 -8.382812 1.472656 -8.453125 1.734375 -8.453125 L 4.0625 -8.453125 C 5.476562 -8.453125 6.570312 -8.085938 7.34375 -7.359375 C 8.125 -6.640625 8.515625 -5.597656 8.515625 -4.234375 C 8.515625 -3.554688 8.414062 -2.953125 8.21875 -2.421875 C 8.019531 -1.898438 7.726562 -1.457031 7.34375 -1.09375 C 6.96875 -0.738281 6.503906 -0.46875 5.953125 -0.28125 C 5.410156 -0.09375 4.78125 0 4.0625 0 Z M 2.453125 -1.265625 L 3.96875 -1.265625 C 4.46875 -1.265625 4.898438 -1.328125 5.265625 -1.453125 C 5.628906 -1.578125 5.929688 -1.757812 6.171875 -2 C 6.421875 -2.25 6.601562 -2.554688 6.71875 -2.921875 C 6.84375 -3.296875 6.90625 -3.734375 6.90625 -4.234375 C 6.90625 -5.222656 6.660156 -5.960938 6.171875 -6.453125 C 5.679688 -6.941406 4.945312 -7.1875 3.96875 -7.1875 L 2.453125 -7.1875 Z M 2.453125 -1.265625 "/></g></g></g><g fill="#5271ff" fill-opacity="1"><g transform="translate(131.584255, 263.88719)"><g><path d="M 4.71875 0.125 C 3.894531 0.125 3.175781 -0.0507812 2.5625 -0.40625 C 1.957031 -0.769531 1.484375 -1.28125 1.140625 -1.9375 C 0.804688 -2.59375 0.640625 -3.359375 0.640625 -4.234375 C 0.640625 -4.898438 0.734375 -5.5 0.921875 -6.03125 C 1.117188 -6.5625 1.394531 -7.015625 1.75 -7.390625 C 2.113281 -7.773438 2.546875 -8.066406 3.046875 -8.265625 C 3.546875 -8.472656 4.101562 -8.578125 4.71875 -8.578125 C 5.539062 -8.578125 6.253906 -8.398438 6.859375 -8.046875 C 7.472656 -7.691406 7.945312 -7.1875 8.28125 -6.53125 C 8.613281 -5.882812 8.78125 -5.125 8.78125 -4.25 C 8.78125 -3.582031 8.679688 -2.976562 8.484375 -2.4375 C 8.296875 -1.90625 8.023438 -1.445312 7.671875 -1.0625 C 7.316406 -0.675781 6.890625 -0.378906 6.390625 -0.171875 C 5.890625 0.0234375 5.332031 0.125 4.71875 0.125 Z M 4.71875 -1.203125 C 5.238281 -1.203125 5.679688 -1.320312 6.046875 -1.5625 C 6.410156 -1.800781 6.6875 -2.144531 6.875 -2.59375 C 7.070312 -3.050781 7.171875 -3.597656 7.171875 -4.234375 C 7.171875 -5.191406 6.957031 -5.9375 6.53125 -6.46875 C 6.101562 -7 5.5 -7.265625 4.71875 -7.265625 C 4.207031 -7.265625 3.765625 -7.144531 3.390625 -6.90625 C 3.023438 -6.664062 2.742188 -6.320312 2.546875 -5.875 C 2.347656 -5.425781 2.25 -4.878906 2.25 -4.234375 C 2.25 -3.285156 2.460938 -2.539062 2.890625 -2 C 3.328125 -1.46875 3.9375 -1.203125 4.71875 -1.203125 Z M 4.71875 -1.203125 "/></g></g></g><g fill="#5271ff" fill-opacity="1"><g transform="translate(146.896274, 263.88719)"><g><path d="M 3.734375 0.09375 C 3.484375 0.09375 3.289062 0.0234375 3.15625 -0.109375 C 3.03125 -0.253906 2.96875 -0.453125 2.96875 -0.703125 L 2.96875 -7.171875 L 0.625 -7.171875 C 0.414062 -7.171875 0.253906 -7.226562 0.140625 -7.34375 C 0.0234375 -7.46875 -0.03125 -7.628906 -0.03125 -7.828125 C -0.03125 -8.035156 0.0234375 -8.191406 0.140625 -8.296875 C 0.253906 -8.398438 0.414062 -8.453125 0.625 -8.453125 L 6.84375 -8.453125 C 7.050781 -8.453125 7.210938 -8.398438 7.328125 -8.296875 C 7.441406 -8.191406 7.5 -8.035156 7.5 -7.828125 C 7.5 -7.628906 7.441406 -7.46875 7.328125 -7.34375 C 7.210938 -7.226562 7.050781 -7.171875 6.84375 -7.171875 L 4.5 -7.171875 L 4.5 -0.703125 C 4.5 -0.453125 4.429688 -0.253906 4.296875 -0.109375 C 4.171875 0.0234375 3.984375 0.09375 3.734375 0.09375 Z M 3.734375 0.09375 "/></g></g></g><g fill="#5271ff" fill-opacity="1"><g transform="translate(160.240287, 263.88719)"><g><path d="M 3.734375 0.09375 C 3.484375 0.09375 3.289062 0.0234375 3.15625 -0.109375 C 3.03125 -0.253906 2.96875 -0.453125 2.96875 -0.703125 L 2.96875 -7.171875 L 0.625 -7.171875 C 0.414062 -7.171875 0.253906 -7.226562 0.140625 -7.34375 C 0.0234375 -7.46875 -0.03125 -7.628906 -0.03125 -7.828125 C -0.03125 -8.035156 0.0234375 -8.191406 0.140625 -8.296875 C 0.253906 -8.398438 0.414062 -8.453125 0.625 -8.453125 L 6.84375 -8.453125 C 7.050781 -8.453125 7.210938 -8.398438 7.328125 -8.296875 C 7.441406 -8.191406 7.5 -8.035156 7.5 -7.828125 C 7.5 -7.628906 7.441406 -7.46875 7.328125 -7.34375 C 7.210938 -7.226562 7.050781 -7.171875 6.84375 -7.171875 L 4.5 -7.171875 L 4.5 -0.703125 C 4.5 -0.453125 4.429688 -0.253906 4.296875 -0.109375 C 4.171875 0.0234375 3.984375 0.09375 3.734375 0.09375 Z M 3.734375 0.09375 "/></g></g></g><g fill="#5271ff" fill-opacity="1"><g transform="translate(173.584304, 263.88719)"><g><path d="M 1.015625 0.09375 C 0.816406 0.09375 0.660156 0.0507812 0.546875 -0.03125 C 0.429688 -0.125 0.359375 -0.242188 0.328125 -0.390625 C 0.304688 -0.535156 0.335938 -0.703125 0.421875 -0.890625 L 3.59375 -7.90625 C 3.695312 -8.132812 3.820312 -8.300781 3.96875 -8.40625 C 4.113281 -8.507812 4.28125 -8.5625 4.46875 -8.5625 C 4.65625 -8.5625 4.820312 -8.507812 4.96875 -8.40625 C 5.125 -8.300781 5.253906 -8.132812 5.359375 -7.90625 L 8.53125 -0.890625 C 8.613281 -0.703125 8.644531 -0.53125 8.625 -0.375 C 8.601562 -0.226562 8.535156 -0.113281 8.421875 -0.03125 C 8.304688 0.0507812 8.160156 0.09375 7.984375 0.09375 C 7.753906 0.09375 7.578125 0.0390625 7.453125 -0.0625 C 7.328125 -0.175781 7.21875 -0.34375 7.125 -0.5625 L 6.34375 -2.375 L 7 -1.953125 L 1.9375 -1.953125 L 2.578125 -2.375 L 1.8125 -0.5625 C 1.707031 -0.332031 1.597656 -0.164062 1.484375 -0.0625 C 1.367188 0.0390625 1.210938 0.09375 1.015625 0.09375 Z M 4.453125 -6.796875 L 2.765625 -2.796875 L 2.453125 -3.1875 L 6.46875 -3.1875 L 6.171875 -2.796875 L 4.46875 -6.796875 Z M 4.453125 -6.796875 "/></g></g></g><g fill="#5271ff" fill-opacity="1"><g transform="translate(188.404321, 263.88719)"><g><path d="M 1.6875 1.28125 C 1.582031 1.40625 1.472656 1.476562 1.359375 1.5 C 1.242188 1.519531 1.140625 1.5 1.046875 1.4375 C 0.960938 1.375 0.914062 1.285156 0.90625 1.171875 C 0.90625 1.054688 0.957031 0.929688 1.0625 0.796875 C 1.226562 0.585938 1.335938 0.382812 1.390625 0.1875 C 1.441406 -0.0078125 1.46875 -0.1875 1.46875 -0.34375 L 1.53125 0.0625 C 1.25 0.0625 1.019531 -0.0195312 0.84375 -0.1875 C 0.675781 -0.351562 0.59375 -0.570312 0.59375 -0.84375 C 0.59375 -1.09375 0.671875 -1.300781 0.828125 -1.46875 C 0.992188 -1.632812 1.210938 -1.71875 1.484375 -1.71875 C 1.765625 -1.71875 1.984375 -1.625 2.140625 -1.4375 C 2.304688 -1.25 2.390625 -0.976562 2.390625 -0.625 C 2.390625 -0.4375 2.367188 -0.238281 2.328125 -0.03125 C 2.296875 0.175781 2.226562 0.390625 2.125 0.609375 C 2.03125 0.828125 1.882812 1.050781 1.6875 1.28125 Z M 1.6875 1.28125 "/></g></g></g><g fill="#5271ff" fill-opacity="1"><g transform="translate(197.272325, 263.88719)"><g><path d="M 1.015625 0.09375 C 0.816406 0.09375 0.660156 0.0507812 0.546875 -0.03125 C 0.429688 -0.125 0.359375 -0.242188 0.328125 -0.390625 C 0.304688 -0.535156 0.335938 -0.703125 0.421875 -0.890625 L 3.59375 -7.90625 C 3.695312 -8.132812 3.820312 -8.300781 3.96875 -8.40625 C 4.113281 -8.507812 4.28125 -8.5625 4.46875 -8.5625 C 4.65625 -8.5625 4.820312 -8.507812 4.96875 -8.40625 C 5.125 -8.300781 5.253906 -8.132812 5.359375 -7.90625 L 8.53125 -0.890625 C 8.613281 -0.703125 8.644531 -0.53125 8.625 -0.375 C 8.601562 -0.226562 8.535156 -0.113281 8.421875 -0.03125 C 8.304688 0.0507812 8.160156 0.09375 7.984375 0.09375 C 7.753906 0.09375 7.578125 0.0390625 7.453125 -0.0625 C 7.328125 -0.175781 7.21875 -0.34375 7.125 -0.5625 L 6.34375 -2.375 L 7 -1.953125 L 1.9375 -1.953125 L 2.578125 -2.375 L 1.8125 -0.5625 C 1.707031 -0.332031 1.597656 -0.164062 1.484375 -0.0625 C 1.367188 0.0390625 1.210938 0.09375 1.015625 0.09375 Z M 4.453125 -6.796875 L 2.765625 -2.796875 L 2.453125 -3.1875 L 6.46875 -3.1875 L 6.171875 -2.796875 L 4.46875 -6.796875 Z M 4.453125 -6.796875 "/></g></g></g><g fill="#5271ff" fill-opacity="1"><g transform="translate(212.092342, 263.88719)"><g><path d="M 1.640625 0.09375 C 1.421875 0.09375 1.25 0.03125 1.125 -0.09375 C 1.007812 -0.21875 0.953125 -0.394531 0.953125 -0.625 L 0.953125 -7.84375 C 0.953125 -8.070312 1.015625 -8.25 1.140625 -8.375 C 1.265625 -8.5 1.441406 -8.5625 1.671875 -8.5625 C 1.867188 -8.5625 2.023438 -8.519531 2.140625 -8.4375 C 2.253906 -8.363281 2.359375 -8.234375 2.453125 -8.046875 L 5.421875 -2.5625 L 5.046875 -2.5625 L 8 -8.046875 C 8.09375 -8.234375 8.195312 -8.363281 8.3125 -8.4375 C 8.425781 -8.519531 8.582031 -8.5625 8.78125 -8.5625 C 9.007812 -8.5625 9.179688 -8.5 9.296875 -8.375 C 9.421875 -8.25 9.484375 -8.070312 9.484375 -7.84375 L 9.484375 -0.625 C 9.484375 -0.394531 9.421875 -0.21875 9.296875 -0.09375 C 9.179688 0.03125 9.007812 0.09375 8.78125 0.09375 C 8.5625 0.09375 8.390625 0.03125 8.265625 -0.09375 C 8.148438 -0.21875 8.09375 -0.394531 8.09375 -0.625 L 8.09375 -6.1875 L 8.359375 -6.1875 L 5.828125 -1.578125 C 5.753906 -1.441406 5.671875 -1.34375 5.578125 -1.28125 C 5.492188 -1.21875 5.375 -1.1875 5.21875 -1.1875 C 5.0625 -1.1875 4.9375 -1.21875 4.84375 -1.28125 C 4.75 -1.351562 4.664062 -1.453125 4.59375 -1.578125 L 2.046875 -6.1875 L 2.34375 -6.1875 L 2.34375 -0.625 C 2.34375 -0.394531 2.28125 -0.21875 2.15625 -0.09375 C 2.039062 0.03125 1.867188 0.09375 1.640625 0.09375 Z M 1.640625 0.09375 "/></g></g></g><g fill="#5271ff" fill-opacity="1"><g transform="translate(228.400367, 263.88719)"><g><path d="M 1.015625 0.09375 C 0.816406 0.09375 0.660156 0.0507812 0.546875 -0.03125 C 0.429688 -0.125 0.359375 -0.242188 0.328125 -0.390625 C 0.304688 -0.535156 0.335938 -0.703125 0.421875 -0.890625 L 3.59375 -7.90625 C 3.695312 -8.132812 3.820312 -8.300781 3.96875 -8.40625 C 4.113281 -8.507812 4.28125 -8.5625 4.46875 -8.5625 C 4.65625 -8.5625 4.820312 -8.507812 4.96875 -8.40625 C 5.125 -8.300781 5.253906 -8.132812 5.359375 -7.90625 L 8.53125 -0.890625 C 8.613281 -0.703125 8.644531 -0.53125 8.625 -0.375 C 8.601562 -0.226562 8.535156 -0.113281 8.421875 -0.03125 C 8.304688 0.0507812 8.160156 0.09375 7.984375 0.09375 C 7.753906 0.09375 7.578125 0.0390625 7.453125 -0.0625 C 7.328125 -0.175781 7.21875 -0.34375 7.125 -0.5625 L 6.34375 -2.375 L 7 -1.953125 L 1.9375 -1.953125 L 2.578125 -2.375 L 1.8125 -0.5625 C 1.707031 -0.332031 1.597656 -0.164062 1.484375 -0.0625 C 1.367188 0.0390625 1.210938 0.09375 1.015625 0.09375 Z M 4.453125 -6.796875 L 2.765625 -2.796875 L 2.453125 -3.1875 L 6.46875 -3.1875 L 6.171875 -2.796875 L 4.46875 -6.796875 Z M 4.453125 -6.796875 "/></g></g></g><g fill="#5271ff" fill-opacity="1"><g transform="translate(243.220385, 263.88719)"><g><path d="M 1.6875 1.28125 C 1.582031 1.40625 1.472656 1.476562 1.359375 1.5 C 1.242188 1.519531 1.140625 1.5 1.046875 1.4375 C 0.960938 1.375 0.914062 1.285156 0.90625 1.171875 C 0.90625 1.054688 0.957031 0.929688 1.0625 0.796875 C 1.226562 0.585938 1.335938 0.382812 1.390625 0.1875 C 1.441406 -0.0078125 1.46875 -0.1875 1.46875 -0.34375 L 1.53125 0.0625 C 1.25 0.0625 1.019531 -0.0195312 0.84375 -0.1875 C 0.675781 -0.351562 0.59375 -0.570312 0.59375 -0.84375 C 0.59375 -1.09375 0.671875 -1.300781 0.828125 -1.46875 C 0.992188 -1.632812 1.210938 -1.71875 1.484375 -1.71875 C 1.765625 -1.71875 1.984375 -1.625 2.140625 -1.4375 C 2.304688 -1.25 2.390625 -0.976562 2.390625 -0.625 C 2.390625 -0.4375 2.367188 -0.238281 2.328125 -0.03125 C 2.296875 0.175781 2.226562 0.390625 2.125 0.609375 C 2.03125 0.828125 1.882812 1.050781 1.6875 1.28125 Z M 1.6875 1.28125 "/></g></g></g><g fill="#5271ff" fill-opacity="1"><g transform="translate(252.088388, 263.88719)"><g><path d="M 4.28125 0.09375 C 4.0625 0.09375 3.882812 0.046875 3.75 -0.046875 C 3.613281 -0.148438 3.5 -0.300781 3.40625 -0.5 L 0.28125 -7.53125 C 0.1875 -7.738281 0.160156 -7.914062 0.203125 -8.0625 C 0.242188 -8.21875 0.328125 -8.335938 0.453125 -8.421875 C 0.578125 -8.515625 0.726562 -8.5625 0.90625 -8.5625 C 1.144531 -8.5625 1.320312 -8.507812 1.4375 -8.40625 C 1.550781 -8.300781 1.648438 -8.148438 1.734375 -7.953125 L 4.578125 -1.375 L 4.0625 -1.375 L 6.890625 -7.96875 C 6.972656 -8.15625 7.070312 -8.300781 7.1875 -8.40625 C 7.3125 -8.507812 7.484375 -8.5625 7.703125 -8.5625 C 7.878906 -8.5625 8.023438 -8.515625 8.140625 -8.421875 C 8.253906 -8.335938 8.328125 -8.21875 8.359375 -8.0625 C 8.390625 -7.914062 8.363281 -7.738281 8.28125 -7.53125 L 5.140625 -0.5 C 5.054688 -0.300781 4.945312 -0.148438 4.8125 -0.046875 C 4.6875 0.046875 4.507812 0.09375 4.28125 0.09375 Z M 4.28125 0.09375 "/></g></g></g><g fill="#5271ff" fill-opacity="1"><g transform="translate(266.536404, 263.88719)"><g><path d="M 1.6875 0.09375 C 1.4375 0.09375 1.242188 0.0234375 1.109375 -0.109375 C 0.984375 -0.253906 0.921875 -0.453125 0.921875 -0.703125 L 0.921875 -7.765625 C 0.921875 -8.015625 0.984375 -8.207031 1.109375 -8.34375 C 1.242188 -8.488281 1.4375 -8.5625 1.6875 -8.5625 C 1.9375 -8.5625 2.125 -8.488281 2.25 -8.34375 C 2.382812 -8.207031 2.453125 -8.015625 2.453125 -7.765625 L 2.453125 -0.703125 C 2.453125 -0.453125 2.390625 -0.253906 2.265625 -0.109375 C 2.140625 0.0234375 1.945312 0.09375 1.6875 0.09375 Z M 1.6875 0.09375 "/></g></g></g><g fill="#5271ff" fill-opacity="1"><g transform="translate(275.812412, 263.88719)"><g><path d="M 4.28125 0.09375 C 4.0625 0.09375 3.882812 0.046875 3.75 -0.046875 C 3.613281 -0.148438 3.5 -0.300781 3.40625 -0.5 L 0.28125 -7.53125 C 0.1875 -7.738281 0.160156 -7.914062 0.203125 -8.0625 C 0.242188 -8.21875 0.328125 -8.335938 0.453125 -8.421875 C 0.578125 -8.515625 0.726562 -8.5625 0.90625 -8.5625 C 1.144531 -8.5625 1.320312 -8.507812 1.4375 -8.40625 C 1.550781 -8.300781 1.648438 -8.148438 1.734375 -7.953125 L 4.578125 -1.375 L 4.0625 -1.375 L 6.890625 -7.96875 C 6.972656 -8.15625 7.070312 -8.300781 7.1875 -8.40625 C 7.3125 -8.507812 7.484375 -8.5625 7.703125 -8.5625 C 7.878906 -8.5625 8.023438 -8.515625 8.140625 -8.421875 C 8.253906 -8.335938 8.328125 -8.21875 8.359375 -8.0625 C 8.390625 -7.914062 8.363281 -7.738281 8.28125 -7.53125 L 5.140625 -0.5 C 5.054688 -0.300781 4.945312 -0.148438 4.8125 -0.046875 C 4.6875 0.046875 4.507812 0.09375 4.28125 0.09375 Z M 4.28125 0.09375 "/></g></g></g><g fill="#5271ff" fill-opacity="1"><g transform="translate(290.260429, 263.88719)"><g><path d="M 1.6875 0.09375 C 1.4375 0.09375 1.242188 0.0234375 1.109375 -0.109375 C 0.984375 -0.253906 0.921875 -0.453125 0.921875 -0.703125 L 0.921875 -7.765625 C 0.921875 -8.015625 0.984375 -8.207031 1.109375 -8.34375 C 1.242188 -8.488281 1.4375 -8.5625 1.6875 -8.5625 C 1.9375 -8.5625 2.125 -8.488281 2.25 -8.34375 C 2.382812 -8.207031 2.453125 -8.015625 2.453125 -7.765625 L 2.453125 -0.703125 C 2.453125 -0.453125 2.390625 -0.253906 2.265625 -0.109375 C 2.140625 0.0234375 1.945312 0.09375 1.6875 0.09375 Z M 1.6875 0.09375 "/></g></g></g><g clip-path="url(#d086f2ddd4)"><g clip-path="url(#bf214d8972)"><g clip-path="url(#e549695f28)"><path fill="#5271ff" d="M 257.441406 140.21875 C 258.304688 137.585938 258.488281 135.316406 258.011719 133.070312 C 257.429688 130.328125 256.003906 128.535156 253.769531 127.742188 C 253.132812 127.515625 252.445312 127.382812 251.6875 127.34375 C 252.476562 124.257812 252.339844 121.300781 251.273438 118.347656 C 250.4375 116.03125 248.835938 114.351562 246.769531 113.621094 C 244.703125 112.886719 242.453125 113.191406 240.429688 114.480469 C 239.703125 114.941406 239.03125 115.433594 238.398438 115.949219 C 238.234375 115.125 238.015625 114.324219 237.722656 113.566406 C 236.574219 110.5625 234.65625 109.339844 233.253906 108.839844 C 231.210938 108.117188 228.917969 108.460938 226.796875 109.8125 C 224.050781 111.554688 222.039062 113.828125 220.839844 116.46875 C 220.167969 115.921875 219.425781 115.492188 218.632812 115.210938 C 215.894531 114.238281 212.898438 115.027344 210.621094 117.3125 C 209.277344 118.660156 208.21875 120.339844 207.375 122.445312 L 207.328125 122.566406 L 207.285156 122.695312 C 206.351562 125.59375 206.136719 128.078125 206.609375 130.503906 C 207.023438 132.617188 208.027344 134.484375 209.417969 135.863281 C 208.898438 136.34375 208.425781 136.898438 208.011719 137.539062 C 205.785156 141.027344 206.199219 144.6875 206.707031 147.132812 C 207.617188 151.550781 209.910156 154.355469 213.722656 155.703125 C 214.714844 156.058594 215.792969 156.304688 217.019531 156.460938 C 221.3125 157.007812 224.703125 158.210938 227.824219 160.285156 C 228.867188 160.980469 229.878906 161.496094 230.914062 161.863281 C 232.855469 162.550781 234.796875 162.675781 236.683594 162.230469 C 241.667969 161.054688 244.207031 157.597656 245.859375 154.714844 C 246.832031 153.023438 247.1875 151.253906 246.964844 149.542969 C 248.285156 149.425781 249.605469 149 250.851562 148.265625 C 253.691406 146.589844 255.804688 144.066406 257.320312 140.546875 L 257.386719 140.386719 Z M 250.375 135.328125 C 250.402344 135.972656 250.28125 136.703125 250.003906 137.59375 C 249.175781 139.457031 248.167969 140.691406 246.84375 141.472656 C 246.492188 141.679688 246.238281 141.707031 246.128906 141.667969 C 245.96875 141.613281 245.761719 141.304688 245.691406 140.765625 C 245.574219 139.84375 246.023438 138.707031 246.929688 137.648438 C 247.984375 136.410156 249.347656 135.609375 250.375 135.328125 Z M 244.027344 121.5625 C 244.445312 123.027344 244.382812 124.449219 243.84375 126.089844 C 243.089844 127.839844 242.308594 128.320312 241.644531 128.558594 C 241.300781 128.679688 240.992188 128.703125 240.757812 128.617188 C 240.226562 128.429688 240.25 127.765625 240.285156 127.488281 C 240.589844 125.0625 241.785156 123.164062 244.027344 121.5625 Z M 230.503906 116.820312 C 231.015625 118.523438 230.929688 120.757812 230.269531 122.628906 C 230.234375 122.734375 229.878906 123.65625 228.960938 124.152344 C 228.71875 124.28125 228.5 124.304688 228.265625 124.222656 C 227.878906 124.082031 227.457031 123.652344 227.433594 122.851562 C 227.359375 120.304688 228.335938 118.371094 230.503906 116.820312 Z M 216.132812 122.960938 C 218.089844 125.851562 217.578125 127.910156 216.902344 129.394531 C 216.578125 130.105469 215.90625 130.484375 215.136719 130.394531 C 214.96875 130.300781 214.515625 129.835938 214.351562 128.992188 C 214.144531 127.941406 214.269531 126.78125 214.75 125.246094 C 215.15625 124.257812 215.609375 123.507812 216.132812 122.960938 Z M 239.019531 150.792969 C 237.671875 153.140625 236.546875 154.160156 234.871094 154.554688 C 234.621094 154.613281 234.210938 154.664062 233.550781 154.429688 C 233.140625 154.285156 232.679688 154.046875 232.191406 153.71875 C 230.117188 152.339844 227.867188 151.214844 225.5 150.375 C 223.179688 149.550781 220.734375 148.984375 218.019531 148.636719 C 217.367188 148.554688 216.804688 148.429688 216.359375 148.269531 C 215.496094 147.964844 214.855469 147.589844 214.429688 145.539062 C 213.960938 143.277344 214.285156 142.375 214.65625 141.792969 C 214.683594 141.746094 214.710938 141.710938 214.726562 141.6875 C 218.792969 141.273438 222.363281 139.640625 225.644531 136.691406 C 226.585938 135.847656 227.800781 135.191406 230.316406 136.082031 C 230.40625 136.113281 230.492188 136.148438 230.582031 136.179688 L 230.6875 136.222656 L 230.792969 136.253906 C 230.839844 136.269531 230.886719 136.285156 230.933594 136.304688 C 232.015625 136.6875 232.554688 137.277344 232.792969 138.347656 C 233.128906 139.855469 233.621094 141.84375 234.410156 143.855469 C 235.289062 146.101562 236.710938 148.144531 238.628906 149.925781 C 238.980469 150.253906 239.097656 150.464844 239.132812 150.539062 C 239.121094 150.582031 239.089844 150.664062 239.019531 150.792969 Z M 239.019531 150.792969 " fill-opacity="1" fill-rule="nonzero"/></g></g></g><g clip-path="url(#a10e748a3b)"><g clip-path="url(#692ecdeec9)"><g clip-path="url(#ce17c6780c)"><path fill="#e7ebff" d="M 232 132.5 C 234.488281 133.300781 236.085938 135.003906 236.640625 137.484375 C 237.011719 139.144531 237.445312 140.796875 238.082031 142.417969 C 238.769531 144.167969 239.867188 145.691406 241.3125 147.035156 C 243.234375 148.820312 243.5625 150.792969 242.4375 152.753906 C 240.972656 155.308594 239.148438 157.597656 235.777344 158.390625 C 233.644531 158.894531 231.671875 158.109375 230.007812 157.003906 C 226.179688 154.457031 222.058594 153.128906 217.519531 152.550781 C 213.296875 152.011719 211.351562 150.128906 210.570312 146.335938 C 210.089844 144.011719 210.023438 141.714844 211.335938 139.664062 C 212.003906 138.621094 212.949219 137.90625 214.3125 137.769531 C 217.847656 137.410156 220.617188 135.90625 223.011719 133.757812 C 225.4375 131.582031 228.378906 131.109375 232 132.5 Z M 232 132.5 " fill-opacity="1" fill-rule="evenodd"/></g></g></g><g clip-path="url(#35038d5477)"><g clip-path="url(#10a13284de)"><g clip-path="url(#c73c9df9c2)"><path fill="#e7ebff" d="M 247.535156 127.488281 C 246.710938 129.453125 245.414062 131.398438 242.972656 132.269531 C 239.273438 133.59375 235.882812 130.894531 236.375 127 C 236.886719 122.910156 239.179688 119.949219 242.546875 117.808594 C 244.644531 116.472656 246.710938 117.328125 247.566406 119.6875 C 248.457031 122.167969 248.496094 124.667969 247.535156 127.488281 Z M 247.535156 127.488281 " fill-opacity="1" fill-rule="evenodd"/></g></g></g><g clip-path="url(#5ee8eb7373)"><g clip-path="url(#6c83fea1b9)"><g clip-path="url(#1175dab75d)"><path fill="#e7ebff" d="M 233.980469 123.972656 C 233.570312 125.101562 232.59375 126.675781 230.832031 127.621094 C 227.542969 129.398438 223.605469 126.976562 223.488281 122.96875 C 223.363281 118.683594 225.351562 115.402344 228.910156 113.140625 C 231.1875 111.691406 233.074219 112.457031 234.042969 114.980469 C 234.992188 117.457031 235.066406 120.886719 233.980469 123.972656 Z M 233.980469 123.972656 " fill-opacity="1" fill-rule="evenodd"/></g></g></g><g clip-path="url(#6bc1b137d7)"><g clip-path="url(#40ae7a7932)"><g clip-path="url(#2edf92412b)"><path fill="#e7ebff" d="M 211.039062 123.90625 C 211.570312 122.578125 212.304688 121.210938 213.414062 120.097656 C 215.261719 118.242188 217.628906 118.269531 219.140625 120.378906 C 221.480469 123.632812 222.226562 127.222656 220.492188 131.03125 C 219.417969 133.386719 217.007812 134.648438 214.53125 134.289062 C 212.609375 134.015625 210.945312 132.132812 210.480469 129.75 C 210.097656 127.789062 210.394531 125.898438 211.039062 123.90625 Z M 211.039062 123.90625 " fill-opacity="1" fill-rule="evenodd"/></g></g></g><g clip-path="url(#1ab1633d14)"><g clip-path="url(#1a715dbd57)"><g clip-path="url(#edd7ab430e)"><path fill="#e7ebff" d="M 253.695312 138.988281 C 252.660156 141.394531 251.179688 143.492188 248.847656 144.871094 C 245.640625 146.757812 242.253906 144.957031 241.78125 141.265625 C 241.132812 136.191406 246.769531 131.398438 250.929688 131.273438 C 252.882812 131.210938 253.742188 131.949219 254.152344 133.886719 C 254.519531 135.617188 254.253906 137.292969 253.695312 138.988281 Z M 253.695312 138.988281 " fill-opacity="1" fill-rule="evenodd"/></g></g></g><g fill="#e7ebff" fill-opacity="1"><g transform="translate(125.176118, 205.200601)"><g><path d="M 27.46875 -3.03125 C 27.582031 -2.5 27.53125 -1.972656 27.3125 -1.453125 C 27.101562 -0.941406 26.757812 -0.550781 26.28125 -0.28125 C 25.96875 -0.09375 25.609375 0 25.203125 0 L 20.296875 0 C 19.628906 0 19.125 -0.203125 18.78125 -0.609375 C 18.445312 -1.015625 18.148438 -1.554688 17.890625 -2.234375 L 16.8125 -5.046875 L 11.296875 -5.046875 L 10.265625 -2.234375 C 9.992188 -1.554688 9.691406 -1.019531 9.359375 -0.625 C 9.023438 -0.226562 8.519531 -0.03125 7.84375 -0.03125 L 2.953125 -0.03125 C 2.566406 -0.03125 2.253906 -0.09375 2.015625 -0.21875 C 1.484375 -0.457031 1.09375 -0.847656 0.84375 -1.390625 C 0.59375 -1.929688 0.539062 -2.488281 0.6875 -3.0625 L 7.15625 -26.859375 C 7.226562 -27.191406 7.351562 -27.46875 7.53125 -27.6875 C 7.71875 -27.90625 7.894531 -28.070312 8.0625 -28.1875 C 8.445312 -28.5 8.914062 -28.65625 9.46875 -28.65625 L 18.90625 -28.65625 C 19.164062 -28.65625 19.453125 -28.609375 19.765625 -28.515625 C 20.078125 -28.421875 20.363281 -28.238281 20.625 -27.96875 C 20.894531 -27.6875 21.070312 -27.394531 21.15625 -27.09375 C 21.238281 -26.789062 21.300781 -26.53125 21.34375 -26.3125 Z M 15.765625 -13.359375 C 15.929688 -13.359375 16.0625 -13.425781 16.15625 -13.5625 C 16.257812 -13.707031 16.285156 -13.867188 16.234375 -14.046875 L 15.296875 -16.484375 L 14.546875 -18.359375 C 14.472656 -18.597656 14.316406 -18.71875 14.078125 -18.71875 C 13.835938 -18.71875 13.679688 -18.597656 13.609375 -18.359375 L 12.890625 -16.484375 L 11.953125 -14.046875 C 11.859375 -13.867188 11.867188 -13.707031 11.984375 -13.5625 C 12.109375 -13.425781 12.253906 -13.359375 12.421875 -13.359375 Z M 15.765625 -13.359375 "/></g></g></g><g fill="#e7ebff" fill-opacity="1"><g transform="translate(152.60817, 205.200601)"><g><path d="M 13.46875 -28.765625 C 14.882812 -28.765625 16.195312 -28.5 17.40625 -27.96875 C 18.613281 -27.445312 19.664062 -26.726562 20.5625 -25.8125 C 21.46875 -24.894531 22.171875 -23.835938 22.671875 -22.640625 C 23.179688 -21.441406 23.4375 -20.160156 23.4375 -18.796875 L 23.4375 -10.109375 C 23.4375 -8.742188 23.179688 -7.460938 22.671875 -6.265625 C 22.171875 -5.066406 21.46875 -4.003906 20.5625 -3.078125 C 19.664062 -2.148438 18.613281 -1.421875 17.40625 -0.890625 C 16.195312 -0.367188 14.882812 -0.109375 13.46875 -0.109375 L 3.78125 -0.109375 C 3.03125 -0.109375 2.410156 -0.382812 1.921875 -0.9375 C 1.429688 -1.488281 1.1875 -2.085938 1.1875 -2.734375 L 1.1875 -26.171875 C 1.1875 -26.847656 1.429688 -27.445312 1.921875 -27.96875 C 2.410156 -28.5 3.03125 -28.765625 3.78125 -28.765625 Z M 14.65625 -13.578125 L 14.65625 -15.296875 C 14.65625 -16.066406 14.40625 -16.695312 13.90625 -17.1875 C 13.414062 -17.675781 12.800781 -17.921875 12.0625 -17.921875 L 10.328125 -17.921875 C 10.210938 -17.921875 10.097656 -17.867188 9.984375 -17.765625 C 9.878906 -17.660156 9.828125 -17.488281 9.828125 -17.25 L 9.828125 -11.625 C 9.828125 -11.40625 9.878906 -11.25 9.984375 -11.15625 C 10.097656 -11.0625 10.210938 -11.015625 10.328125 -11.015625 L 12.0625 -11.015625 C 12.800781 -11.015625 13.414062 -11.253906 13.90625 -11.734375 C 14.40625 -12.210938 14.65625 -12.828125 14.65625 -13.578125 Z M 14.65625 -13.578125 "/></g></g></g><g fill="#e7ebff" fill-opacity="1"><g transform="translate(176.224214, 205.200601)"><g><path d="M 12.34375 -29.234375 C 13.851562 -29.234375 15.3125 -28.957031 16.71875 -28.40625 C 18.125 -27.851562 19.378906 -27.085938 20.484375 -26.109375 C 21.585938 -25.140625 22.460938 -24.003906 23.109375 -22.703125 C 23.753906 -21.410156 24.078125 -20.023438 24.078125 -18.546875 L 24.078125 -10.328125 C 24.078125 -8.796875 23.753906 -7.363281 23.109375 -6.03125 C 22.460938 -4.695312 21.585938 -3.53125 20.484375 -2.53125 C 19.378906 -1.539062 18.125 -0.769531 16.71875 -0.21875 C 15.3125 0.332031 13.851562 0.609375 12.34375 0.609375 C 10.882812 0.609375 9.453125 0.332031 8.046875 -0.21875 C 6.640625 -0.769531 5.378906 -1.539062 4.265625 -2.53125 C 3.148438 -3.53125 2.257812 -4.695312 1.59375 -6.03125 C 0.9375 -7.363281 0.609375 -8.796875 0.609375 -10.328125 L 0.609375 -18.546875 C 0.609375 -20.023438 0.9375 -21.410156 1.59375 -22.703125 C 2.257812 -24.003906 3.148438 -25.140625 4.265625 -26.109375 C 5.378906 -27.085938 6.640625 -27.851562 8.046875 -28.40625 C 9.453125 -28.957031 10.882812 -29.234375 12.34375 -29.234375 Z M 14.765625 -10.6875 L 14.765625 -17.890625 C 14.765625 -18.535156 14.519531 -19.09375 14.03125 -19.5625 C 13.550781 -20.03125 12.988281 -20.265625 12.34375 -20.265625 C 11.675781 -20.265625 11.113281 -20.03125 10.65625 -19.5625 C 10.195312 -19.09375 9.96875 -18.535156 9.96875 -17.890625 L 9.96875 -10.6875 C 9.96875 -10.09375 10.195312 -9.5625 10.65625 -9.09375 C 11.113281 -8.625 11.675781 -8.390625 12.34375 -8.390625 C 12.988281 -8.390625 13.550781 -8.625 14.03125 -9.09375 C 14.519531 -9.5625 14.765625 -10.09375 14.765625 -10.6875 Z M 14.765625 -10.6875 "/></g></g></g><g fill="#e7ebff" fill-opacity="1"><g transform="translate(200.200266, 205.200601)"><g><path d="M 21.28125 -24.375 C 21.46875 -23.769531 21.613281 -23.046875 21.71875 -22.203125 C 21.832031 -21.367188 21.890625 -20.425781 21.890625 -19.375 C 21.890625 -17.300781 21.632812 -15.617188 21.125 -14.328125 C 20.625 -13.035156 20.070312 -12.023438 19.46875 -11.296875 C 18.46875 -10.097656 17.160156 -9.5 15.546875 -9.5 L 10.546875 -9.5 L 10.546875 -2.921875 C 10.546875 -2.128906 10.269531 -1.457031 9.71875 -0.90625 C 9.164062 -0.351562 8.503906 -0.078125 7.734375 -0.078125 L 4 -0.078125 C 3.226562 -0.078125 2.566406 -0.351562 2.015625 -0.90625 C 1.460938 -1.457031 1.1875 -2.128906 1.1875 -2.921875 L 1.1875 -25.890625 C 1.1875 -26.648438 1.460938 -27.3125 2.015625 -27.875 C 2.566406 -28.445312 3.226562 -28.734375 4 -28.734375 L 15.40625 -28.734375 C 16.75 -28.734375 17.96875 -28.328125 19.0625 -27.515625 C 20.15625 -26.710938 20.894531 -25.664062 21.28125 -24.375 Z M 13.828125 -19.4375 C 13.828125 -20.007812 13.617188 -20.507812 13.203125 -20.9375 C 12.796875 -21.375 12.296875 -21.59375 11.703125 -21.59375 L 11.015625 -21.59375 C 10.867188 -21.59375 10.753906 -21.539062 10.671875 -21.4375 C 10.585938 -21.332031 10.546875 -21.21875 10.546875 -21.09375 L 10.546875 -17.203125 C 10.546875 -16.921875 10.703125 -16.78125 11.015625 -16.78125 L 11.703125 -16.78125 C 12.296875 -16.78125 12.796875 -16.988281 13.203125 -17.40625 C 13.617188 -17.820312 13.828125 -18.332031 13.828125 -18.9375 Z M 13.828125 -19.4375 "/></g></g></g><g fill="#e7ebff" fill-opacity="1"><g transform="translate(221.980311, 205.200601)"><g><path d="M 24.125 -28.796875 C 24.8125 -28.796875 25.398438 -28.550781 25.890625 -28.0625 C 26.390625 -27.570312 26.640625 -26.976562 26.640625 -26.28125 L 26.640625 -21.34375 C 26.640625 -20.675781 26.390625 -20.085938 25.890625 -19.578125 C 25.398438 -19.078125 24.8125 -18.828125 24.125 -18.828125 L 19.1875 -18.828125 C 19 -18.828125 18.90625 -18.742188 18.90625 -18.578125 L 18.90625 -2.453125 C 18.90625 -1.773438 18.65625 -1.179688 18.15625 -0.671875 C 17.664062 -0.171875 17.070312 0.078125 16.375 0.078125 L 11.484375 0.078125 C 10.765625 0.078125 10.15625 -0.171875 9.65625 -0.671875 C 9.164062 -1.179688 8.921875 -1.773438 8.921875 -2.453125 L 8.921875 -18.578125 C 8.921875 -18.742188 8.835938 -18.828125 8.671875 -18.828125 L 3.703125 -18.828125 C 3.035156 -18.828125 2.445312 -19.078125 1.9375 -19.578125 C 1.4375 -20.085938 1.1875 -20.675781 1.1875 -21.34375 L 1.1875 -26.28125 C 1.1875 -26.976562 1.4375 -27.570312 1.9375 -28.0625 C 2.445312 -28.550781 3.035156 -28.796875 3.703125 -28.796875 Z M 24.125 -28.796875 "/></g></g></g><g fill="#e7ebff" fill-opacity="1"><g transform="translate(136.461273, 241.200599)"><g><path d="M 11.234375 -20.984375 C 11.160156 -20.984375 11.097656 -20.945312 11.046875 -20.875 C 11.003906 -20.800781 10.984375 -20.742188 10.984375 -20.703125 L 10.984375 -18.328125 C 10.984375 -18.179688 11.066406 -18.109375 11.234375 -18.109375 L 16.53125 -18.109375 C 17.007812 -18.109375 17.414062 -17.9375 17.75 -17.59375 C 18.082031 -17.257812 18.25 -16.851562 18.25 -16.375 L 18.25 -12.453125 C 18.25 -11.972656 18.082031 -11.566406 17.75 -11.234375 C 17.414062 -10.898438 17.007812 -10.734375 16.53125 -10.734375 L 11.234375 -10.734375 C 11.066406 -10.734375 10.984375 -10.644531 10.984375 -10.46875 L 10.984375 -8.171875 C 10.984375 -8.003906 11.066406 -7.921875 11.234375 -7.921875 L 18.546875 -7.921875 C 19.066406 -7.921875 19.515625 -7.726562 19.890625 -7.34375 C 20.265625 -6.957031 20.453125 -6.5 20.453125 -5.96875 L 20.453125 -1.9375 C 20.453125 -1.414062 20.265625 -0.972656 19.890625 -0.609375 C 19.515625 -0.253906 19.066406 -0.078125 18.546875 -0.078125 L 3.8125 -0.078125 C 3.070312 -0.078125 2.445312 -0.359375 1.9375 -0.921875 C 1.4375 -1.484375 1.1875 -2.289062 1.1875 -3.34375 L 1.1875 -26.78125 C 1.1875 -27.1875 1.4375 -27.617188 1.9375 -28.078125 C 2.445312 -28.535156 3.070312 -28.765625 3.8125 -28.765625 L 18.546875 -28.765625 C 19.066406 -28.765625 19.515625 -28.582031 19.890625 -28.21875 C 20.265625 -27.863281 20.453125 -27.421875 20.453125 -26.890625 L 20.453125 -22.859375 C 20.453125 -22.359375 20.265625 -21.921875 19.890625 -21.546875 C 19.515625 -21.171875 19.066406 -20.984375 18.546875 -20.984375 Z M 11.234375 -20.984375 "/></g></g></g><g fill="#e7ebff" fill-opacity="1"><g transform="translate(157.377312, 241.200599)"><g><path d="M 27.46875 -3.03125 C 27.582031 -2.5 27.53125 -1.972656 27.3125 -1.453125 C 27.101562 -0.941406 26.757812 -0.550781 26.28125 -0.28125 C 25.96875 -0.09375 25.609375 0 25.203125 0 L 20.296875 0 C 19.628906 0 19.125 -0.203125 18.78125 -0.609375 C 18.445312 -1.015625 18.148438 -1.554688 17.890625 -2.234375 L 16.8125 -5.046875 L 11.296875 -5.046875 L 10.265625 -2.234375 C 9.992188 -1.554688 9.691406 -1.019531 9.359375 -0.625 C 9.023438 -0.226562 8.519531 -0.03125 7.84375 -0.03125 L 2.953125 -0.03125 C 2.566406 -0.03125 2.253906 -0.09375 2.015625 -0.21875 C 1.484375 -0.457031 1.09375 -0.847656 0.84375 -1.390625 C 0.59375 -1.929688 0.539062 -2.488281 0.6875 -3.0625 L 7.15625 -26.859375 C 7.226562 -27.191406 7.351562 -27.46875 7.53125 -27.6875 C 7.71875 -27.90625 7.894531 -28.070312 8.0625 -28.1875 C 8.445312 -28.5 8.914062 -28.65625 9.46875 -28.65625 L 18.90625 -28.65625 C 19.164062 -28.65625 19.453125 -28.609375 19.765625 -28.515625 C 20.078125 -28.421875 20.363281 -28.238281 20.625 -27.96875 C 20.894531 -27.6875 21.070312 -27.394531 21.15625 -27.09375 C 21.238281 -26.789062 21.300781 -26.53125 21.34375 -26.3125 Z M 15.765625 -13.359375 C 15.929688 -13.359375 16.0625 -13.425781 16.15625 -13.5625 C 16.257812 -13.707031 16.285156 -13.867188 16.234375 -14.046875 L 15.296875 -16.484375 L 14.546875 -18.359375 C 14.472656 -18.597656 14.316406 -18.71875 14.078125 -18.71875 C 13.835938 -18.71875 13.679688 -18.597656 13.609375 -18.359375 L 12.890625 -16.484375 L 11.953125 -14.046875 C 11.859375 -13.867188 11.867188 -13.707031 11.984375 -13.5625 C 12.109375 -13.425781 12.253906 -13.359375 12.421875 -13.359375 Z M 15.765625 -13.359375 "/></g></g></g><g fill="#e7ebff" fill-opacity="1"><g transform="translate(184.809365, 241.200599)"><g><path d="M 12.59375 -30.09375 C 14.445312 -30.09375 16.015625 -29.890625 17.296875 -29.484375 C 18.578125 -29.078125 19.640625 -28.554688 20.484375 -27.921875 C 21.328125 -27.285156 21.988281 -26.601562 22.46875 -25.875 C 22.945312 -25.15625 23.300781 -24.472656 23.53125 -23.828125 C 23.757812 -23.179688 23.90625 -22.664062 23.96875 -22.28125 C 24.019531 -22.019531 23.984375 -21.796875 23.859375 -21.609375 C 23.742188 -21.429688 23.59375 -21.332031 23.40625 -21.3125 L 14.578125 -20.09375 C 14.171875 -20.09375 13.894531 -20.296875 13.75 -20.703125 C 13.582031 -21.179688 13.296875 -21.535156 12.890625 -21.765625 C 12.484375 -21.992188 12.132812 -22.109375 11.84375 -22.109375 C 11.457031 -22.109375 11.03125 -21.941406 10.5625 -21.609375 C 10.09375 -21.285156 9.859375 -20.78125 9.859375 -20.09375 C 9.859375 -19.507812 10.019531 -19.078125 10.34375 -18.796875 C 10.675781 -18.523438 11.054688 -18.347656 11.484375 -18.265625 C 11.910156 -18.179688 12.28125 -18.140625 12.59375 -18.140625 C 13.195312 -18.140625 13.976562 -18.132812 14.9375 -18.125 C 15.894531 -18.113281 16.90625 -17.992188 17.96875 -17.765625 C 19.039062 -17.535156 20.050781 -17.113281 21 -16.5 C 21.945312 -15.894531 22.722656 -15 23.328125 -13.8125 C 23.929688 -12.625 24.234375 -11.054688 24.234375 -9.109375 C 24.234375 -7.140625 23.910156 -5.484375 23.265625 -4.140625 C 22.628906 -2.796875 21.800781 -1.726562 20.78125 -0.9375 C 19.769531 -0.144531 18.660156 0.421875 17.453125 0.765625 C 16.253906 1.117188 15.09375 1.296875 13.96875 1.296875 C 11.707031 1.296875 9.820312 1.070312 8.3125 0.625 C 6.800781 0.1875 5.554688 -0.414062 4.578125 -1.1875 C 3.609375 -1.957031 2.835938 -2.820312 2.265625 -3.78125 C 1.691406 -4.738281 1.222656 -5.734375 0.859375 -6.765625 C 0.546875 -7.316406 0.664062 -7.65625 1.21875 -7.78125 L 10.875 -8.921875 C 11.132812 -8.972656 11.316406 -8.960938 11.421875 -8.890625 C 11.535156 -8.816406 11.613281 -8.707031 11.65625 -8.5625 C 11.851562 -7.84375 12.148438 -7.394531 12.546875 -7.21875 C 12.941406 -7.039062 13.285156 -6.953125 13.578125 -6.953125 C 14.078125 -6.953125 14.53125 -7.132812 14.9375 -7.5 C 15.34375 -7.875 15.546875 -8.347656 15.546875 -8.921875 C 15.546875 -9.523438 15.335938 -9.992188 14.921875 -10.328125 C 14.503906 -10.671875 13.992188 -10.84375 13.390625 -10.84375 L 11.234375 -10.84375 C 9.210938 -10.84375 7.398438 -11.222656 5.796875 -11.984375 C 4.191406 -12.753906 2.925781 -13.875 2 -15.34375 C 1.070312 -16.820312 0.609375 -18.609375 0.609375 -20.703125 C 0.609375 -22.378906 0.882812 -23.773438 1.4375 -24.890625 C 1.988281 -26.003906 2.707031 -26.90625 3.59375 -27.59375 C 4.488281 -28.28125 5.4375 -28.800781 6.4375 -29.15625 C 7.445312 -29.519531 8.40625 -29.757812 9.3125 -29.875 C 10.226562 -30 10.984375 -30.066406 11.578125 -30.078125 C 12.179688 -30.085938 12.519531 -30.09375 12.59375 -30.09375 Z M 12.59375 -30.09375 "/></g></g></g><g fill="#e7ebff" fill-opacity="1"><g transform="translate(208.929418, 241.200599)"><g><path d="M 28.546875 -25.921875 L 20.015625 -13.71875 L 20.015625 -2.046875 C 20.015625 -1.453125 19.769531 -0.960938 19.28125 -0.578125 C 18.789062 -0.191406 18.269531 0 17.71875 0 L 11.875 0 C 11.320312 0 10.804688 -0.191406 10.328125 -0.578125 C 9.847656 -0.960938 9.609375 -1.453125 9.609375 -2.046875 L 9.609375 -13.71875 L 1.078125 -25.921875 C 0.765625 -26.140625 0.609375 -26.507812 0.609375 -27.03125 C 0.609375 -27.582031 0.796875 -28.019531 1.171875 -28.34375 C 1.546875 -28.675781 1.957031 -28.84375 2.40625 -28.84375 L 8.96875 -28.84375 C 9.15625 -28.84375 9.378906 -28.796875 9.640625 -28.703125 C 9.910156 -28.617188 10.128906 -28.4375 10.296875 -28.15625 L 14.796875 -21.59375 L 19.546875 -28.15625 C 19.859375 -28.613281 20.226562 -28.84375 20.65625 -28.84375 L 27.1875 -28.84375 C 27.664062 -28.84375 28.082031 -28.675781 28.4375 -28.34375 C 28.800781 -28.019531 28.984375 -27.582031 28.984375 -27.03125 C 28.984375 -26.789062 28.941406 -26.566406 28.859375 -26.359375 C 28.773438 -26.160156 28.671875 -26.015625 28.546875 -25.921875 Z M 28.546875 -25.921875 "/></g></g></g></svg>